CommissionerFlair-Light.ufo
<glyph name="numbersign" format="2">
  <advance width="678.6947368421053"/>
  <unicode hex="0023"/>
  <outline>
    <contour>
      <point x="18.210526315789473" y="156.65263157894736" type="line"/>
      <point x="79.25263157894737" y="159.54736842105262"/>
      <point x="137.1157894736842" y="159.7263157894737"/>
      <point x="186.8" y="159.7263157894737" type="curve"/>
      <point x="433.93684210526317" y="159.7263157894737" type="line"/>
      <point x="483.62105263157895" y="159.7263157894737"/>
      <point x="541.4842105263158" y="159.54736842105262"/>
      <point x="602.5263157894736" y="156.65263157894736" type="curve"/>
      <point x="602.5263157894736" y="214.42105263157896" type="line"/>
      <point x="541.4842105263158" y="211.5263157894737"/>
      <point x="483.62105263157895" y="211.34736842105264"/>
      <point x="433.93684210526317" y="211.34736842105264" type="curve"/>
      <point x="186.8" y="211.34736842105264" type="line"/>
      <point x="137.1157894736842" y="211.34736842105264"/>
      <point x="79.25263157894737" y="211.5263157894737"/>
      <point x="18.210526315789473" y="214.42105263157896" type="curve"/>
    </contour>
    <contour>
      <point x="118.69473684210527" y="0.0" type="curve"/>
      <point x="182.14736842105265" y="0.0" type="line"/>
      <point x="192.10526315789474" y="68.17894736842105"/>
      <point x="203.74736842105264" y="126.61052631578947"/>
      <point x="221.03157894736842" y="210.78947368421052" type="curve"/>
      <point x="267.88421052631577" y="437.0421052631579" type="line"/>
      <point x="285.9894736842105" y="526.578947368421"/>
      <point x="298.4526315789474" y="585.0421052631579"/>
      <point x="316.8842105263158" y="656.578947368421" type="curve"/>
      <point x="253.7894736842105" y="656.578947368421" type="line"/>
      <point x="242.65263157894736" y="584.3263157894737"/>
      <point x="231.54736842105262" y="526.0421052631579"/>
      <point x="213.44210526315788" y="438.6842105263158" type="curve"/>
      <point x="166.58947368421053" y="210.78947368421052" type="line"/>
      <point x="149.30526315789473" y="126.25263157894737"/>
      <point x="135.30526315789473" y="67.46315789473684"/>
    </contour>
    <contour>
      <point x="76.16842105263157" y="439.1578947368421" type="line"/>
      <point x="137.21052631578948" y="442.05263157894734"/>
      <point x="195.07368421052632" y="442.2315789473684"/>
      <point x="244.7578947368421" y="442.2315789473684" type="curve"/>
      <point x="491.89473684210526" y="442.2315789473684" type="line"/>
      <point x="541.578947368421" y="442.2315789473684"/>
      <point x="599.4421052631579" y="442.05263157894734"/>
      <point x="660.4842105263158" y="439.1578947368421" type="curve"/>
      <point x="660.4842105263158" y="496.9263157894737" type="line"/>
      <point x="599.4421052631579" y="494.0315789473684"/>
      <point x="541.578947368421" y="493.85263157894735"/>
      <point x="491.89473684210526" y="493.85263157894735" type="curve"/>
      <point x="244.7578947368421" y="493.85263157894735" type="line"/>
      <point x="195.07368421052632" y="493.85263157894735"/>
      <point x="137.21052631578948" y="494.0315789473684"/>
      <point x="76.16842105263157" y="496.9263157894737" type="curve"/>
    </contour>
    <contour>
      <point x="354.0631578947369" y="0.0" type="curve"/>
      <point x="417.5157894736842" y="0.0" type="line"/>
      <point x="427.4736842105263" y="68.17894736842105"/>
      <point x="439.11578947368423" y="126.61052631578947"/>
      <point x="456.4" y="210.78947368421052" type="curve"/>
      <point x="503.2526315789474" y="437.0421052631579" type="line"/>
      <point x="521.3578947368421" y="526.578947368421"/>
      <point x="533.8210526315789" y="585.0421052631579"/>
      <point x="552.2526315789473" y="656.578947368421" type="curve"/>
      <point x="489.15789473684214" y="656.578947368421" type="line"/>
      <point x="478.0210526315789" y="584.3263157894737"/>
      <point x="466.9157894736842" y="526.0421052631579"/>
      <point x="448.8105263157895" y="438.6842105263158" type="curve"/>
      <point x="401.9578947368421" y="210.78947368421052" type="line"/>
      <point x="384.6736842105263" y="126.25263157894737"/>
      <point x="370.6736842105263" y="67.46315789473684"/>
    </contour>
  </outline>
</glyph>
<glyph name="dollar" format="2">
  <advance width="558.4421052631579"/>
  <unicode hex="0024"/>
  <outline>
    <contour>
      <point x="288.38947368421054" y="-10.073684210526316" type="curve" smooth="yes"/>
      <point x="445.87368421052633" y="-10.073684210526316"/>
      <point x="515.6315789473684" y="74.85263157894737"/>
      <point x="515.6315789473684" y="182.3684210526316" type="curve" smooth="yes"/>
      <point x="515.6315789473684" y="276.8105263157895"/>
      <point x="464.2736842105263" y="325.1684210526316"/>
      <point x="300.8105263157895" y="378.37894736842105" type="curve" smooth="yes"/>
      <point x="175.57894736842104" y="419.62105263157895"/>
      <point x="121.97894736842105" y="444.7894736842105"/>
      <point x="121.97894736842105" y="515.1263157894737" type="curve" smooth="yes"/>
      <point x="121.97894736842105" y="601.5263157894736"/>
      <point x="197.82105263157894" y="635.6947368421053"/>
      <point x="280.12631578947367" y="637.3368421052631" type="curve"/>
      <point x="314.7684210526316" y="637.3368421052631"/>
      <point x="385.2" y="619.978947368421"/>
      <point x="466.09473684210525" y="580.6947368421053" type="curve"/>
      <point x="474.5263157894737" y="646.4" type="line"/>
      <point x="424.1684210526316" y="665.6105263157895"/>
      <point x="342.1894736842105" y="696.7157894736843"/>
      <point x="275.4315789473684" y="696.7157894736843" type="curve" smooth="yes"/>
      <point x="133.55789473684212" y="696.7157894736843"/>
      <point x="58.66315789473684" y="617.7473684210527"/>
      <point x="58.66315789473684" y="514.9473684210526" type="curve" smooth="yes"/>
      <point x="58.66315789473684" y="410.6842105263158"/>
      <point x="133.41052631578947" y="368.0736842105263"/>
      <point x="264.5473684210526" y="326.22105263157897" type="curve" smooth="yes"/>
      <point x="381.3578947368421" y="288.90526315789475"/>
      <point x="452.4947368421053" y="260.09473684210525"/>
      <point x="452.4947368421053" y="182.47368421052633" type="curve" smooth="yes"/>
      <point x="452.4947368421053" y="84.7578947368421"/>
      <point x="379.62105263157895" y="50.231578947368426"/>
      <point x="286.6" y="48.58947368421053" type="curve"/>
      <point x="223.85263157894735" y="48.58947368421053"/>
      <point x="148.09473684210528" y="72.12631578947368"/>
      <point x="74.34736842105264" y="106.41052631578948" type="curve"/>
      <point x="67.37894736842105" y="39.16842105263158" type="line"/>
      <point x="118.37894736842105" y="21.136842105263156"/>
      <point x="196.9157894736842" y="-10.073684210526316"/>
    </contour>
    <contour>
      <point x="254.33684210526314" y="-137.0" type="curve"/>
      <point x="315.17894736842106" y="-137.0" type="line"/>
      <point x="311.5684210526316" y="-19.0"/>
      <point x="311.38947368421054" y="84.0"/>
      <point x="311.38947368421054" y="192.0" type="curve"/>
      <point x="311.38947368421054" y="474.0" type="line"/>
      <point x="311.38947368421054" y="582.0"/>
      <point x="311.5684210526316" y="685.0"/>
      <point x="315.17894736842106" y="803.0" type="curve"/>
      <point x="254.33684210526314" y="803.0" type="line"/>
      <point x="257.9473684210526" y="685.0"/>
      <point x="258.12631578947367" y="582.0"/>
      <point x="258.12631578947367" y="474.0" type="curve"/>
      <point x="258.12631578947367" y="192.0" type="line"/>
      <point x="258.12631578947367" y="84.0"/>
      <point x="257.9473684210526" y="-19.0"/>
    </contour>
  </outline>
</glyph>
<glyph name="percent" format="2">
  <advance width="864.421052631579"/>
  <unicode hex="0025"/>
  <outline>
    <contour>
      <point x="190.6315789473684" y="0.0" type="curve"/>
      <point x="263.9157894736842" y="0.0" type="line"/>
      <point x="301.30526315789473" y="73.0"/>
      <point x="337.66315789473686" y="138.17894736842106"/>
      <point x="389.5578947368421" y="229.17894736842106" type="curve"/>
      <point x="530.7052631578947" y="477.0" type="line"/>
      <point x="584.2421052631579" y="571.6421052631579"/>
      <point x="621.6736842105263" y="636.3578947368421"/>
      <point x="670.1789473684211" y="713.0" type="curve"/>
      <point x="597.2526315789473" y="713.0" type="line"/>
      <point x="558.8631578947368" y="636.3578947368421"/>
      <point x="521.9684210526316" y="571.6421052631579"/>
      <point x="468.4315789473684" y="477.0" type="curve"/>
      <point x="327.2842105263158" y="229.17894736842106" type="line"/>
      <point x="275.38947368421054" y="138.17894736842106"/>
      <point x="238.13684210526316" y="73.0"/>
    </contour>
    <contour>
      <point x="218.86315789473684" y="373.70526315789476" type="curve" smooth="yes"/>
      <point x="326.58947368421053" y="373.70526315789476"/>
      <point x="401.66315789473686" y="442.70526315789476"/>
      <point x="401.66315789473686" y="548.9263157894737" type="curve" smooth="yes"/>
      <point x="401.66315789473686" y="649.8210526315789"/>
      <point x="326.58947368421053" y="725.7157894736843"/>
      <point x="219.86315789473684" y="725.7157894736843" type="curve" smooth="yes"/>
      <point x="112.3157894736842" y="725.7157894736843"/>
      <point x="36.421052631578945" y="649.8210526315789"/>
      <point x="36.421052631578945" y="548.9263157894737" type="curve" smooth="yes"/>
      <point x="36.421052631578945" y="442.70526315789476"/>
      <point x="112.3157894736842" y="373.70526315789476"/>
    </contour>
    <contour>
      <point x="219.0421052631579" y="422.6" type="curve"/>
      <point x="140.6" y="425.13684210526316"/>
      <point x="90.32631578947368" y="469.58947368421053"/>
      <point x="90.32631578947368" y="548.3894736842105" type="curve" smooth="yes"/>
      <point x="90.32631578947368" y="624.0105263157894"/>
      <point x="140.2421052631579" y="673.9263157894736"/>
      <point x="219.86315789473684" y="676.6421052631579" type="curve"/>
      <point x="299.4842105263158" y="673.9263157894736"/>
      <point x="347.7578947368421" y="623.6526315789473"/>
      <point x="347.7578947368421" y="548.3894736842105" type="curve" smooth="yes"/>
      <point x="347.7578947368421" y="469.58947368421053"/>
      <point x="299.3052631578948" y="425.13684210526316"/>
    </contour>
    <contour>
      <point x="643.4105263157894" y="-10.25263157894737" type="curve" smooth="yes"/>
      <point x="751.1368421052632" y="-10.25263157894737"/>
      <point x="826.2105263157895" y="58.747368421052634"/>
      <point x="826.2105263157895" y="164.96842105263158" type="curve" smooth="yes"/>
      <point x="826.2105263157895" y="265.86315789473684"/>
      <point x="751.1368421052632" y="341.7578947368421"/>
      <point x="644.4105263157895" y="341.7578947368421" type="curve" smooth="yes"/>
      <point x="536.8631578947368" y="341.7578947368421"/>
      <point x="460.9684210526316" y="265.86315789473684"/>
      <point x="460.9684210526316" y="164.96842105263158" type="curve" smooth="yes"/>
      <point x="460.9684210526316" y="58.747368421052634"/>
      <point x="536.8631578947368" y="-10.25263157894737"/>
    </contour>
    <contour>
      <point x="643.4105263157894" y="38.642105263157895" type="curve"/>
      <point x="564.9684210526316" y="41.17894736842105"/>
      <point x="514.6947368421053" y="85.63157894736841"/>
      <point x="514.6947368421053" y="164.43157894736842" type="curve" smooth="yes"/>
      <point x="514.6947368421053" y="240.05263157894737"/>
      <point x="564.6105263157895" y="289.9684210526316"/>
      <point x="644.2315789473685" y="292.6842105263158" type="curve"/>
      <point x="723.8526315789474" y="289.9684210526316"/>
      <point x="772.1263157894737" y="239.69473684210527"/>
      <point x="772.1263157894737" y="164.43157894736842" type="curve" smooth="yes"/>
      <point x="772.1263157894737" y="85.63157894736841"/>
      <point x="723.6736842105263" y="41.17894736842105"/>
    </contour>
  </outline>
</glyph>
<glyph name="ampersand" format="2">
  <advance width="727.1954022988506"/>
  <unicode hex="0026"/>
  <outline>
    <contour>
      <point x="617.3333333333334" y="0.0" type="curve"/>
      <point x="713.448275862069" y="0.0" type="line"/>
      <point x="650.5862068965517" y="57.47126436781609"/>
      <point x="592.6781609195402" y="115.55172413793103"/>
      <point x="534.551724137931" y="173.632183908046" type="curve"/>
      <point x="303.14942528735634" y="403.8965517241379" type="line" smooth="yes"/>
      <point x="240.79310344827587" y="465.42528735632186"/>
      <point x="213.09195402298852" y="507.2988505747126"/>
      <point x="213.09195402298852" y="561.4827586206897" type="curve" smooth="yes"/>
      <point x="213.09195402298852" y="624.4942528735633"/>
      <point x="252.01149425287355" y="670.1149425287356"/>
      <point x="318.0689655172414" y="672.5057471264367" type="curve"/>
      <point x="376.8620689655172" y="670.1149425287356"/>
      <point x="419.5632183908046" y="631.8045977011494"/>
      <point x="419.5632183908046" y="569.528735632184" type="curve" smooth="yes"/>
      <point x="419.5632183908046" y="497.08045977011494"/>
      <point x="352.2068965517241" y="460.3793103448276"/>
      <point x="281.367816091954" y="420.28735632183907" type="curve"/>
      <point x="316.39080459770116" y="378.13793103448273" type="line"/>
      <point x="388.1379310344828" y="419.74712643678157"/>
      <point x="481.04597701149424" y="476.0"/>
      <point x="481.04597701149424" y="570.7011494252873" type="curve" smooth="yes"/>
      <point x="481.04597701149424" y="668.0"/>
      <point x="406.8390804597701" y="725.7816091954023"/>
      <point x="315.7241379310345" y="725.7816091954023" type="curve" smooth="yes"/>
      <point x="222.73563218390805" y="725.7816091954023"/>
      <point x="147.70114942528735" y="662.5632183908046"/>
      <point x="147.70114942528735" y="561.0919540229885" type="curve" smooth="yes"/>
      <point x="147.70114942528735" y="487.4367816091954"/>
      <point x="187.7471264367816" y="433.04597701149424"/>
      <point x="251.83908045977012" y="369.0" type="curve" smooth="yes"/>
      <point x="485.58620689655174" y="136.0" type="line"/>
      <point x="531.4137931034483" y="91.0"/>
      <point x="578.2413793103449" y="44.0"/>
    </contour>
    <contour>
      <point x="271.3103448275862" y="-9.781609195402298" type="curve" smooth="yes"/>
      <point x="358.18390804597703" y="-9.781609195402298"/>
      <point x="426.7471264367816" y="34.701149425287355"/>
      <point x="500.18390804597703" y="114.05747126436782" type="curve"/>
      <point x="512.5747126436781" y="114.05747126436782" type="line"/>
      <point x="509.18390804597703" y="129.183908045977" type="line"/>
      <point x="467.9425287356322" y="166.11494252873564" type="line"/>
      <point x="401.10344827586204" y="83.22988505747126"/>
      <point x="338.5402298850575" y="47.40229885057471"/>
      <point x="277.95402298850576" y="47.40229885057471" type="curve"/>
      <point x="175.75862068965517" y="49.79310344827586"/>
      <point x="116.79310344827587" y="103.54022988505747"/>
      <point x="116.79310344827587" y="188.42528735632183" type="curve" smooth="yes"/>
      <point x="116.79310344827587" y="275.13793103448273"/>
      <point x="180.67816091954023" y="329.8390804597701"/>
      <point x="266.1264367816092" y="368.7586206896552" type="curve"/>
      <point x="237.05747126436782" y="413.1264367816092" type="line"/>
      <point x="148.49425287356323" y="373.1264367816092"/>
      <point x="52.96551724137931" y="305.3448275862069"/>
      <point x="52.96551724137931" y="183.3448275862069" type="curve" smooth="yes"/>
      <point x="52.96551724137931" y="76.82758620689656"/>
      <point x="125.74712643678161" y="-9.781609195402298"/>
    </contour>
    <contour>
      <point x="542.4597701149426" y="158.94252873563218" type="line"/>
      <point x="586.1954022988506" y="221.77011494252872"/>
      <point x="628.3218390804598" y="281.98850574712645"/>
      <point x="674.2298850574713" y="341.64367816091954" type="curve"/>
      <point x="612.9195402298851" y="379.57471264367814" type="line"/>
      <point x="578.8735632183908" y="315.57471264367814"/>
      <point x="542.264367816092" y="257.9655172413793"/>
      <point x="502.04597701149424" y="194.91954022988506" type="curve"/>
    </contour>
  </outline>
</glyph>
<glyph name="parenleft" format="2">
  <advance width="377.77894736842103"/>
  <unicode hex="0028"/>
  <outline>
    <contour>
      <point x="277.9578947368421" y="-117.90526315789474" type="curve"/>
      <point x="336.65263157894736" y="-94.49473684210527" type="line"/>
      <point x="221.69473684210527" y="16.042105263157893"/>
      <point x="129.2" y="141.53684210526316"/>
      <point x="129.2" y="323.82105263157894" type="curve" smooth="yes"/>
      <point x="129.2" y="506.9263157894737"/>
      <point x="221.69473684210527" y="631.6"/>
      <point x="336.65263157894736" y="742.1368421052632" type="curve"/>
      <point x="277.9578947368421" y="765.5473684210526" type="line"/>
      <point x="166.53684210526316" y="654.8105263157894"/>
      <point x="62.8421052631579" y="518.3684210526316"/>
      <point x="62.8421052631579" y="323.82105263157894" type="curve" smooth="yes"/>
      <point x="62.8421052631579" y="130.09473684210525"/>
      <point x="166.53684210526316" y="-7.168421052631581"/>
    </contour>
  </outline>
</glyph>
<glyph name="asterisk" format="2">
  <advance width="467.8421052631579"/>
  <unicode hex="002A"/>
  <outline>
    <contour>
      <point x="412.32631578947365" y="375.87368421052633" type="curve"/>
      <point x="440.98947368421057" y="423.23157894736846" type="line"/>
      <point x="374.2" y="458.4421052631579"/>
      <point x="307.94736842105266" y="495.0105263157895"/>
      <point x="243.33684210526317" y="532.578947368421" type="curve"/>
      <point x="179.33684210526314" y="574.6526315789474"/>
      <point x="117.33684210526316" y="616.9052631578948"/>
      <point x="55.51578947368421" y="660.5157894736842" type="curve"/>
      <point x="26.852631578947367" y="613.1578947368421" type="line"/>
      <point x="93.6421052631579" y="577.9473684210526"/>
      <point x="160.07368421052632" y="541.378947368421"/>
      <point x="225.50526315789475" y="502.81052631578945" type="curve"/>
      <point x="288.5052631578947" y="461.7368421052631"/>
      <point x="350.5052631578947" y="419.30526315789473"/>
    </contour>
    <contour>
      <point x="55.694736842105264" y="375.87368421052633" type="line"/>
      <point x="117.33684210526316" y="419.4842105263158"/>
      <point x="179.5157894736842" y="461.7368421052631"/>
      <point x="243.33684210526317" y="503.81052631578945" type="curve"/>
      <point x="307.94736842105266" y="541.378947368421"/>
      <point x="374.37894736842105" y="577.9473684210526"/>
      <point x="440.98947368421057" y="613.3368421052631" type="curve"/>
      <point x="412.32631578947365" y="660.5157894736842" type="line"/>
      <point x="350.5052631578947" y="616.9052631578948"/>
      <point x="288.5052631578947" y="574.6526315789474"/>
      <point x="225.50526315789475" y="533.4" type="curve"/>
      <point x="159.89473684210526" y="495.0105263157895"/>
      <point x="93.6421052631579" y="458.4421052631579"/>
      <point x="26.852631578947367" y="423.23157894736846" type="curve"/>
    </contour>
    <contour>
      <point x="205.9894736842105" y="291.6736842105263" type="curve"/>
      <point x="261.85263157894735" y="291.6736842105263" type="line"/>
      <point x="256.8842105263158" y="367.2105263157895"/>
      <point x="253.45263157894738" y="442.7473684210526"/>
      <point x="250.8421052631579" y="519.1052631578947" type="curve"/>
      <point x="253.45263157894738" y="593.8210526315789"/>
      <point x="256.8842105263158" y="669.3578947368421"/>
      <point x="261.67368421052635" y="744.8947368421053" type="curve"/>
      <point x="205.9894736842105" y="744.8947368421053" type="line"/>
      <point x="210.9578947368421" y="669.3578947368421"/>
      <point x="214.38947368421051" y="593.8210526315789"/>
      <point x="217.0" y="519.1052631578947" type="curve"/>
      <point x="214.38947368421051" y="442.7473684210526"/>
      <point x="210.9578947368421" y="367.2105263157895"/>
    </contour>
  </outline>
</glyph>
<glyph name="plus" format="2">
  <advance width="585.3684210526316"/>
  <unicode hex="002B"/>
  <outline>
    <contour>
      <point x="259.7578947368421" y="61.242105263157896" type="curve"/>
      <point x="325.61052631578946" y="61.242105263157896" type="line"/>
      <point x="322.7157894736842" y="122.28421052631579"/>
      <point x="322.53684210526313" y="180.14736842105262"/>
      <point x="322.53684210526313" y="229.83157894736843" type="curve"/>
      <point x="322.53684210526313" y="365.17894736842106" type="line"/>
      <point x="322.53684210526313" y="414.86315789473684"/>
      <point x="322.7157894736842" y="472.7263157894737"/>
      <point x="325.61052631578946" y="533.7684210526315" type="curve"/>
      <point x="259.7578947368421" y="533.7684210526315" type="line"/>
      <point x="262.65263157894736" y="472.7263157894737"/>
      <point x="262.8315789473684" y="414.86315789473684"/>
      <point x="262.8315789473684" y="365.17894736842106" type="curve"/>
      <point x="262.8315789473684" y="229.83157894736843" type="line"/>
      <point x="262.8315789473684" y="180.14736842105262"/>
      <point x="262.65263157894736" y="122.28421052631579"/>
    </contour>
    <contour>
      <point x="64.63157894736842" y="265.1157894736842" type="line"/>
      <point x="125.67368421052632" y="268.01052631578943"/>
      <point x="183.53684210526316" y="268.1894736842105"/>
      <point x="233.22105263157894" y="268.1894736842105" type="curve"/>
      <point x="352.14736842105265" y="268.1894736842105" type="line"/>
      <point x="401.8315789473684" y="268.1894736842105"/>
      <point x="459.69473684210527" y="268.01052631578943"/>
      <point x="520.7368421052631" y="265.1157894736842" type="curve"/>
      <point x="520.7368421052631" y="329.89473684210526" type="line"/>
      <point x="459.69473684210527" y="327.0"/>
      <point x="401.8315789473684" y="326.82105263157894"/>
      <point x="352.14736842105265" y="326.82105263157894" type="curve"/>
      <point x="233.22105263157894" y="326.82105263157894" type="line"/>
      <point x="183.53684210526316" y="326.82105263157894"/>
      <point x="125.67368421052632" y="327.0"/>
      <point x="64.63157894736842" y="329.89473684210526" type="curve"/>
    </contour>
  </outline>
</glyph>
<glyph name="comma" format="2">
  <advance width="224.37894736842105"/>
  <unicode hex="002C"/>
  <outline>
    <contour>
      <point x="35.873684210526314" y="-157.0" type="curve"/>
      <point x="77.83157894736843" y="-155.82105263157894" type="line"/>
      <point x="114.80000000000001" y="-107.89473684210526"/>
      <point x="168.17894736842106" y="-15.31578947368421"/>
      <point x="168.17894736842106" y="51.694736842105264" type="curve" smooth="yes"/>
      <point x="168.17894736842106" y="83.74736842105263"/>
      <point x="154.42105263157896" y="107.36842105263158"/>
      <point x="122.93684210526315" y="109.97894736842105" type="curve"/>
      <point x="81.01052631578948" y="107.54736842105262" type="line"/>
      <point x="85.97894736842106" y="78.0"/>
      <point x="87.87368421052632" y="48.45263157894737"/>
      <point x="87.87368421052632" y="19.978947368421053" type="curve"/>
      <point x="87.87368421052632" y="-38.09473684210526"/>
      <point x="72.18947368421053" y="-98.17894736842105"/>
    </contour>
  </outline>
</glyph>
<glyph name="hyphen" format="2">
  <advance width="421.7894736842105"/>
  <unicode hex="002D"/>
  <outline>
    <contour>
      <point x="64.63157894736842" y="264.2210526315789" type="line"/>
      <point x="117.77894736842106" y="267.1157894736842"/>
      <point x="167.92631578947368" y="267.29473684210524"/>
      <point x="210.89473684210526" y="267.29473684210524" type="curve"/>
      <point x="253.86315789473684" y="267.29473684210524"/>
      <point x="304.0105263157895" y="267.1157894736842"/>
      <point x="357.1578947368421" y="264.2210526315789" type="curve"/>
      <point x="357.1578947368421" y="329.0" type="line"/>
      <point x="304.0105263157895" y="326.10526315789474"/>
      <point x="253.86315789473684" y="325.9263157894737"/>
      <point x="210.89473684210526" y="325.9263157894737" type="curve"/>
      <point x="167.92631578947368" y="325.9263157894737"/>
      <point x="117.77894736842106" y="326.10526315789474"/>
      <point x="64.63157894736842" y="329.0" type="curve"/>
    </contour>
  </outline>
</glyph>
<glyph name="period" format="2">
  <advance width="227.67368421052632"/>
  <unicode hex="002E"/>
  <outline>
    <contour>
      <point x="114.15789473684211" y="-10.25263157894737" type="curve" smooth="yes"/>
      <point x="150.92631578947368" y="-10.25263157894737"/>
      <point x="173.1157894736842" y="8.936842105263157"/>
      <point x="173.1157894736842" y="52.24210526315789" type="curve" smooth="yes"/>
      <point x="173.1157894736842" y="87.86315789473684"/>
      <point x="150.92631578947368" y="105.69473684210527"/>
      <point x="114.33684210526316" y="105.69473684210527" type="curve" smooth="yes"/>
      <point x="78.38947368421053" y="105.69473684210527"/>
      <point x="55.37894736842105" y="87.86315789473684"/>
      <point x="55.37894736842105" y="52.24210526315789" type="curve" smooth="yes"/>
      <point x="55.37894736842105" y="8.936842105263157"/>
      <point x="78.38947368421053" y="-10.25263157894737"/>
    </contour>
  </outline>
</glyph>
<glyph name="slash" format="2">
  <advance width="446.41052631578947"/>
  <unicode hex="002F"/>
  <outline>
    <contour>
      <point x="30.48421052631579" y="0.0" type="curve"/>
      <point x="104.52631578947368" y="0.0" type="line"/>
      <point x="132.94736842105263" y="74.0"/>
      <point x="159.5157894736842" y="137.0"/>
      <point x="199.7263157894737" y="228.0" type="curve"/>
      <point x="307.0736842105263" y="474.0" type="line"/>
      <point x="349.2842105263158" y="571.0"/>
      <point x="378.2105263157895" y="636.0"/>
      <point x="415.9263157894737" y="713.0" type="curve"/>
      <point x="342.0631578947369" y="713.0" type="line"/>
      <point x="311.82105263157894" y="636.0"/>
      <point x="284.2526315789474" y="570.8210526315789"/>
      <point x="243.0421052631579" y="476.0" type="curve"/>
      <point x="134.69473684210527" y="228.0" type="line"/>
      <point x="94.48421052631579" y="137.0"/>
      <point x="65.55789473684212" y="74.0"/>
    </contour>
  </outline>
</glyph>
<glyph name="zero" format="2">
  <advance width="649.2631578947369"/>
  <unicode hex="0030"/>
  <outline>
    <contour>
      <point x="327.22105263157897" y="-10.073684210526316" type="curve" smooth="yes"/>
      <point x="496.5263157894737" y="-10.073684210526316"/>
      <point x="590.5263157894736" y="126.89473684210526"/>
      <point x="590.5263157894736" y="344.17894736842106" type="curve" smooth="yes"/>
      <point x="590.5263157894736" y="555.4631578947368"/>
      <point x="500.70526315789476" y="697.7894736842105"/>
      <point x="324.6842105263158" y="697.7894736842105" type="curve" smooth="yes"/>
      <point x="151.30526315789473" y="697.7894736842105"/>
      <point x="58.73684210526316" y="557.1052631578947"/>
      <point x="58.73684210526316" y="344.0" type="curve" smooth="yes"/>
      <point x="58.73684210526316" y="138.96842105263158"/>
      <point x="143.02105263157895" y="-10.073684210526316"/>
    </contour>
    <contour>
      <point x="325.22105263157897" y="49.66315789473684" type="curve"/>
      <point x="184.18947368421053" y="53.37894736842105"/>
      <point x="127.42105263157895" y="173.56842105263158"/>
      <point x="127.42105263157895" y="344.17894736842106" type="curve" smooth="yes"/>
      <point x="127.42105263157895" y="513.8631578947368"/>
      <point x="187.18947368421053" y="634.1578947368421"/>
      <point x="325.22105263157897" y="637.8736842105263" type="curve"/>
      <point x="459.61052631578946" y="634.1578947368421"/>
      <point x="522.021052631579" y="522.7157894736841"/>
      <point x="522.021052631579" y="344.17894736842106" type="curve" smooth="yes"/>
      <point x="522.021052631579" y="176.03157894736842"/>
      <point x="465.89473684210526" y="53.37894736842105"/>
    </contour>
  </outline>
</glyph>
<glyph name="one" format="2">
  <advance width="422.6736842105263"/>
  <unicode hex="0031"/>
  <outline>
    <contour>
      <point x="53.04210526315789" y="496.5157894736842" type="line"/>
      <point x="125.57894736842105" y="541.4105263157894"/>
      <point x="198.83157894736843" y="583.1578947368421"/>
      <point x="273.0842105263158" y="623.9052631578948" type="curve"/>
      <point x="274.69473684210527" y="687.7894736842105" type="line"/>
      <point x="194.4" y="643.7894736842105"/>
      <point x="114.74736842105264" y="600.6105263157895"/>
      <point x="33.09473684210527" y="561.4" type="curve"/>
    </contour>
    <contour>
      <point x="236.86315789473684" y="0.0" type="curve"/>
      <point x="313.2" y="0.0" type="line"/>
      <point x="308.58947368421053" y="73.92631578947369"/>
      <point x="307.5157894736842" y="138.03157894736842"/>
      <point x="307.5157894736842" y="219.56842105263158" type="curve"/>
      <point x="307.5157894736842" y="447.3578947368421" type="line"/>
      <point x="307.5157894736842" y="531.2842105263157"/>
      <point x="309.05263157894734" y="611.1052631578947"/>
      <point x="313.2" y="685.0736842105263" type="curve"/>
      <point x="274.69473684210527" y="687.7894736842105" type="line"/>
      <point x="239.1157894736842" y="655.2947368421053" type="line"/>
      <point x="240.54736842105262" y="582.7263157894737"/>
      <point x="241.7263157894737" y="510.33684210526314"/>
      <point x="241.7263157894737" y="438.58947368421053" type="curve"/>
      <point x="241.7263157894737" y="219.56842105263158" type="line"/>
      <point x="241.7263157894737" y="138.03157894736842"/>
      <point x="240.47368421052633" y="73.92631578947369"/>
    </contour>
  </outline>
</glyph>
<glyph name="two" format="2">
  <advance width="550.5157894736842"/>
  <unicode hex="0032"/>
  <outline>
    <contour>
      <point x="50.136842105263156" y="0.0" type="line"/>
      <point x="494.9894736842105" y="0.0" type="line"/>
      <point x="494.9894736842105" y="65.74736842105264" type="line"/>
      <point x="417.10526315789474" y="60.526315789473685"/>
      <point x="338.4" y="59.347368421052636"/>
      <point x="260.5157894736842" y="59.347368421052636" type="curve"/>
      <point x="117.21052631578948" y="59.347368421052636" type="line"/>
      <point x="128.43157894736842" y="45.084210526315786" type="line"/>
      <point x="242.98947368421054" y="144.31578947368422" type="line"/>
      <point x="397.65263157894736" y="278.4"/>
      <point x="480.4947368421053" y="389.0"/>
      <point x="480.4947368421053" y="504.42105263157896" type="curve" smooth="yes"/>
      <point x="480.4947368421053" y="623.3578947368421"/>
      <point x="404.4526315789474" y="697.7894736842105"/>
      <point x="270.11578947368423" y="697.7894736842105" type="curve" smooth="yes"/>
      <point x="201.96842105263158" y="697.7894736842105"/>
      <point x="101.74736842105263" y="660.578947368421"/>
      <point x="46.95789473684211" y="639.2947368421053" type="curve"/>
      <point x="55.10526315789474" y="569.9052631578948" type="line"/>
      <point x="142.16842105263157" y="615.8315789473685"/>
      <point x="227.16842105263157" y="637.5157894736842"/>
      <point x="261.1684210526316" y="637.5157894736842" type="curve"/>
      <point x="362.3578947368421" y="636.1578947368421"/>
      <point x="412.63157894736844" y="590.421052631579"/>
      <point x="412.63157894736844" y="497.87368421052633" type="curve" smooth="yes"/>
      <point x="412.63157894736844" y="391.38947368421054"/>
      <point x="324.38947368421054" y="290.7263157894737"/>
      <point x="176.33684210526314" y="159.85263157894738" type="curve"/>
      <point x="134.4842105263158" y="123.17894736842105"/>
      <point x="91.98947368421052" y="87.7578947368421"/>
      <point x="50.136842105263156" y="54.33684210526316" type="curve"/>
    </contour>
  </outline>
</glyph>
<glyph name="three" format="2">
  <advance width="567.2528735632184"/>
  <unicode hex="0033"/>
  <outline>
    <contour>
      <point x="275.5632183908046" y="-10.172413793103448" type="curve" smooth="yes"/>
      <point x="435.1609195402299" y="-10.172413793103448"/>
      <point x="513.1149425287356" y="74.2183908045977"/>
      <point x="513.1149425287356" y="181.73563218390805" type="curve" smooth="yes"/>
      <point x="513.1149425287356" y="293.17241379310343"/>
      <point x="428.41379310344826" y="348.60919540229884"/>
      <point x="355.8045977011494" y="361.0" type="curve"/>
      <point x="355.8045977011494" y="368.5632183908046" type="line"/>
      <point x="428.02298850574715" y="385.7816091954023"/>
      <point x="489.0689655172414" y="446.264367816092"/>
      <point x="489.0689655172414" y="532.264367816092" type="curve" smooth="yes"/>
      <point x="489.0689655172414" y="634.6091954022988"/>
      <point x="402.67816091954023" y="697.9540229885057"/>
      <point x="280.5632183908046" y="697.9540229885057" type="curve" smooth="yes"/>
      <point x="213.60919540229884" y="697.9540229885057"/>
      <point x="115.48275862068965" y="657.2988505747127"/>
      <point x="61.91954022988506" y="634.471264367816" type="curve"/>
      <point x="70.26436781609195" y="566.9885057471264" type="line"/>
      <point x="156.35632183908046" y="615.2528735632184"/>
      <point x="240.7471264367816" y="637.4252873563219"/>
      <point x="273.7471264367816" y="637.4252873563219" type="curve"/>
      <point x="358.1494252873563" y="636.0344827586207"/>
      <point x="421.3333333333333" y="601.7241379310345"/>
      <point x="421.3333333333333" y="523.2758620689655" type="curve" smooth="yes"/>
      <point x="421.3333333333333" y="446.82758620689657"/>
      <point x="363.7586206896552" y="388.1609195402299"/>
      <point x="227.51724137931035" y="387.37931034482756" type="curve"/>
      <point x="208.7816091954023" y="387.37931034482756"/>
      <point x="190.04597701149424" y="387.7701149425287"/>
      <point x="171.70114942528735" y="389.94252873563215" type="curve"/>
      <point x="171.70114942528735" y="328.632183908046" type="line"/>
      <point x="191.2183908045977" y="330.41379310344826"/>
      <point x="210.3448275862069" y="330.8045977011494"/>
      <point x="230.2528735632184" y="330.8045977011494" type="curve"/>
      <point x="365.4942528735632" y="330.0229885057471"/>
      <point x="445.37931034482756" y="279.4022988505747"/>
      <point x="445.37931034482756" y="185.2528735632184" type="curve" smooth="yes"/>
      <point x="445.37931034482756" y="106.97701149425288"/>
      <point x="393.41379310344826" y="51.356321839080465"/>
      <point x="270.264367816092" y="49.96551724137932" type="curve"/>
      <point x="206.82758620689657" y="49.96551724137932"/>
      <point x="129.09195402298852" y="74.74712643678161"/>
      <point x="54.04597701149425" y="111.57471264367817" type="curve"/>
      <point x="46.0919540229885" y="44.310344827586206" type="line"/>
      <point x="99.0919540229885" y="24.26436781609195"/>
      <point x="179.8735632183908" y="-10.172413793103448"/>
    </contour>
  </outline>
</glyph>
<glyph name="four" format="2">
  <advance width="596.0344827586207"/>
  <unicode hex="0034"/>
  <outline>
    <contour>
      <point x="363.1954022988506" y="0.0" type="curve"/>
      <point x="439.6206896551724" y="0.0" type="line"/>
      <point x="434.2758620689655" y="62.5632183908046"/>
      <point x="433.88505747126436" y="111.9080459770115"/>
      <point x="433.88505747126436" y="187.4712643678161" type="curve"/>
      <point x="433.88505747126436" y="444.17241379310343" type="line"/>
      <point x="433.88505747126436" y="523.1724137931035"/>
      <point x="434.2758620689655" y="602.1724137931035"/>
      <point x="439.6206896551724" y="685.1724137931035" type="curve"/>
      <point x="363.14942528735634" y="685.1724137931035" type="line"/>
      <point x="335.88505747126436" y="640.3448275862069"/>
      <point x="303.0574712643678" y="592.9080459770115"/>
      <point x="270.8390804597701" y="547.471264367816" type="curve"/>
      <point x="181.57471264367817" y="420.98850574712645" type="line"/>
      <point x="135.7471264367816" y="356.9425287356322"/>
      <point x="74.70114942528735" y="270.0689655172414"/>
      <point x="31.873563218390803" y="214.97701149425288" type="curve"/>
      <point x="31.873563218390803" y="161.9655172413793" type="line"/>
      <point x="399.7011494252874" y="161.9655172413793" type="line"/>
      <point x="450.2183908045977" y="161.9655172413793"/>
      <point x="523.9080459770115" y="161.57471264367814"/>
      <point x="570.0344827586207" y="158.4022988505747" type="curve"/>
      <point x="570.0344827586207" y="225.22988505747128" type="line"/>
      <point x="523.9080459770115" y="221.66666666666669"/>
      <point x="450.2183908045977" y="221.27586206896552"/>
      <point x="399.7011494252874" y="221.27586206896552" type="curve"/>
      <point x="385.91954022988506" y="221.27586206896552" type="line"/>
      <point x="86.83908045977012" y="221.27586206896552" type="line"/>
      <point x="93.79310344827586" y="196.33333333333334" type="line"/>
      <point x="123.44827586206897" y="242.3793103448276"/>
      <point x="153.88505747126436" y="287.81609195402297"/>
      <point x="186.71264367816093" y="333.86206896551727" type="curve"/>
      <point x="309.02298850574715" y="507.2183908045977" type="line"/>
      <point x="346.45977011494256" y="560.264367816092"/>
      <point x="383.8965517241379" y="612.1379310344828"/>
      <point x="421.7241379310345" y="661.2298850574713" type="curve"/>
      <point x="366.14942528735634" y="650.2758620689655" type="line"/>
      <point x="369.4942528735632" y="578.448275862069"/>
      <point x="369.88505747126436" y="507.01149425287355"/>
      <point x="369.88505747126436" y="435.18390804597703" type="curve"/>
      <point x="369.88505747126436" y="201.5977011494253" type="line"/>
      <point x="368.32183908045977" y="187.4712643678161" type="line"/>
      <point x="368.32183908045977" y="111.9080459770115"/>
      <point x="367.9310344827586" y="62.5632183908046"/>
    </contour>
  </outline>
</glyph>
<glyph name="five" format="2">
  <advance width="572.2988505747127"/>
  <unicode hex="0035"/>
  <outline>
    <contour>
      <point x="273.17241379310343" y="-10.172413793103448" type="curve" smooth="yes"/>
      <point x="432.1609195402299" y="-10.172413793103448"/>
      <point x="518.1609195402299" y="82.5632183908046"/>
      <point x="518.1609195402299" y="221.29885057471265" type="curve" smooth="yes"/>
      <point x="518.1609195402299" y="369.68965517241384"/>
      <point x="419.28735632183907" y="438.86206896551727"/>
      <point x="300.2413793103448" y="438.86206896551727" type="curve" smooth="yes"/>
      <point x="248.44827586206895" y="438.86206896551727"/>
      <point x="197.74712643678163" y="421.98850574712645"/>
      <point x="161.31034482758622" y="402.7241379310345" type="curve"/>
      <point x="153.7471264367816" y="402.7241379310345" type="line"/>
      <point x="153.7471264367816" y="452.08045977011494" type="line"/>
      <point x="154.13793103448276" y="517.264367816092"/>
      <point x="155.91954022988506" y="583.448275862069"/>
      <point x="157.87356321839079" y="649.6321839080459" type="curve"/>
      <point x="130.19540229885058" y="625.8620689655172" type="line"/>
      <point x="232.632183908046" y="625.8620689655172" type="line"/>
      <point x="312.85057471264366" y="625.8620689655172"/>
      <point x="395.0689655172414" y="625.471264367816"/>
      <point x="475.8965517241379" y="619.3448275862069" type="curve"/>
      <point x="475.8965517241379" y="685.1724137931035" type="line"/>
      <point x="84.79310344827587" y="685.1724137931035" type="line"/>
      <point x="89.13793103448276" y="610.0459770114943"/>
      <point x="90.13793103448276" y="526.919540229885"/>
      <point x="90.13793103448276" y="438.4022988505747" type="curve"/>
      <point x="90.13793103448276" y="333.4942528735632" type="line"/>
      <point x="120.59770114942529" y="330.71264367816093" type="line"/>
      <point x="175.95402298850576" y="368.85057471264366"/>
      <point x="234.8735632183908" y="380.67816091954023"/>
      <point x="278.35632183908046" y="380.67816091954023" type="curve"/>
      <point x="373.367816091954" y="379.28735632183907"/>
      <point x="450.42528735632186" y="337.367816091954"/>
      <point x="450.42528735632186" y="219.3448275862069" type="curve" smooth="yes"/>
      <point x="450.42528735632186" y="112.58620689655173"/>
      <point x="390.0229885057471" y="51.356321839080465"/>
      <point x="268.8735632183908" y="49.96551724137932" type="curve"/>
      <point x="205.82758620689657" y="49.96551724137932"/>
      <point x="129.09195402298852" y="74.74712643678161"/>
      <point x="54.04597701149425" y="111.57471264367817" type="curve"/>
      <point x="46.0919540229885" y="44.310344827586206" type="line"/>
      <point x="99.0919540229885" y="24.26436781609195"/>
      <point x="178.8735632183908" y="-10.172413793103448"/>
    </contour>
  </outline>
</glyph>
<glyph name="seven" format="2">
  <advance width="522.0947368421052"/>
  <unicode hex="0037"/>
  <outline>
    <contour>
      <point x="112.26315789473684" y="0.0" type="curve"/>
      <point x="195.56842105263158" y="0.0" type="line"/>
      <point x="228.09473684210525" y="83.3157894736842"/>
      <point x="264.87368421052633" y="166.9157894736842"/>
      <point x="302.2631578947368" y="248.58947368421053" type="curve"/>
      <point x="367.22105263157897" y="390.11578947368423" type="line"/>
      <point x="406.2526315789474" y="475.89473684210526"/>
      <point x="442.46315789473687" y="554.3157894736842"/>
      <point x="480.6736842105263" y="632.9473684210526" type="curve"/>
      <point x="480.6736842105263" y="685.0736842105263" type="line"/>
      <point x="25.0" y="685.0736842105263" type="line"/>
      <point x="25.0" y="618.7894736842105" type="line"/>
      <point x="110.6" y="624.6526315789474"/>
      <point x="196.02105263157895" y="625.7263157894737"/>
      <point x="280.62105263157895" y="625.7263157894737" type="curve"/>
      <point x="423.89473684210526" y="625.7263157894737" type="line"/>
      <point x="406.5894736842105" y="641.6315789473684" type="line"/>
      <point x="385.6315789473684" y="589.6"/>
      <point x="363.06315789473683" y="538.2105263157895"/>
      <point x="339.13684210526316" y="486.17894736842106" type="curve"/>
      <point x="241.43157894736842" y="274.5157894736842" type="line"/>
      <point x="200.22105263157894" y="184.55789473684212"/>
      <point x="156.83157894736843" y="91.60000000000001"/>
    </contour>
  </outline>
</glyph>
<glyph name="less" format="2">
  <advance width="565.3684210526316"/>
  <unicode hex="003C"/>
  <outline>
    <contour>
      <point x="500.7368421052632" y="74.72631578947369" type="curve"/>
      <point x="500.7368421052632" y="145.93684210526317" type="line"/>
      <point x="426.6421052631579" y="173.2842105263158"/>
      <point x="348.4421052631579" y="207.16842105263157"/>
      <point x="272.70526315789476" y="240.23157894736843" type="curve"/>
      <point x="151.90526315789475" y="292.7894736842105" type="line"/>
      <point x="151.90526315789475" y="300.57894736842104" type="line"/>
      <point x="272.70526315789476" y="353.13684210526316" type="line"/>
      <point x="348.4421052631579" y="386.2"/>
      <point x="426.6421052631579" y="420.0842105263158"/>
      <point x="500.7368421052632" y="447.43157894736845" type="curve"/>
      <point x="500.7368421052632" y="518.6421052631579" type="line"/>
      <point x="440.5157894736842" y="490.0315789473684"/>
      <point x="381.8315789473684" y="464.0315789473684"/>
      <point x="331.3263157894737" y="442.0315789473684" type="curve"/>
      <point x="232.4" y="399.17894736842106" type="line"/>
      <point x="183.53684210526316" y="378.0"/>
      <point x="124.85263157894737" y="353.0"/>
      <point x="64.63157894736842" y="330.25263157894733" type="curve"/>
      <point x="64.63157894736842" y="263.11578947368423" type="line"/>
      <point x="124.85263157894737" y="240.36842105263156"/>
      <point x="183.53684210526316" y="215.3684210526316"/>
      <point x="232.4" y="194.18947368421053" type="curve"/>
      <point x="331.3263157894737" y="151.33684210526314" type="line"/>
      <point x="381.8315789473684" y="129.33684210526314"/>
      <point x="440.5157894736842" y="103.33684210526316"/>
    </contour>
  </outline>
</glyph>
<glyph name="equal" format="2">
  <advance width="565.3684210526316"/>
  <unicode hex="003D"/>
  <outline>
    <contour>
      <point x="66.42105263157895" y="155.64210526315787" type="line"/>
      <point x="127.46315789473684" y="158.53684210526313"/>
      <point x="185.32631578947368" y="158.7157894736842"/>
      <point x="235.01052631578946" y="158.7157894736842" type="curve"/>
      <point x="330.3578947368421" y="158.7157894736842" type="line"/>
      <point x="380.0421052631579" y="158.7157894736842"/>
      <point x="437.90526315789475" y="158.53684210526313"/>
      <point x="498.94736842105266" y="155.64210526315787" type="curve"/>
      <point x="498.94736842105266" y="220.42105263157896" type="line"/>
      <point x="437.90526315789475" y="217.5263157894737"/>
      <point x="380.0421052631579" y="217.34736842105264"/>
      <point x="330.3578947368421" y="217.34736842105264" type="curve"/>
      <point x="235.01052631578946" y="217.34736842105264" type="line"/>
      <point x="185.32631578947368" y="217.34736842105264"/>
      <point x="127.46315789473684" y="217.5263157894737"/>
      <point x="66.42105263157895" y="220.42105263157896" type="curve"/>
    </contour>
    <contour>
      <point x="66.42105263157895" y="374.58947368421053" type="line"/>
      <point x="127.46315789473684" y="377.4842105263158"/>
      <point x="185.32631578947368" y="377.66315789473686"/>
      <point x="235.01052631578946" y="377.66315789473686" type="curve"/>
      <point x="330.3578947368421" y="377.66315789473686" type="line"/>
      <point x="380.0421052631579" y="377.66315789473686"/>
      <point x="437.90526315789475" y="377.4842105263158"/>
      <point x="498.94736842105266" y="374.58947368421053" type="curve"/>
      <point x="498.94736842105266" y="439.36842105263156" type="line"/>
      <point x="437.90526315789475" y="436.4736842105263"/>
      <point x="380.0421052631579" y="436.29473684210524"/>
      <point x="330.3578947368421" y="436.29473684210524" type="curve"/>
      <point x="235.01052631578946" y="436.29473684210524" type="line"/>
      <point x="185.32631578947368" y="436.29473684210524"/>
      <point x="127.46315789473684" y="436.4736842105263"/>
      <point x="66.42105263157895" y="439.36842105263156" type="curve"/>
    </contour>
  </outline>
</glyph>
<glyph name="greater" format="2">
  <advance width="565.3684210526316"/>
  <unicode hex="003E"/>
  <outline>
    <contour>
      <point x="64.63157894736842" y="74.72631578947369" type="line"/>
      <point x="124.85263157894737" y="103.33684210526316"/>
      <point x="183.53684210526316" y="129.33684210526314"/>
      <point x="234.0421052631579" y="151.33684210526314" type="curve"/>
      <point x="332.9684210526316" y="194.18947368421053" type="line"/>
      <point x="381.8315789473684" y="215.3684210526316"/>
      <point x="440.5157894736842" y="240.36842105263156"/>
      <point x="500.7368421052632" y="263.11578947368423" type="curve"/>
      <point x="500.7368421052632" y="330.25263157894733" type="line"/>
      <point x="440.5157894736842" y="353.0"/>
      <point x="381.8315789473684" y="378.0"/>
      <point x="332.9684210526316" y="399.17894736842106" type="curve"/>
      <point x="234.0421052631579" y="442.0315789473684" type="line"/>
      <point x="183.53684210526316" y="464.0315789473684"/>
      <point x="124.85263157894737" y="490.0315789473684"/>
      <point x="64.63157894736842" y="518.6421052631579" type="curve"/>
      <point x="64.63157894736842" y="447.43157894736845" type="line"/>
      <point x="138.7263157894737" y="420.0842105263158"/>
      <point x="216.92631578947368" y="386.2"/>
      <point x="292.66315789473686" y="353.13684210526316" type="curve"/>
      <point x="413.46315789473687" y="300.57894736842104" type="line"/>
      <point x="413.46315789473687" y="292.7894736842105" type="line"/>
      <point x="292.66315789473686" y="240.23157894736843" type="line"/>
      <point x="216.92631578947368" y="207.16842105263157"/>
      <point x="138.7263157894737" y="173.2842105263158"/>
      <point x="64.63157894736842" y="145.93684210526317" type="curve"/>
    </contour>
  </outline>
</glyph>
<glyph name="at" format="2">
  <advance width="879.8315789473684"/>
  <unicode hex="0040"/>
  <outline>
    <contour>
      <point x="471.7894736842105" y="-128.26315789473685" type="curve" smooth="yes"/>
      <point x="556.1473684210526" y="-128.26315789473685"/>
      <point x="672.4315789473685" y="-90.23157894736842"/>
      <point x="754.1473684210526" y="-54.768421052631574" type="curve"/>
      <point x="754.1473684210526" y="1.484210526315789" type="line"/>
      <point x="650.8210526315789" y="-48.94736842105264"/>
      <point x="539.9263157894737" y="-77.97894736842106"/>
      <point x="471.7894736842105" y="-81.33684210526316" type="curve"/>
      <point x="191.2315789473684" y="-77.97894736842106"/>
      <point x="65.73684210526315" y="117.3578947368421"/>
      <point x="111.45263157894738" y="333.89473684210526" type="curve" smooth="yes"/>
      <point x="153.30526315789473" y="532.0842105263158"/>
      <point x="291.0" y="619.9157894736842"/>
      <point x="466.7894736842105" y="623.2736842105263" type="curve"/>
      <point x="685.7052631578947" y="619.9157894736842"/>
      <point x="810.8421052631579" y="460.01052631578943"/>
      <point x="770.2" y="254.97894736842105" type="curve" smooth="yes"/>
      <point x="755.0947368421052" y="179.2736842105263"/>
      <point x="686.5368421052632" y="111.61052631578947"/>
      <point x="640.1157894736842" y="110.89473684210526" type="curve"/>
      <point x="587.4105263157895" y="113.25263157894736"/>
      <point x="567.0947368421052" y="143.96842105263158"/>
      <point x="579.5578947368421" y="205.56842105263158" type="curve"/>
      <point x="599.7684210526315" y="302.8" type="line"/>
      <point x="612.9473684210527" y="362.18947368421055"/>
      <point x="627.4842105263158" y="420.2947368421053"/>
      <point x="647.2" y="480.14736842105265" type="curve"/>
      <point x="591.3263157894736" y="476.2526315789474" type="line"/>
      <point x="575.1473684210526" y="422.1473684210526" type="line"/>
      <point x="568.7157894736843" y="422.1473684210526" type="line"/>
      <point x="539.3263157894736" y="456.93684210526317"/>
      <point x="483.36842105263156" y="485.9684210526316"/>
      <point x="434.58947368421053" y="485.9684210526316" type="curve" smooth="yes"/>
      <point x="340.94736842105266" y="485.9684210526316"/>
      <point x="269.2736842105263" y="413.9263157894737"/>
      <point x="246.16842105263157" y="302.5052631578947" type="curve" smooth="yes"/>
      <point x="220.98947368421054" y="182.17894736842106"/>
      <point x="269.13684210526316" y="71.92631578947369"/>
      <point x="387.63157894736844" y="71.92631578947369" type="curve" smooth="yes"/>
      <point x="428.9473684210526" y="71.92631578947369"/>
      <point x="476.76842105263154" y="94.28421052631579"/>
      <point x="520.4421052631579" y="139.38947368421054" type="curve"/>
      <point x="526.6947368421053" y="139.38947368421054" type="line"/>
      <point x="536.0947368421052" y="101.31578947368422"/>
      <point x="568.8947368421053" y="62.28421052631579"/>
      <point x="644.7894736842105" y="62.28421052631579" type="curve" smooth="yes"/>
      <point x="693.578947368421" y="62.28421052631579"/>
      <point x="796.1263157894737" y="133.42105263157893"/>
      <point x="817.7368421052631" y="245.4" type="curve" smooth="yes"/>
      <point x="862.1684210526316" y="477.2315789473684"/>
      <point x="711.8736842105263" y="670.2"/>
      <point x="467.9684210526316" y="670.2" type="curve" smooth="yes"/>
      <point x="276.53684210526313" y="670.2"/>
      <point x="109.52631578947368" y="568.1263157894737"/>
      <point x="63.27368421052631" y="342.36842105263156" type="curve" smooth="yes"/>
      <point x="13.76842105263158" y="102.70526315789473"/>
      <point x="161.2421052631579" y="-128.26315789473685"/>
    </contour>
    <contour>
      <point x="400.7578947368421" y="123.57894736842105" type="curve"/>
      <point x="314.0736842105263" y="125.57894736842105"/>
      <point x="281.7263157894737" y="199.45263157894738"/>
      <point x="301.6842105263158" y="294.3157894736842" type="curve" smooth="yes"/>
      <point x="318.53684210526313" y="373.4736842105263"/>
      <point x="365.4526315789474" y="430.77894736842103"/>
      <point x="444.6421052631579" y="432.9578947368421" type="curve"/>
      <point x="488.8421052631579" y="433.42105263157896"/>
      <point x="529.5052631578948" y="409.53684210526313"/>
      <point x="559.7789473684211" y="378.0842105263158" type="curve"/>
      <point x="521.8947368421053" y="202.05263157894737" type="line"/>
      <point x="482.05263157894734" y="147.17894736842103"/>
      <point x="437.56842105263155" y="125.57894736842105"/>
    </contour>
  </outline>
</glyph>
<glyph name="A" format="2">
  <advance width="683.2105263157895"/>
  <unicode hex="0041"/>
  <anchor x="341.69473684210527" y="0.0" name="bottom"/>
  <anchor x="656.1157894736842" y="0.0" name="ogonek"/>
  <anchor x="341.69473684210527" y="713.0" name="top"/>
  <outline>
    <contour>
      <point x="24.736842105263158" y="0.0" type="curve"/>
      <point x="110.39999999999999" y="0.0" type="line"/>
      <point x="137.49473684210525" y="85.70526315789473"/>
      <point x="169.1263157894737" y="178.94736842105263"/>
      <point x="199.54736842105262" y="263.0105263157895" type="curve"/>
      <point x="339.0842105263158" y="647.1157894736842" type="line"/>
      <point x="346.87368421052633" y="647.1157894736842" type="line"/>
      <point x="485.41052631578947" y="259.8315789473684" type="line"/>
      <point x="514.0105263157895" y="179.58947368421053"/>
      <point x="545.5368421052632" y="85.2421052631579"/>
      <point x="571.4526315789474" y="0.0" type="curve"/>
      <point x="658.0105263157894" y="0.0" type="line"/>
      <point x="625.0105263157894" y="76.0"/>
      <point x="592.1894736842105" y="162.0"/>
      <point x="563.4421052631579" y="241.0" type="curve"/>
      <point x="473.5578947368421" y="486.82105263157894" type="line"/>
      <point x="441.16842105263163" y="574.4631578947368"/>
      <point x="418.31578947368416" y="640.2842105263157"/>
      <point x="397.35789473684207" y="713.0" type="curve"/>
      <point x="289.67368421052635" y="713.0" type="line"/>
      <point x="268.07368421052627" y="641.0"/>
      <point x="245.04210526315788" y="575.0"/>
      <point x="212.4736842105263" y="486.82105263157894" type="curve"/>
      <point x="121.76842105263157" y="241.82105263157894" type="line"/>
      <point x="93.19999999999999" y="165.0"/>
      <point x="58.09473684210526" y="76.82105263157895"/>
    </contour>
    <contour>
      <point x="153.46315789473684" y="187.43157894736842" type="line"/>
      <point x="535.578947368421" y="187.43157894736842" type="line"/>
      <point x="531.4631578947368" y="244.2736842105263" type="line"/>
      <point x="158.4736842105263" y="244.2736842105263" type="line"/>
    </contour>
  </outline>
</glyph>
<glyph name="C" format="2">
  <advance width="685.1052631578947"/>
  <unicode hex="0043"/>
  <anchor x="399.5684210526316" y="0.0" name="bottom"/>
  <anchor x="391.3578947368421" y="713.0" name="top"/>
  <outline>
    <contour>
      <point x="416.10526315789474" y="-10.25263157894737" type="curve" smooth="yes"/>
      <point x="487.7894736842105" y="-10.25263157894737"/>
      <point x="568.8631578947369" y="10.284210526315789"/>
      <point x="628.0421052631579" y="38.06315789473684" type="curve"/>
      <point x="621.1473684210526" y="110.70526315789473" type="line"/>
      <point x="559.7894736842105" y="73.63157894736842"/>
      <point x="484.89473684210526" y="52.27368421052631"/>
      <point x="420.5473684210526" y="52.27368421052631" type="curve"/>
      <point x="226.90526315789475" y="55.45263157894736"/>
      <point x="126.46315789473684" y="189.2842105263158"/>
      <point x="126.46315789473684" y="357.46315789473687" type="curve" smooth="yes"/>
      <point x="126.46315789473684" y="544.0736842105263"/>
      <point x="243.18947368421053" y="658.7578947368421"/>
      <point x="401.2842105263158" y="661.9368421052632" type="curve"/>
      <point x="441.10526315789474" y="661.9368421052632"/>
      <point x="525.2105263157895" y="643.578947368421"/>
      <point x="626.3578947368421" y="597.5052631578948" type="curve"/>
      <point x="633.5052631578948" y="669.5052631578948" type="line"/>
      <point x="575.1473684210526" y="692.7894736842105"/>
      <point x="481.0421052631579" y="725.7157894736843"/>
      <point x="402.46315789473687" y="725.7157894736843" type="curve" smooth="yes"/>
      <point x="197.33684210526314" y="725.7157894736843"/>
      <point x="53.5578947368421" y="574.3894736842105"/>
      <point x="53.5578947368421" y="358.10526315789474" type="curve" smooth="yes"/>
      <point x="53.5578947368421" y="147.98947368421054"/>
      <point x="191.2421052631579" y="-10.25263157894737"/>
    </contour>
  </outline>
</glyph>
<glyph name="D" format="2">
  <advance width="738.2842105263159"/>
  <unicode hex="0044"/>
  <anchor x="350.89473684210526" y="0.0" name="bottom"/>
  <anchor x="369.6421052631579" y="357.0" name="center"/>
  <anchor x="350.89473684210526" y="713.0" name="top"/>
  <outline>
    <contour>
      <point x="94.39999999999999" y="0.0" type="curve"/>
      <point x="172.29473684210527" y="0.0"/>
      <point x="231.3473684210526" y="-2.431578947368421"/>
      <point x="316.61052631578946" y="-2.431578947368421" type="curve"/>
      <point x="584.9052631578948" y="-2.431578947368421"/>
      <point x="684.7263157894737" y="158.46315789473684"/>
      <point x="684.7263157894737" y="359.6421052631579" type="curve" smooth="yes"/>
      <point x="684.7263157894737" y="581.2526315789473"/>
      <point x="561.1894736842106" y="715.0736842105263"/>
      <point x="340.62105263157895" y="715.0736842105263" type="curve"/>
      <point x="258.3157894736842" y="715.0736842105263"/>
      <point x="187.25263157894736" y="713.0"/>
      <point x="94.39999999999999" y="713.0" type="curve"/>
      <point x="98.18947368421053" y="632.7157894736843"/>
      <point x="99.44210526315788" y="563.2526315789473"/>
      <point x="99.44210526315788" y="474.82105263157894" type="curve"/>
      <point x="99.44210526315788" y="236.38947368421051" type="line"/>
      <point x="99.44210526315788" y="148.67368421052632"/>
      <point x="98.18947368421053" y="79.74736842105263"/>
    </contour>
    <contour>
      <point x="172.2736842105263" y="59.98947368421052" type="line"/>
      <point x="170.09473684210525" y="120.65263157894736"/>
      <point x="169.73684210526315" y="177.74736842105264"/>
      <point x="169.73684210526315" y="247.8421052631579" type="curve"/>
      <point x="169.73684210526315" y="463.7263157894737" type="line"/>
      <point x="169.73684210526315" y="534.5368421052632"/>
      <point x="170.09473684210525" y="591.8105263157895"/>
      <point x="172.2736842105263" y="653.0105263157894" type="curve"/>
      <point x="328.82105263157894" y="653.0105263157894" type="line"/>
      <point x="530.6315789473684" y="649.4736842105262"/>
      <point x="611.821052631579" y="537.9263157894737"/>
      <point x="611.821052631579" y="361.0" type="curve" smooth="yes"/>
      <point x="611.821052631579" y="189.2842105263158"/>
      <point x="541.021052631579" y="63.705263157894734"/>
      <point x="317.2526315789474" y="59.98947368421052" type="curve"/>
    </contour>
  </outline>
</glyph>
<glyph name="G" format="2">
  <advance width="734.3157894736842"/>
  <unicode hex="0047"/>
  <anchor x="399.5684210526316" y="0.0" name="bottom"/>
  <anchor x="399.5684210526316" y="713.0" name="top"/>
  <outline>
    <contour>
      <point x="432.06315789473683" y="-10.073684210526316" type="curve" smooth="yes"/>
      <point x="523.4947368421052" y="-10.073684210526316"/>
      <point x="615.2947368421053" y="13.210526315789474"/>
      <point x="665.3684210526316" y="31.063157894736843" type="curve"/>
      <point x="653.2842105263157" y="102.09473684210526" type="line"/>
      <point x="587.3894736842105" y="65.73684210526315"/>
      <point x="508.93684210526317" y="51.37894736842105"/>
      <point x="436.17894736842106" y="51.37894736842105" type="curve"/>
      <point x="220.97894736842105" y="54.5578947368421"/>
      <point x="126.10526315789474" y="186.10526315789474"/>
      <point x="126.10526315789474" y="358.10526315789474" type="curve" smooth="yes"/>
      <point x="126.10526315789474" y="546.0736842105263"/>
      <point x="243.44210526315788" y="658.9368421052632"/>
      <point x="406.2105263157895" y="661.9368421052632" type="curve"/>
      <point x="447.5684210526316" y="661.9368421052632"/>
      <point x="535.5684210526315" y="643.578947368421"/>
      <point x="642.1473684210526" y="597.5052631578948" type="curve"/>
      <point x="649.2947368421053" y="669.3263157894737" type="line"/>
      <point x="587.4" y="692.6105263157895"/>
      <point x="489.22105263157897" y="725.7157894736843"/>
      <point x="406.56842105263155" y="725.7157894736843" type="curve" smooth="yes"/>
      <point x="194.8421052631579" y="725.7157894736843"/>
      <point x="53.5578947368421" y="572.7157894736843"/>
      <point x="53.5578947368421" y="358.2842105263158" type="curve" smooth="yes"/>
      <point x="53.5578947368421" y="149.77894736842106"/>
      <point x="184.13684210526316" y="-10.073684210526316"/>
    </contour>
    <contour>
      <point x="591.2526315789474" y="31.06315789473684" type="curve"/>
      <point x="665.3684210526316" y="31.063157894736843" type="line"/>
      <point x="662.1157894736842" y="100.03157894736843"/>
      <point x="661.7578947368421" y="149.46315789473684"/>
      <point x="661.7578947368421" y="201.25263157894736" type="curve"/>
      <point x="661.7578947368421" y="262.86315789473684"/>
      <point x="662.8315789473684" y="306.11578947368423"/>
      <point x="666.8" y="354.7263157894737" type="curve"/>
      <point x="588.642105263158" y="354.7263157894737" type="line"/>
      <point x="592.4315789473685" y="306.11578947368423"/>
      <point x="594.5052631578948" y="262.86315789473684"/>
      <point x="594.5052631578948" y="201.25263157894736" type="curve"/>
      <point x="594.5052631578948" y="149.46315789473684"/>
      <point x="593.9684210526316" y="100.03157894736843"/>
    </contour>
  </outline>
</glyph>
<glyph name="J" format="2">
  <advance width="286.38947368421054"/>
  <unicode hex="004A"/>
  <anchor x="148.7263157894737" y="0.0" name="bottom"/>
  <anchor x="148.7263157894737" y="713.0" name="top"/>
  <outline>
    <contour>
      <point x="19.736842105263158" y="-158.56842105263158" type="curve"/>
      <point x="101.84210526315789" y="-158.56842105263158" type="line"/>
      <point x="138.2" y="-113.21052631578948"/>
      <point x="188.55789473684212" y="-39.56842105263158"/>
      <point x="188.55789473684212" y="60.11578947368421" type="curve" smooth="yes"/>
      <point x="188.55789473684212" y="129.7684210526316"/>
      <point x="185.23157894736843" y="205.42105263157896"/>
      <point x="185.23157894736843" y="286.53684210526313" type="curve"/>
      <point x="185.23157894736843" y="474.82105263157894" type="line"/>
      <point x="185.23157894736843" y="563.2526315789473"/>
      <point x="186.30526315789473" y="632.7157894736843"/>
      <point x="191.09473684210528" y="713.0" type="curve"/>
      <point x="109.89473684210526" y="713.0" type="line"/>
      <point x="113.6842105263158" y="632.7157894736843"/>
      <point x="114.93684210526315" y="563.2526315789473"/>
      <point x="114.93684210526315" y="474.82105263157894" type="curve"/>
      <point x="114.93684210526315" y="261.0842105263158" type="line"/>
      <point x="114.1157894736842" y="64.72631578947369" type="line"/>
      <point x="114.1157894736842" y="-29.305263157894736"/>
      <point x="74.94736842105263" y="-95.06315789473685"/>
    </contour>
  </outline>
</glyph>
<glyph name="K" format="2">
  <advance width="662.5684210526315"/>
  <unicode hex="004B"/>
  <anchor x="339.87368421052633" y="0.0" name="bottom"/>
  <anchor x="339.87368421052633" y="713.0" name="top"/>
  <outline>
    <contour>
      <point x="535.0526315789474" y="0.0" type="curve"/>
      <point x="638.9052631578948" y="0.0" type="line"/>
      <point x="574.1263157894737" y="60.252631578947366"/>
      <point x="475.7473684210526" y="157.54736842105262"/>
      <point x="403.29473684210524" y="230.41052631578947" type="curve"/>
      <point x="247.10526315789474" y="388.6736842105263" type="line"/>
      <point x="248.0" y="357.85263157894735" type="line"/>
      <point x="387.62105263157895" y="494.10526315789474" type="line"/>
      <point x="462.0736842105263" y="566.0"/>
      <point x="536.3473684210526" y="637.5368421052632"/>
      <point x="618.8736842105262" y="713.0" type="curve"/>
      <point x="518.1684210526316" y="713.0" type="line"/>
      <point x="444.58947368421053" y="636.4"/>
      <point x="391.6421052631579" y="583.5473684210526"/>
      <point x="330.87368421052633" y="524.4105263157895" type="curve"/>
      <point x="201.58947368421053" y="398.0315789473684" type="line"/>
      <point x="160.1263157894737" y="398.0315789473684" type="line"/>
      <point x="160.1263157894737" y="338.7578947368421" type="line"/>
      <point x="201.4842105263158" y="338.7578947368421" type="line"/>
      <point x="351.4736842105263" y="188.8421052631579" type="line"/>
      <point x="409.88421052631577" y="131.16842105263157"/>
      <point x="467.29473684210524" y="71.67368421052632"/>
    </contour>
    <contour>
      <point x="94.39999999999999" y="0.0" type="curve"/>
      <point x="175.42105263157896" y="0.0" type="line"/>
      <point x="170.63157894736844" y="79.74736842105263"/>
      <point x="169.55789473684212" y="148.67368421052632"/>
      <point x="169.55789473684212" y="236.38947368421051" type="curve"/>
      <point x="169.55789473684212" y="474.82105263157894" type="line"/>
      <point x="169.55789473684212" y="563.2526315789473"/>
      <point x="170.63157894736844" y="632.7157894736843"/>
      <point x="175.42105263157896" y="713.0" type="curve"/>
      <point x="94.39999999999999" y="713.0" type="line"/>
      <point x="98.18947368421053" y="632.7157894736843"/>
      <point x="99.44210526315788" y="563.2526315789473"/>
      <point x="99.44210526315788" y="474.82105263157894" type="curve"/>
      <point x="99.44210526315788" y="236.38947368421051" type="line"/>
      <point x="99.44210526315788" y="148.67368421052632"/>
      <point x="98.18947368421053" y="79.74736842105263"/>
    </contour>
  </outline>
</glyph>
<glyph name="L" format="2">
  <advance width="568.3263157894736"/>
  <unicode hex="004C"/>
  <anchor x="315.2421052631579" y="0.0" name="bottom"/>
  <anchor x="419.69473684210527" y="357.53684210526313" name="center"/>
  <anchor x="195.42105263157896" y="713.0" name="top"/>
  <anchor x="278.37894736842105" y="495.4315789473684" name="topright"/>
  <outline>
    <contour>
      <point x="94.39999999999999" y="0.0" type="curve"/>
      <point x="175.6" y="0.0" type="line"/>
      <point x="175.6" y="10.442105263157895" type="line"/>
      <point x="170.81052631578947" y="90.18947368421053"/>
      <point x="169.73684210526315" y="159.1157894736842"/>
      <point x="169.73684210526315" y="246.83157894736843" type="curve"/>
      <point x="169.73684210526315" y="474.82105263157894" type="line"/>
      <point x="169.73684210526315" y="563.2526315789473"/>
      <point x="170.81052631578947" y="632.7157894736843"/>
      <point x="175.6" y="713.0" type="curve"/>
      <point x="94.39999999999999" y="713.0" type="line"/>
      <point x="98.18947368421053" y="632.7157894736843"/>
      <point x="99.44210526315788" y="563.2526315789473"/>
      <point x="99.44210526315788" y="474.82105263157894" type="curve"/>
      <point x="99.44210526315788" y="236.38947368421051" type="line"/>
      <point x="99.44210526315788" y="148.67368421052632"/>
      <point x="98.18947368421053" y="79.74736842105263"/>
    </contour>
    <contour>
      <point x="159.0842105263158" y="0.0" type="line"/>
      <point x="532.8315789473685" y="0.0" type="line"/>
      <point x="532.8315789473685" y="71.14736842105263" type="line"/>
      <point x="452.7684210526316" y="65.6421052631579"/>
      <point x="384.9894736842105" y="63.38947368421053"/>
      <point x="267.7157894736842" y="63.38947368421053" type="curve"/>
      <point x="159.0842105263158" y="63.38947368421053" type="line"/>
    </contour>
  </outline>
</glyph>
<glyph name="M" format="2">
  <advance width="953.7578947368421"/>
  <unicode hex="004D"/>
  <anchor x="476.7894736842105" y="0.0" name="bottom"/>
  <anchor x="476.7894736842105" y="713.0" name="top"/>
  <outline>
    <contour>
      <point x="65.08421052631579" y="0.0" type="curve"/>
      <point x="145.24210526315792" y="0.0" type="line"/>
      <point x="155.94736842105263" y="133.4"/>
      <point x="168.90526315789472" y="254.8736842105263"/>
      <point x="181.65263157894736" y="359.3157894736842" type="curve"/>
      <point x="208.96842105263158" y="584.5894736842105" type="line"/>
      <point x="214.29473684210527" y="584.5894736842105" type="line"/>
      <point x="314.58947368421053" y="339.82105263157894" type="line"/>
      <point x="360.86315789473684" y="226.45263157894735"/>
      <point x="411.2736842105263" y="95.76842105263158"/>
      <point x="447.8315789473684" y="0.0" type="curve"/>
      <point x="508.5368421052632" y="0.0" type="line"/>
      <point x="546.5578947368421" y="102.15789473684211"/>
      <point x="594.1473684210526" y="224.45263157894735"/>
      <point x="641.1684210526316" y="341.46315789473687" type="curve"/>
      <point x="739.4947368421053" y="584.5894736842105" type="line"/>
      <point x="744.8210526315789" y="584.5894736842105" type="line"/>
      <point x="772.1368421052632" y="359.3157894736842" type="line"/>
      <point x="784.8842105263158" y="254.8736842105263"/>
      <point x="797.021052631579" y="133.22105263157894"/>
      <point x="807.9052631578948" y="0.0" type="curve"/>
      <point x="888.6736842105263" y="0.0" type="line"/>
      <point x="875.0631578947368" y="79.56842105263158"/>
      <point x="864.8105263157895" y="150.21052631578948"/>
      <point x="854.6315789473684" y="236.38947368421051" type="curve"/>
      <point x="825.9157894736842" y="472.82105263157894" type="line"/>
      <point x="814.9157894736842" y="560.4631578947368"/>
      <point x="807.4526315789474" y="631.7157894736843"/>
      <point x="800.8842105263158" y="713.0" type="curve"/>
      <point x="718.7578947368421" y="713.0" type="line"/>
      <point x="680.7368421052631" y="605.4842105263158"/>
      <point x="642.0" y="507.4"/>
      <point x="601.1894736842105" y="408.77894736842103" type="curve"/>
      <point x="481.40000000000003" y="116.2" type="line"/>
      <point x="475.43157894736845" y="116.2" type="line"/>
      <point x="354.74736842105267" y="408.77894736842103" type="line"/>
      <point x="313.7578947368421" y="507.4"/>
      <point x="274.4842105263158" y="605.6631578947369"/>
      <point x="236.46315789473684" y="713.0" type="curve"/>
      <point x="152.62105263157895" y="713.0" type="line"/>
      <point x="147.05263157894737" y="630.7157894736843"/>
      <point x="139.76842105263157" y="558.8210526315789"/>
      <point x="128.76842105263157" y="472.82105263157894" type="curve"/>
      <point x="99.58947368421052" y="236.38947368421051" type="line"/>
      <point x="88.58947368421052" y="149.56842105263158"/>
      <point x="78.33684210526316" y="79.03157894736843"/>
    </contour>
  </outline>
</glyph>
<glyph name="O" format="2">
  <advance width="817.5684210526316"/>
  <unicode hex="004F"/>
  <anchor x="408.46315789473687" y="0.0" name="bottom"/>
  <anchor x="408.46315789473687" y="357.0" name="center"/>
  <anchor x="500.2631578947368" y="0.0" name="ogonek"/>
  <anchor x="408.46315789473687" y="713.0" name="top"/>
  <anchor x="26.46315789473684" y="713.0" name="topleft"/>
  <anchor x="717.3473684210526" y="713.0" name="topright"/>
  <outline>
    <contour>
      <point x="412.2842105263158" y="-10.25263157894737" type="curve" smooth="yes"/>
      <point x="631.4421052631579" y="-10.25263157894737"/>
      <point x="764.0105263157894" y="146.92631578947368"/>
      <point x="764.0105263157894" y="357.6421052631579" type="curve" smooth="yes"/>
      <point x="764.0105263157894" y="562.0"/>
      <point x="637.6210526315789" y="725.7157894736843"/>
      <point x="409.5684210526316" y="725.7157894736843" type="curve" smooth="yes"/>
      <point x="185.33684210526314" y="725.7157894736843"/>
      <point x="53.5578947368421" y="564.6421052631579"/>
      <point x="53.5578947368421" y="357.46315789473687" type="curve" smooth="yes"/>
      <point x="53.5578947368421" y="158.53684210526316"/>
      <point x="174.23157894736843" y="-10.25263157894737"/>
    </contour>
    <contour>
      <point x="410.10526315789474" y="52.27368421052631" type="curve"/>
      <point x="213.62105263157895" y="56.98947368421052"/>
      <point x="126.46315789473684" y="194.3157894736842"/>
      <point x="126.46315789473684" y="357.6421052631579" type="curve" smooth="yes"/>
      <point x="126.46315789473684" y="520.6842105263157"/>
      <point x="217.44210526315788" y="658.4736842105262"/>
      <point x="410.10526315789474" y="663.1894736842105" type="curve"/>
      <point x="596.4842105263158" y="658.4736842105262"/>
      <point x="691.1052631578948" y="530.5368421052631"/>
      <point x="691.1052631578948" y="357.6421052631579" type="curve" smooth="yes"/>
      <point x="691.1052631578948" y="197.6"/>
      <point x="606.4105263157895" y="56.98947368421052"/>
    </contour>
  </outline>
</glyph>
<glyph name="R" format="2">
  <advance width="668.3333333333334"/>
  <unicode hex="0052"/>
  <anchor x="334.8620689655172" y="0.0" name="bottom"/>
  <anchor x="323.2873563218391" y="713.0" name="top"/>
  <outline>
    <contour>
      <point x="542.0344827586207" y="0.0" type="curve"/>
      <point x="638.9310344827586" y="0.0" type="line"/>
      <point x="588.2758620689655" y="54.60919540229885"/>
      <point x="517.4022988505748" y="138.17241379310346"/>
      <point x="463.9195402298851" y="202.95402298850576" type="curve"/>
      <point x="347.1264367816092" y="343.735632183908" type="line"/>
      <point x="328.14942528735634" y="311.6666666666667" type="line"/>
      <point x="510.2413793103449" y="312.6666666666667"/>
      <point x="569.1494252873564" y="408.8390804597701"/>
      <point x="569.1494252873564" y="523.3563218390805" type="curve" smooth="yes"/>
      <point x="569.1494252873564" y="658.5632183908046"/>
      <point x="492.11494252873564" y="715.1724137931035"/>
      <point x="332.2528735632184" y="715.1724137931035" type="curve"/>
      <point x="233.29885057471265" y="715.1724137931035"/>
      <point x="154.9655172413793" y="713.0"/>
      <point x="94.32183908045977" y="713.0" type="curve"/>
      <point x="145.8505747126437" y="653.0804597701149" type="line"/>
      <point x="329.08045977011494" y="653.0804597701149" type="line" smooth="yes"/>
      <point x="401.4827586206897" y="653.0804597701149"/>
      <point x="497.06896551724134" y="647.7816091954023"/>
      <point x="497.06896551724134" y="517.4942528735633" type="curve" smooth="yes"/>
      <point x="497.06896551724134" y="403.7816091954023"/>
      <point x="433.8850574712644" y="359.5977011494253"/>
      <point x="296.33333333333337" y="359.5977011494253" type="curve" smooth="yes"/>
      <point x="156.54022988505747" y="359.5977011494253" type="line"/>
      <point x="156.54022988505747" y="300.28735632183907" type="line"/>
      <point x="319.71264367816093" y="300.28735632183907" type="line"/>
      <point x="275.82758620689657" y="332.95402298850576" type="line"/>
      <point x="406.5287356321839" y="172.9655172413793" type="line"/>
      <point x="452.2758620689655" y="117.70114942528735"/>
      <point x="495.85057471264366" y="61.82758620689655"/>
    </contour>
    <contour>
      <point x="94.32183908045977" y="0.0" type="curve"/>
      <point x="174.70114942528735" y="0.0" type="line"/>
      <point x="169.74712643678163" y="79.82758620689656"/>
      <point x="168.96551724137933" y="148.6551724137931"/>
      <point x="168.96551724137933" y="236.4367816091954" type="curve"/>
      <point x="168.96551724137933" y="465.35632183908046" type="line"/>
      <point x="168.96551724137933" y="553.528735632184"/>
      <point x="169.74712643678163" y="623.1379310344828"/>
      <point x="174.70114942528735" y="703.3563218390805" type="curve"/>
      <point x="94.32183908045977" y="713.0" type="line"/>
      <point x="98.27586206896552" y="632.7816091954023"/>
      <point x="99.44827586206897" y="563.1724137931035"/>
      <point x="99.44827586206897" y="475.0" type="curve"/>
      <point x="99.44827586206897" y="236.4367816091954" type="line"/>
      <point x="99.44827586206897" y="148.6551724137931"/>
      <point x="98.27586206896552" y="79.82758620689656"/>
    </contour>
  </outline>
</glyph>
<glyph name="T" format="2">
  <advance width="639.5052631578948"/>
  <unicode hex="0054"/>
  <anchor x="320.2526315789474" y="0.0" name="bottom"/>
  <anchor x="320.2526315789474" y="346.62105263157895" name="center"/>
  <anchor x="320.2526315789474" y="713.0" name="top"/>
  <outline>
    <contour>
      <point x="280.06315789473683" y="0.0" type="curve"/>
      <point x="361.0842105263158" y="0.0" type="line"/>
      <point x="356.2947368421053" y="79.74736842105263"/>
      <point x="355.22105263157897" y="148.67368421052632"/>
      <point x="355.22105263157897" y="236.38947368421051" type="curve"/>
      <point x="355.22105263157897" y="465.2" type="line"/>
      <point x="355.22105263157897" y="553.6315789473684"/>
      <point x="357.11578947368423" y="623.0947368421052"/>
      <point x="361.0842105263158" y="703.3789473684211" type="curve"/>
      <point x="361.0842105263158" y="713.0" type="line"/>
      <point x="279.2421052631579" y="713.0" type="line"/>
      <point x="279.2421052631579" y="703.3789473684211" type="line"/>
      <point x="283.2105263157895" y="623.0947368421052"/>
      <point x="285.10526315789474" y="553.6315789473684"/>
      <point x="285.10526315789474" y="465.2" type="curve"/>
      <point x="285.10526315789474" y="236.38947368421051" type="line"/>
      <point x="285.10526315789474" y="148.67368421052632"/>
      <point x="284.0315789473684" y="79.74736842105263"/>
    </contour>
    <contour>
      <point x="32.31578947368421" y="641.8526315789474" type="line"/>
      <point x="89.34736842105264" y="646.5368421052632"/>
      <point x="149.37894736842105" y="649.6105263157895"/>
      <point x="231.69473684210527" y="649.6105263157895" type="curve"/>
      <point x="296.5473684210526" y="649.6105263157895" type="line"/>
      <point x="296.5473684210526" y="713.0" type="line"/>
      <point x="32.31578947368421" y="713.0" type="line"/>
    </contour>
    <contour>
      <point x="342.9578947368421" y="649.6105263157895" type="line"/>
      <point x="407.8105263157895" y="649.6105263157895" type="line"/>
      <point x="490.12631578947367" y="649.6105263157895"/>
      <point x="550.978947368421" y="647.3578947368421"/>
      <point x="607.1894736842105" y="641.8526315789474" type="curve"/>
      <point x="607.1894736842105" y="713.0" type="line"/>
      <point x="342.9578947368421" y="713.0" type="line"/>
    </contour>
  </outline>
</glyph>
<glyph name="U" format="2">
  <advance width="730.9263157894737"/>
  <unicode hex="0055"/>
  <anchor x="366.46315789473687" y="0.0" name="bottom"/>
  <anchor x="456.33684210526314" y="0.0" name="ogonek"/>
  <anchor x="366.46315789473687" y="713.0" name="top"/>
  <anchor x="693.8315789473684" y="713.0" name="topright"/>
  <outline>
    <contour>
      <point x="365.82105263157894" y="-10.25263157894737" type="curve" smooth="yes"/>
      <point x="558.0842105263158" y="-10.25263157894737"/>
      <point x="643.6631578947369" y="96.6"/>
      <point x="643.6631578947369" y="262.4736842105263" type="curve" smooth="yes"/>
      <point x="643.6631578947369" y="304.3263157894737"/>
      <point x="641.9473684210526" y="390.5052631578947"/>
      <point x="641.9473684210526" y="474.82105263157894" type="curve"/>
      <point x="641.9473684210526" y="563.2526315789473"/>
      <point x="643.0210526315789" y="632.7157894736843"/>
      <point x="647.8105263157894" y="713.0" type="curve"/>
      <point x="566.7894736842105" y="713.0" type="line"/>
      <point x="570.578947368421" y="632.7157894736843"/>
      <point x="571.8315789473684" y="563.2526315789473"/>
      <point x="571.8315789473684" y="474.82105263157894" type="curve"/>
      <point x="571.8315789473684" y="272.4736842105263" type="line" smooth="yes"/>
      <point x="571.8315789473684" y="131.61052631578946"/>
      <point x="518.8105263157895" y="53.98947368421052"/>
      <point x="365.6421052631579" y="52.27368421052631" type="curve"/>
      <point x="213.18947368421053" y="53.98947368421052"/>
      <point x="158.2736842105263" y="132.43157894736842"/>
      <point x="158.2736842105263" y="271.65263157894736" type="curve" smooth="yes"/>
      <point x="158.2736842105263" y="474.82105263157894" type="line"/>
      <point x="158.2736842105263" y="563.2526315789473"/>
      <point x="159.34736842105264" y="632.7157894736843"/>
      <point x="164.13684210526316" y="713.0" type="curve"/>
      <point x="83.11578947368422" y="713.0" type="line"/>
      <point x="86.90526315789474" y="632.7157894736843"/>
      <point x="88.15789473684211" y="563.2526315789473"/>
      <point x="88.15789473684211" y="474.82105263157894" type="curve"/>
      <point x="88.15789473684211" y="390.5052631578947"/>
      <point x="86.4421052631579" y="305.0421052631579"/>
      <point x="86.4421052631579" y="262.65263157894736" type="curve" smooth="yes"/>
      <point x="86.4421052631579" y="97.67368421052632"/>
      <point x="171.33684210526314" y="-10.25263157894737"/>
    </contour>
  </outline>
</glyph>
<glyph name="V" format="2">
  <advance width="680.8842105263159"/>
  <unicode hex="0056"/>
  <anchor x="341.2631578947369" y="0.0" name="bottom"/>
  <anchor x="341.2631578947369" y="713.0" name="top"/>
  <outline>
    <contour>
      <point x="288.1684210526316" y="0.0" type="curve"/>
      <point x="395.10526315789474" y="0.0" type="line"/>
      <point x="418.42105263157896" y="72.82105263157894"/>
      <point x="447.2" y="156.17894736842106"/>
      <point x="472.7684210526316" y="225.17894736842106" type="curve"/>
      <point x="554.9368421052632" y="450.0" type="line"/>
      <point x="583.3263157894737" y="527.1789473684211"/>
      <point x="622.6105263157895" y="629.0736842105263"/>
      <point x="658.1473684210526" y="713.0" type="curve"/>
      <point x="569.0105263157894" y="713.0" type="line"/>
      <point x="533.7052631578947" y="605.4421052631579"/>
      <point x="492.68421052631584" y="483.8842105263158"/>
      <point x="455.0526315789474" y="376.86315789473684" type="curve"/>
      <point x="345.62105263157895" y="73.7578947368421" type="line"/>
      <point x="337.8315789473684" y="73.7578947368421" type="line"/>
      <point x="228.65263157894736" y="375.86315789473684" type="line"/>
      <point x="190.5578947368421" y="480.59999999999997"/>
      <point x="146.07368421052632" y="607.0842105263158"/>
      <point x="112.41052631578947" y="713.0" type="curve"/>
      <point x="21.736842105263158" y="713.0" type="line"/>
      <point x="59.09473684210526" y="628.0736842105264"/>
      <point x="98.19999999999999" y="526.3578947368421"/>
      <point x="126.41052631578947" y="450.0" type="curve"/>
      <point x="209.86315789473684" y="226.0" type="line"/>
      <point x="235.07368421052632" y="158.17894736842103"/>
      <point x="265.0315789473684" y="71.17894736842105"/>
    </contour>
  </outline>
</glyph>
<glyph name="W" format="2">
  <advance width="1012.7789473684211"/>
  <unicode hex="0057"/>
  <anchor x="504.90526315789475" y="0.0" name="bottom"/>
  <anchor x="504.90526315789475" y="713.0" name="top"/>
  <outline>
    <contour>
      <point x="232.57894736842104" y="0.0" type="curve"/>
      <point x="335.13684210526316" y="0.0" type="line"/>
      <point x="358.94736842105266" y="101.05263157894736"/>
      <point x="390.86315789473684" y="222.9578947368421"/>
      <point x="418.7473684210526" y="323.4736842105263" type="curve"/>
      <point x="499.7578947368421" y="615.8105263157895" type="line"/>
      <point x="507.5473684210526" y="615.8105263157895" type="line"/>
      <point x="589.7368421052631" y="323.65263157894736" type="line"/>
      <point x="617.8" y="222.9578947368421"/>
      <point x="649.7157894736843" y="101.87368421052632"/>
      <point x="674.3473684210526" y="0.0" type="curve"/>
      <point x="780.1263157894737" y="0.0" type="line"/>
      <point x="795.1578947368422" y="68.3578947368421"/>
      <point x="819.5473684210526" y="155.17894736842103"/>
      <point x="840.6526315789474" y="225.82105263157894" type="curve"/>
      <point x="907.3263157894737" y="450.0" type="line"/>
      <point x="930.4315789473684" y="528.8210526315789"/>
      <point x="960.6105263157895" y="627.8947368421053"/>
      <point x="992.4" y="713.0" type="curve"/>
      <point x="902.1894736842106" y="713.0" type="line"/>
      <point x="876.7368421052631" y="608.5157894736842"/>
      <point x="843.1789473684211" y="485.10526315789474"/>
      <point x="814.0105263157894" y="381.9789473684211" type="curve"/>
      <point x="729.7894736842105" y="82.63157894736842" type="line"/>
      <point x="722.0" y="82.63157894736842" type="line"/>
      <point x="639.8105263157895" y="380.9789473684211" type="line"/>
      <point x="610.1052631578947" y="486.74736842105267"/>
      <point x="579.0105263157894" y="606.8736842105263"/>
      <point x="553.5578947368422" y="713.0" type="curve"/>
      <point x="457.4" y="713.0" type="line"/>
      <point x="433.58947368421053" y="609.3368421052631"/>
      <point x="400.6736842105263" y="483.4631578947368"/>
      <point x="372.7894736842105" y="381.9789473684211" type="curve"/>
      <point x="291.77894736842103" y="82.63157894736842" type="line"/>
      <point x="283.9894736842105" y="82.63157894736842" type="line"/>
      <point x="200.58947368421053" y="379.33684210526314" type="line"/>
      <point x="170.60000000000002" y="485.10526315789474"/>
      <point x="137.86315789473684" y="606.8736842105263"/>
      <point x="111.58947368421052" y="713.0" type="curve"/>
      <point x="21.200000000000003" y="713.0" type="line"/>
      <point x="51.526315789473685" y="629.3578947368421"/>
      <point x="83.63157894736842" y="527.1789473684211"/>
      <point x="106.73684210526315" y="448.3578947368421" type="curve"/>
      <point x="172.23157894736843" y="225.0" type="line"/>
      <point x="192.33684210526314" y="156.17894736842106"/>
      <point x="215.7263157894737" y="71.17894736842105"/>
    </contour>
  </outline>
</glyph>
<glyph name="X" format="2">
  <advance width="676.7157894736841"/>
  <unicode hex="0058"/>
  <outline>
    <contour>
      <point x="34.48421052631579" y="0.0" type="curve"/>
      <point x="127.90526315789475" y="0.0" type="line"/>
      <point x="166.67368421052632" y="65.34736842105262"/>
      <point x="200.94736842105263" y="120.94736842105263"/>
      <point x="237.39999999999998" y="177.1157894736842" type="curve"/>
      <point x="324.69473684210527" y="312.09473684210525" type="line"/>
      <point x="332.4842105263158" y="312.09473684210525" type="line"/>
      <point x="425.88421052631577" y="177.93684210526317" type="line"/>
      <point x="463.33684210526314" y="124.23157894736842"/>
      <point x="503.4315789473684" y="65.34736842105262"/>
      <point x="544.8421052631579" y="0.0" type="curve"/>
      <point x="642.7684210526317" y="0.0" type="line"/>
      <point x="583.4842105263158" y="74.10526315789474"/>
      <point x="534.2736842105263" y="141.46315789473687"/>
      <point x="479.9578947368421" y="219.17894736842106" type="curve"/>
      <point x="371.0421052631579" y="374.53684210526313" type="line"/>
      <point x="371.0421052631579" y="349.8421052631579" type="line"/>
      <point x="476.4947368421052" y="511.2421052631579" type="line"/>
      <point x="514.5263157894738" y="569.4947368421053"/>
      <point x="561.5578947368421" y="639.2842105263159"/>
      <point x="616.6315789473684" y="713.0" type="curve"/>
      <point x="522.3894736842105" y="713.0" type="line"/>
      <point x="482.90526315789475" y="648.4"/>
      <point x="442.7052631578947" y="582.6947368421053"/>
      <point x="405.25263157894733" y="524.9894736842106" type="curve"/>
      <point x="332.6315789473684" y="413.3263157894737" type="line"/>
      <point x="324.84210526315786" y="413.3263157894737" type="line"/>
      <point x="250.22105263157894" y="524.1684210526316" type="line"/>
      <point x="211.76842105263157" y="581.0526315789473"/>
      <point x="170.38947368421054" y="646.1157894736842"/>
      <point x="129.90526315789472" y="713.0" type="curve"/>
      <point x="34.76842105263158" y="713.0" type="line"/>
      <point x="94.76842105263157" y="633.3578947368421"/>
      <point x="140.4421052631579" y="566.4631578947368"/>
      <point x="185.93684210526314" y="499.7473684210526" type="curve"/>
      <point x="285.0315789473684" y="353.2105263157895" type="line"/>
      <point x="285.0315789473684" y="376.4736842105263" type="line"/>
      <point x="172.01052631578946" y="201.68421052631578" type="line"/>
      <point x="124.69473684210527" y="128.43157894736842"/>
      <point x="80.84210526315789" y="63.89473684210526"/>
    </contour>
  </outline>
</glyph>
<glyph name="Y" format="2">
  <advance width="644.3894736842105"/>
  <unicode hex="0059"/>
  <anchor x="323.23157894736846" y="0.0" name="bottom"/>
  <anchor x="323.23157894736846" y="713.0" name="top"/>
  <anchor x="20.0" y="713.0" name="topleft"/>
  <outline>
    <contour>
      <point x="289.8" y="286.0421052631579" type="line"/>
      <point x="356.4842105263158" y="286.0421052631579" type="line"/>
      <point x="514.6526315789474" y="545.4526315789474" type="line"/>
      <point x="547.7578947368421" y="599.6"/>
      <point x="583.221052631579" y="656.2105263157895"/>
      <point x="622.3684210526316" y="713.0" type="curve"/>
      <point x="529.8736842105263" y="713.0" type="line"/>
      <point x="477.3263157894737" y="614.4421052631578"/>
      <point x="448.33684210526314" y="564.3052631578947"/>
      <point x="400.2105263157895" y="484.7473684210526" type="curve"/>
      <point x="327.3052631578948" y="363.1578947368421" type="line"/>
      <point x="319.15789473684214" y="363.1578947368421" type="line"/>
      <point x="243.96842105263158" y="489.0315789473684" type="line"/>
      <point x="198.30526315789476" y="565.1263157894737"/>
      <point x="170.9578947368421" y="613.4421052631578"/>
      <point x="117.58947368421053" y="713.0" type="curve"/>
      <point x="23.484210526315792" y="713.0" type="line"/>
      <point x="69.63157894736842" y="647.0315789473684"/>
      <point x="98.81052631578947" y="600.421052631579"/>
      <point x="132.09473684210525" y="545.4526315789474" type="curve"/>
    </contour>
    <contour>
      <point x="283.0421052631579" y="0.0" type="curve"/>
      <point x="364.2421052631579" y="0.0" type="line"/>
      <point x="359.4526315789473" y="79.74736842105263"/>
      <point x="358.37894736842105" y="148.67368421052632"/>
      <point x="358.37894736842105" y="236.38947368421051" type="curve"/>
      <point x="358.37894736842105" y="344.4315789473684" type="line"/>
      <point x="288.0842105263158" y="344.4315789473684" type="line"/>
      <point x="288.0842105263158" y="236.38947368421051" type="line"/>
      <point x="288.0842105263158" y="148.67368421052632"/>
      <point x="286.8315789473684" y="79.74736842105263"/>
    </contour>
  </outline>
</glyph>
<glyph name="Z" format="2">
  <advance width="667.0526315789474"/>
  <unicode hex="005A"/>
  <anchor x="333.93684210526317" y="0.0" name="bottom"/>
  <anchor x="333.93684210526317" y="357.0" name="center"/>
  <anchor x="333.93684210526317" y="713.0" name="top"/>
  <outline>
    <contour>
      <point x="50.526315789473685" y="0.0" type="line"/>
      <point x="612.421052631579" y="0.0" type="line"/>
      <point x="612.421052631579" y="70.17894736842105" type="line"/>
      <point x="529.4315789473684" y="62.67368421052631"/>
      <point x="394.8421052631579" y="61.421052631578945"/>
      <point x="302.5684210526316" y="61.421052631578945" type="curve"/>
      <point x="110.37894736842105" y="61.421052631578945" type="line"/>
      <point x="124.02105263157895" y="27.54736842105263" type="line"/>
      <point x="420.87368421052633" y="414.2736842105263" type="line"/>
      <point x="482.7578947368421" y="495.36842105263156"/>
      <point x="544.8210526315789" y="576.2842105263157"/>
      <point x="608.7052631578947" y="654.3368421052631" type="curve"/>
      <point x="608.7052631578947" y="713.0" type="line"/>
      <point x="57.77894736842105" y="713.0" type="line"/>
      <point x="57.77894736842105" y="642.9263157894736" type="line"/>
      <point x="162.5157894736842" y="649.5052631578948"/>
      <point x="260.7894736842105" y="651.578947368421"/>
      <point x="347.6" y="651.578947368421" type="curve"/>
      <point x="558.0736842105263" y="651.578947368421" type="line"/>
      <point x="536.1473684210526" y="678.8842105263158" type="line"/>
      <point x="256.89473684210526" y="312.4315789473684" type="line"/>
      <point x="195.29473684210527" y="231.44210526315788"/>
      <point x="108.30526315789474" y="118.77894736842106"/>
      <point x="50.526315789473685" y="50.189473684210526" type="curve"/>
    </contour>
  </outline>
</glyph>
<glyph name="bracketleft" format="2">
  <advance width="362.89473684210526"/>
  <unicode hex="005B"/>
  <outline>
    <contour>
      <point x="96.47368421052632" y="-115.22105263157894" type="curve"/>
      <point x="168.0842105263158" y="-115.22105263157894" type="line"/>
      <point x="168.0842105263158" y="-104.77894736842106" type="line"/>
      <point x="163.29473684210527" y="-25.03157894736842"/>
      <point x="162.22105263157894" y="43.89473684210526"/>
      <point x="162.22105263157894" y="131.61052631578949" type="curve"/>
      <point x="162.22105263157894" y="516.3157894736842" type="line"/>
      <point x="162.22105263157894" y="604.7473684210527"/>
      <point x="163.29473684210527" y="674.2105263157895"/>
      <point x="168.0842105263158" y="754.4947368421052" type="curve"/>
      <point x="168.0842105263158" y="764.1157894736842" type="line"/>
      <point x="96.47368421052632" y="764.1157894736842" type="line"/>
      <point x="99.72631578947367" y="683.8315789473684"/>
      <point x="100.97894736842105" y="614.3684210526316"/>
      <point x="100.97894736842105" y="525.9368421052632" type="curve"/>
      <point x="100.97894736842105" y="121.16842105263157" type="line"/>
      <point x="100.97894736842105" y="33.45263157894737"/>
      <point x="99.72631578947367" y="-35.473684210526315"/>
    </contour>
    <contour>
      <point x="152.6421052631579" y="-115.22105263157894" type="line"/>
      <point x="348.4947368421053" y="-115.22105263157894" type="line"/>
      <point x="348.4947368421053" y="-56.48421052631579" type="line"/>
      <point x="300.7473684210526" y="-59.09473684210527"/>
      <point x="249.82105263157894" y="-59.631578947368425"/>
      <point x="192.25263157894736" y="-59.631578947368425" type="curve"/>
      <point x="152.6421052631579" y="-59.631578947368425" type="line"/>
    </contour>
    <contour>
      <point x="149.77894736842106" y="708.5263157894736" type="line"/>
      <point x="187.6421052631579" y="708.5263157894736" type="line"/>
      <point x="256.2105263157895" y="708.5263157894736"/>
      <point x="303.4947368421053" y="707.4526315789474"/>
      <point x="348.42105263157896" y="705.378947368421" type="curve"/>
      <point x="348.42105263157896" y="764.1157894736842" type="line"/>
      <point x="149.77894736842106" y="764.1157894736842" type="line"/>
    </contour>
  </outline>
</glyph>
<glyph name="backslash" format="2">
  <advance width="446.41052631578947"/>
  <unicode hex="005C"/>
  <outline>
    <contour>
      <point x="341.8842105263158" y="0.0" type="curve"/>
      <point x="415.9263157894737" y="0.0" type="line"/>
      <point x="380.85263157894735" y="74.0"/>
      <point x="351.9263157894737" y="137.0"/>
      <point x="311.7157894736842" y="228.0" type="curve"/>
      <point x="203.36842105263156" y="476.0" type="line"/>
      <point x="162.1578947368421" y="570.8210526315789"/>
      <point x="134.58947368421053" y="636.0"/>
      <point x="104.34736842105264" y="713.0" type="curve"/>
      <point x="30.48421052631579" y="713.0" type="line"/>
      <point x="68.2" y="636.0"/>
      <point x="97.12631578947368" y="571.0"/>
      <point x="139.33684210526314" y="474.0" type="curve"/>
      <point x="246.68421052631578" y="228.0" type="line"/>
      <point x="286.89473684210526" y="137.0"/>
      <point x="313.4631578947368" y="74.0"/>
    </contour>
  </outline>
</glyph>
<glyph name="asciicircum" format="2">
  <advance width="602.1684210526316"/>
  <unicode hex="005E"/>
  <outline>
    <contour>
      <point x="476.05263157894734" y="384.1578947368421" type="curve"/>
      <point x="540.0736842105263" y="385.33684210526314" type="line"/>
      <point x="473.57894736842104" y="484.9157894736842"/>
      <point x="408.2631578947368" y="585.4947368421052"/>
      <point x="348.91578947368424" y="685.0736842105263" type="curve"/>
      <point x="253.25263157894733" y="685.0736842105263" type="line"/>
      <point x="193.90526315789472" y="585.4947368421052"/>
      <point x="128.58947368421053" y="486.9157894736842"/>
      <point x="62.09473684210526" y="387.33684210526314" type="curve"/>
      <point x="126.29473684210527" y="387.33684210526314" type="line"/>
      <point x="185.2842105263158" y="467.4315789473684"/>
      <point x="240.9157894736842" y="548.5263157894736"/>
      <point x="297.1894736842105" y="628.621052631579" type="curve"/>
      <point x="304.9789473684211" y="628.621052631579" type="line"/>
      <point x="361.25263157894733" y="547.3473684210526"/>
      <point x="417.06315789473683" y="465.4315789473684"/>
    </contour>
  </outline>
</glyph>
<glyph name="underscore" format="2">
  <advance width="430.6421052631579"/>
  <unicode hex="005F"/>
  <outline>
    <contour>
      <point x="-10.0" y="-112.54736842105262" type="line"/>
      <point x="51.04210526315789" y="-110.36842105263158"/>
      <point x="109.8" y="-109.83157894736841"/>
      <point x="158.58947368421053" y="-109.47368421052632" type="curve"/>
      <point x="235.7263157894737" y="-109.47368421052632" type="line"/>
      <point x="284.5157894736842" y="-109.83157894736841"/>
      <point x="343.2736842105263" y="-110.36842105263158"/>
      <point x="404.3157894736842" y="-112.54736842105262" type="curve"/>
      <point x="404.3157894736842" y="-51.55789473684211" type="line"/>
      <point x="343.2736842105263" y="-53.736842105263165"/>
      <point x="284.5157894736842" y="-54.27368421052632"/>
      <point x="235.7263157894737" y="-54.631578947368425" type="curve"/>
      <point x="158.58947368421053" y="-54.631578947368425" type="line"/>
      <point x="109.8" y="-54.27368421052632"/>
      <point x="51.04210526315789" y="-53.736842105263165"/>
      <point x="-10.0" y="-51.55789473684211" type="curve"/>
    </contour>
  </outline>
</glyph>
<glyph name="a" format="2">
  <advance width="522.6436781609195"/>
  <unicode hex="0061"/>
  <anchor x="263.39080459770116" y="0.0" name="bottom"/>
  <anchor x="441.2413793103448" y="0.0" name="ogonek"/>
  <anchor x="263.39080459770116" y="495.5632183908046" name="top"/>
  <outline>
    <contour>
      <point x="206.22988505747128" y="-9.781609195402298" type="curve" smooth="yes"/>
      <point x="266.62068965517244" y="-9.781609195402298"/>
      <point x="336.88505747126436" y="27.563218390804597"/>
      <point x="376.41379310344826" y="73.18390804597702" type="curve"/>
      <point x="383.97701149425285" y="73.18390804597702" type="line"/>
      <point x="405.41379310344826" y="0.0" type="line"/>
      <point x="472.02298850574715" y="0.0" type="line"/>
      <point x="453.0689655172414" y="55.73563218390805"/>
      <point x="440.632183908046" y="103.2528735632184"/>
      <point x="440.632183908046" y="146.3793103448276" type="curve"/>
      <point x="440.632183908046" y="211.0" type="line" smooth="yes"/>
      <point x="440.632183908046" y="254.6551724137931"/>
      <point x="443.02298850574715" y="304.4367816091954"/>
      <point x="443.02298850574715" y="334.0" type="curve" smooth="yes"/>
      <point x="443.02298850574715" y="454.95402298850576"/>
      <point x="376.11494252873564" y="506.3448275862069"/>
      <point x="267.735632183908" y="506.3448275862069" type="curve" smooth="yes"/>
      <point x="206.3103448275862" y="506.3448275862069"/>
      <point x="123.57471264367815" y="483.1264367816092"/>
      <point x="78.40229885057471" y="470.12643678160924" type="curve"/>
      <point x="82.183908045977" y="405.2068965517241" type="line"/>
      <point x="155.0574712643678" y="433.4252873563218"/>
      <point x="228.57471264367817" y="448.55172413793105"/>
      <point x="256.4022988505747" y="448.55172413793105" type="curve" smooth="yes"/>
      <point x="323.7586206896552" y="448.55172413793105"/>
      <point x="382.632183908046" y="426.9425287356322"/>
      <point x="378.41379310344826" y="314.735632183908" type="curve"/>
      <point x="216.7471264367816" y="284.5977011494253" type="line" smooth="yes"/>
      <point x="143.44827586206895" y="271.37931034482756"/>
      <point x="56.40229885057471" y="238.0344827586207"/>
      <point x="56.40229885057471" y="131.29885057471265" type="curve" smooth="yes"/>
      <point x="56.40229885057471" y="44.4367816091954"/>
      <point x="114.91954022988506" y="-9.781609195402298"/>
    </contour>
    <contour>
      <point x="221.86206896551724" y="45.44827586206897" type="curve" smooth="yes"/>
      <point x="165.14942528735634" y="45.44827586206897"/>
      <point x="122.183908045977" y="69.97701149425288"/>
      <point x="122.183908045977" y="133.86206896551724" type="curve" smooth="yes"/>
      <point x="122.183908045977" y="196.79310344827587"/>
      <point x="170.94252873563218" y="225.01149425287358"/>
      <point x="234.2183908045977" y="236.66666666666666" type="curve" smooth="yes"/>
      <point x="334.71264367816093" y="254.9310344827586"/>
      <point x="360.1954022988506" y="263.58620689655174"/>
      <point x="377.2413793103448" y="272.58620689655174" type="curve"/>
      <point x="376.632183908046" y="147.2873563218391" type="line"/>
      <point x="340.32183908045977" y="80.66666666666667"/>
      <point x="266.4367816091954" y="45.44827586206897"/>
    </contour>
  </outline>
</glyph>
<glyph name="d" format="2">
  <advance width="575.9368421052632"/>
  <unicode hex="0064"/>
  <anchor x="308.86315789473684" y="0.0" name="bottom"/>
  <anchor x="290.2526315789474" y="247.7157894736842" name="center"/>
  <anchor x="308.86315789473684" y="724.7894736842105" name="top"/>
  <anchor x="550.7263157894737" y="495.4315789473684" name="topright"/>
  <outline>
    <contour>
      <point x="269.57894736842104" y="-10.25263157894737" type="curve" smooth="yes"/>
      <point x="325.4315789473684" y="-10.25263157894737"/>
      <point x="383.2842105263158" y="17.568421052631578"/>
      <point x="431.85263157894735" y="69.56842105263158" type="curve"/>
      <point x="439.10526315789474" y="69.56842105263158" type="line"/>
      <point x="443.4315789473684" y="0.0" type="line"/>
      <point x="504.56842105263155" y="0.0" type="line"/>
      <point x="499.9578947368421" y="73.92631578947369"/>
      <point x="498.88421052631577" y="138.03157894736842"/>
      <point x="498.88421052631577" y="219.56842105263158" type="curve"/>
      <point x="498.88421052631577" y="493.82105263157894" type="line"/>
      <point x="498.88421052631577" y="580.7894736842105"/>
      <point x="500.85263157894735" y="661.0421052631579"/>
      <point x="505.6421052631579" y="742.1473684210526" type="curve"/>
      <point x="423.33684210526314" y="729.5368421052632" type="line"/>
      <point x="431.2736842105263" y="655.5684210526316"/>
      <point x="434.5263157894737" y="577.7473684210527"/>
      <point x="434.5263157894737" y="493.82105263157894" type="curve"/>
      <point x="434.5263157894737" y="437.11578947368423" type="line"/>
      <point x="426.7368421052632" y="437.11578947368423" type="line"/>
      <point x="389.98947368421057" y="472.36842105263156"/>
      <point x="337.0315789473684" y="506.5052631578947"/>
      <point x="271.4" y="506.5052631578947" type="curve" smooth="yes"/>
      <point x="134.3684210526316" y="506.5052631578947"/>
      <point x="54.48421052631579" y="396.7157894736842"/>
      <point x="54.48421052631579" y="249.3578947368421" type="curve" smooth="yes"/>
      <point x="54.48421052631579" y="110.3578947368421"/>
      <point x="126.26315789473685" y="-10.25263157894737"/>
    </contour>
    <contour>
      <point x="285.86315789473684" y="49.12631578947368" type="curve"/>
      <point x="169.93684210526317" y="52.12631578947368"/>
      <point x="120.5578947368421" y="144.9578947368421"/>
      <point x="120.5578947368421" y="249.0" type="curve" smooth="yes"/>
      <point x="120.5578947368421" y="357.6842105263158"/>
      <point x="173.86315789473684" y="443.58947368421053"/>
      <point x="287.5052631578947" y="446.58947368421053" type="curve"/>
      <point x="336.1684210526316" y="445.58947368421053"/>
      <point x="392.6842105263158" y="421.34736842105264"/>
      <point x="434.5263157894737" y="371.11578947368423" type="curve"/>
      <point x="434.5263157894737" y="137.06315789473683" type="line"/>
      <point x="393.86315789473684" y="80.18947368421053"/>
      <point x="342.63157894736844" y="49.663157894736834"/>
    </contour>
  </outline>
</glyph>
<glyph name="g" format="2">
  <advance width="540.6896551724138"/>
  <unicode hex="0067"/>
  <anchor x="268.7356321839081" y="-192.0" name="bottom"/>
  <anchor x="258.3793103448276" y="495.5632183908046" name="top"/>
  <outline>
    <contour>
      <point x="244.65517241379308" y="-202.7816091954023" type="curve" smooth="yes"/>
      <point x="357.6896551724138" y="-202.7816091954023"/>
      <point x="490.11494252873564" y="-147.3448275862069"/>
      <point x="490.11494252873564" y="-37.40229885057471" type="curve" smooth="yes"/>
      <point x="490.11494252873564" y="41.195402298850574"/>
      <point x="432.6896551724138" y="71.41379310344828"/>
      <point x="291.55172413793105" y="71.41379310344828" type="curve" smooth="yes"/>
      <point x="269.3333333333333" y="71.41379310344828" type="line" smooth="yes"/>
      <point x="191.54022988505747" y="71.41379310344828"/>
      <point x="160.88505747126436" y="81.06896551724138"/>
      <point x="160.88505747126436" y="113.42528735632185" type="curve" smooth="yes"/>
      <point x="160.88505747126436" y="144.39080459770116"/>
      <point x="195.14942528735634" y="155.4367816091954"/>
      <point x="269.9425287356322" y="173.09195402298852" type="curve" smooth="yes"/>
      <point x="368.816091954023" y="195.91954022988506"/>
      <point x="431.33333333333337" y="243.48275862068965"/>
      <point x="431.33333333333337" y="340.82758620689657" type="curve" smooth="yes"/>
      <point x="431.33333333333337" y="398.4367816091954"/>
      <point x="405.67816091954023" y="448.3103448275862"/>
      <point x="342.88505747126436" y="476.91954022988506" type="curve"/>
      <point x="323.67816091954023" y="452.8045977011495" type="line"/>
      <point x="388.33333333333337" y="450.8045977011495"/>
      <point x="451.816091954023" y="447.2413793103449"/>
      <point x="518.8620689655172" y="439.33333333333337" type="curve"/>
      <point x="518.8620689655172" y="495.95402298850576" type="line"/>
      <point x="359.8505747126437" y="495.95402298850576" type="line" smooth="yes"/>
      <point x="307.5977011494253" y="495.95402298850576"/>
      <point x="286.64367816091954" y="506.3448275862069"/>
      <point x="241.34482758620692" y="506.3448275862069" type="curve" smooth="yes"/>
      <point x="130.05747126436782" y="506.3448275862069"/>
      <point x="52.57471264367816" y="442.82758620689657"/>
      <point x="52.57471264367816" y="346.0" type="curve" smooth="yes"/>
      <point x="52.57471264367816" y="249.73563218390805"/>
      <point x="135.14942528735634" y="202.90804597701148"/>
      <point x="166.10344827586206" y="188.7816091954023" type="curve"/>
      <point x="166.10344827586206" y="182.60919540229884" type="line"/>
      <point x="122.27586206896551" y="166.04597701149424"/>
      <point x="99.40229885057471" y="140.70114942528735"/>
      <point x="99.40229885057471" y="104.04597701149426" type="curve" smooth="yes"/>
      <point x="99.40229885057471" y="58.264367816091955"/>
      <point x="134.4022988505747" y="37.87356321839081"/>
      <point x="152.22988505747128" y="32.87356321839081" type="curve"/>
      <point x="152.22988505747128" y="26.310344827586206" type="line"/>
      <point x="120.35632183908045" y="15.701149425287356"/>
      <point x="56.13793103448276" y="-19.298850574712645"/>
      <point x="56.13793103448276" y="-84.95402298850574" type="curve" smooth="yes"/>
      <point x="56.13793103448276" y="-141.73563218390805"/>
      <point x="98.0919540229885" y="-202.7816091954023"/>
    </contour>
    <contour>
      <point x="250.86206896551724" y="-147.72413793103448" type="curve"/>
      <point x="148.88505747126436" y="-146.11494252873564"/>
      <point x="116.83908045977012" y="-112.58620689655173"/>
      <point x="116.83908045977012" y="-73.40229885057471" type="curve" smooth="yes"/>
      <point x="116.83908045977012" y="-19.908045977011493"/>
      <point x="189.02298850574715" y="4.356321839080459"/>
      <point x="238.37931034482756" y="15.402298850574713" type="curve"/>
      <point x="279.2643678160919" y="15.402298850574713" type="line" smooth="yes"/>
      <point x="398.0229885057471" y="15.402298850574713"/>
      <point x="427.85057471264366" y="-3.03448275862069"/>
      <point x="427.85057471264366" y="-46.4367816091954" type="curve" smooth="yes"/>
      <point x="427.85057471264366" y="-91.44827586206897"/>
      <point x="364.1034482758621" y="-144.94252873563218"/>
    </contour>
    <contour>
      <point x="234.1264367816092" y="218.36781609195404" type="curve"/>
      <point x="179.8505747126437" y="234.41379310344828"/>
      <point x="114.05747126436782" y="271.7701149425287"/>
      <point x="114.05747126436782" y="342.0919540229885" type="curve" smooth="yes"/>
      <point x="114.05747126436782" y="415.2413793103448"/>
      <point x="173.06896551724137" y="447.551724137931"/>
      <point x="242.39080459770116" y="449.3333333333333" type="curve"/>
      <point x="298.7011494252874" y="446.3333333333333"/>
      <point x="369.8505747126437" y="417.2413793103448"/>
      <point x="369.8505747126437" y="337.3103448275862" type="curve" smooth="yes"/>
      <point x="369.8505747126437" y="250.24137931034483"/>
      <point x="289.7471264367816" y="229.632183908046"/>
    </contour>
  </outline>
</glyph>
<glyph name="k" format="2">
  <advance width="534.0736842105263"/>
  <unicode hex="006B"/>
  <anchor x="274.4421052631579" y="0.0" name="bottom"/>
  <anchor x="274.4421052631579" y="724.7894736842105" name="top"/>
  <outline>
    <contour>
      <point x="418.3894736842105" y="0.0" type="curve"/>
      <point x="516.5157894736842" y="0.0" type="line"/>
      <point x="448.9894736842105" y="58.07368421052632"/>
      <point x="384.17894736842106" y="115.50526315789473"/>
      <point x="321.0842105263158" y="173.57894736842104" type="curve"/>
      <point x="217.16842105263157" y="270.09473684210525" type="line"/>
      <point x="219.13684210526316" y="237.49473684210525" type="line"/>
      <point x="308.62105263157895" y="321.9263157894737" type="line"/>
      <point x="370.43157894736845" y="379.82105263157894"/>
      <point x="431.59999999999997" y="436.7157894736842"/>
      <point x="498.3052631578948" y="495.4315789473684" type="curve"/>
      <point x="404.86315789473684" y="495.4315789473684" type="line"/>
      <point x="359.8105263157895" y="448.0421052631579"/>
      <point x="310.40000000000003" y="400.0105263157895"/>
      <point x="260.91578947368424" y="352.62105263157895" type="curve"/>
      <point x="180.0842105263158" y="275.30526315789473" type="line"/>
      <point x="148.29473684210527" y="275.30526315789473" type="line"/>
      <point x="148.29473684210527" y="226.90526315789475" type="line"/>
      <point x="174.33684210526317" y="226.90526315789475" type="line"/>
      <point x="271.41052631578947" y="140.02105263157895" type="line"/>
      <point x="322.17894736842106" y="93.34736842105264"/>
      <point x="371.41052631578947" y="46.67368421052632"/>
    </contour>
    <contour>
      <point x="87.6842105263158" y="0.0" type="curve"/>
      <point x="162.58947368421053" y="0.0" type="line"/>
      <point x="157.97894736842105" y="71.77894736842106"/>
      <point x="156.90526315789475" y="134.09473684210525"/>
      <point x="156.90526315789475" y="211.1578947368421" type="curve"/>
      <point x="156.90526315789475" y="493.82105263157894" type="line"/>
      <point x="156.90526315789475" y="580.7894736842105"/>
      <point x="158.87368421052633" y="661.042105263158"/>
      <point x="164.02105263157895" y="742.1473684210526" type="curve"/>
      <point x="81.3578947368421" y="729.5368421052632" type="line"/>
      <point x="89.29473684210527" y="655.5684210526316"/>
      <point x="92.54736842105262" y="577.7473684210527"/>
      <point x="92.54736842105262" y="493.82105263157894" type="curve"/>
      <point x="92.54736842105262" y="219.56842105263158" type="line"/>
      <point x="92.54736842105262" y="138.03157894736842"/>
      <point x="91.29473684210527" y="73.92631578947369"/>
    </contour>
  </outline>
</glyph>
<glyph name="m" format="2">
  <advance width="879.5052631578948"/>
  <unicode hex="006D"/>
  <anchor x="450.4631578947368" y="0.0" name="bottom"/>
  <anchor x="450.4631578947368" y="495.4315789473684" name="top"/>
  <outline>
    <contour>
      <point x="93.32631578947368" y="0.0" type="curve"/>
      <point x="168.23157894736843" y="0.0" type="line"/>
      <point x="163.62105263157895" y="73.92631578947369"/>
      <point x="162.54736842105262" y="138.03157894736842"/>
      <point x="162.54736842105262" y="217.2421052631579" type="curve"/>
      <point x="162.54736842105262" y="336.1578947368421" type="line"/>
      <point x="205.56842105263158" y="397.42105263157896"/>
      <point x="269.62105263157895" y="444.4421052631579"/>
      <point x="317.85263157894735" y="444.4421052631579" type="curve" smooth="yes"/>
      <point x="393.86315789473684" y="444.4421052631579"/>
      <point x="418.2842105263158" y="398.9157894736842"/>
      <point x="418.2842105263158" y="310.2526315789474" type="curve"/>
      <point x="418.2842105263158" y="217.2421052631579" type="line"/>
      <point x="418.2842105263158" y="138.03157894736842"/>
      <point x="417.2105263157895" y="73.92631578947369"/>
      <point x="413.95789473684215" y="0.0" type="curve"/>
      <point x="488.5052631578947" y="0.0" type="line"/>
      <point x="483.35789473684207" y="73.92631578947369"/>
      <point x="482.6421052631579" y="138.03157894736842"/>
      <point x="482.6421052631579" y="219.56842105263158" type="curve"/>
      <point x="482.6421052631579" y="247.8947368421053"/>
      <point x="484.35789473684207" y="285.86315789473684"/>
      <point x="484.35789473684207" y="328.6842105263158" type="curve" smooth="yes"/>
      <point x="484.35789473684207" y="348.93684210526317"/>
      <point x="483.0" y="368.01052631578943"/>
      <point x="479.6421052631579" y="384.7263157894737" type="curve"/>
      <point x="475.6" y="388.01052631578943" type="line"/>
      <point x="462.34736842105264" y="465.9368421052631"/>
      <point x="417.8105263157895" y="506.5052631578947"/>
      <point x="337.56842105263155" y="506.5052631578947" type="curve" smooth="yes"/>
      <point x="267.5052631578947" y="506.5052631578947"/>
      <point x="202.7578947368421" y="449.69473684210527"/>
      <point x="165.50526315789472" y="405.5473684210526" type="curve"/>
      <point x="157.53684210526313" y="405.5473684210526" type="line"/>
      <point x="148.3578947368421" y="499.6842105263158" type="line"/>
      <point x="84.71578947368421" y="495.4315789473684" type="line"/>
      <point x="95.11578947368422" y="419.82105263157894"/>
      <point x="98.18947368421053" y="342.0"/>
      <point x="98.18947368421053" y="269.5684210526316" type="curve"/>
      <point x="98.18947368421053" y="219.56842105263158" type="line"/>
      <point x="98.18947368421053" y="138.03157894736842"/>
      <point x="96.93684210526315" y="73.92631578947369"/>
    </contour>
    <contour>
      <point x="729.9473684210526" y="0.0" type="curve"/>
      <point x="804.4947368421052" y="0.0" type="line"/>
      <point x="799.3473684210526" y="73.92631578947369"/>
      <point x="798.6315789473684" y="138.03157894736842"/>
      <point x="798.6315789473684" y="219.56842105263158" type="curve"/>
      <point x="798.6315789473684" y="247.8947368421053"/>
      <point x="800.3473684210526" y="285.5052631578947"/>
      <point x="800.3473684210526" y="328.6842105263158" type="curve" smooth="yes"/>
      <point x="800.3473684210526" y="443.7578947368421"/>
      <point x="754.9473684210526" y="506.5052631578947"/>
      <point x="653.5578947368422" y="506.5052631578947" type="curve" smooth="yes"/>
      <point x="583.4947368421052" y="506.5052631578947"/>
      <point x="519.8526315789475" y="451.33684210526314"/>
      <point x="478.4947368421053" y="403.0842105263158" type="curve"/>
      <point x="469.9894736842105" y="403.0842105263158" type="line"/>
      <point x="478.35789473684207" y="336.1578947368421" type="line"/>
      <point x="521.378947368421" y="397.42105263157896"/>
      <point x="585.6105263157895" y="444.4421052631579"/>
      <point x="633.8421052631579" y="444.4421052631579" type="curve" smooth="yes"/>
      <point x="709.0315789473685" y="444.4421052631579"/>
      <point x="734.2736842105263" y="398.9157894736842"/>
      <point x="734.2736842105263" y="310.2526315789474" type="curve"/>
      <point x="734.2736842105263" y="217.2421052631579" type="line"/>
      <point x="734.2736842105263" y="138.03157894736842"/>
      <point x="733.1999999999999" y="73.92631578947369"/>
    </contour>
  </outline>
</glyph>
<glyph name="n" format="2">
  <advance width="579.0105263157895"/>
  <unicode hex="006E"/>
  <anchor x="294.89473684210526" y="0.0" name="bottom"/>
  <anchor x="294.89473684210526" y="495.4315789473684" name="top"/>
  <outline>
    <contour>
      <point x="93.32631578947368" y="0.0" type="curve"/>
      <point x="168.23157894736843" y="0.0" type="line"/>
      <point x="163.62105263157895" y="73.92631578947369"/>
      <point x="162.54736842105262" y="138.03157894736842"/>
      <point x="162.54736842105262" y="217.2421052631579" type="curve"/>
      <point x="162.54736842105262" y="336.1578947368421" type="line"/>
      <point x="205.56842105263158" y="397.42105263157896"/>
      <point x="278.65263157894736" y="444.4421052631579"/>
      <point x="327.06315789473683" y="444.4421052631579" type="curve" smooth="yes"/>
      <point x="407.7157894736842" y="444.4421052631579"/>
      <point x="433.77894736842103" y="398.9157894736842"/>
      <point x="433.77894736842103" y="310.2526315789474" type="curve"/>
      <point x="433.77894736842103" y="217.2421052631579" type="line"/>
      <point x="433.77894736842103" y="138.03157894736842"/>
      <point x="432.7052631578947" y="73.92631578947369"/>
      <point x="429.4526315789474" y="0.0" type="curve"/>
      <point x="504.0" y="0.0" type="line"/>
      <point x="498.85263157894735" y="73.92631578947369"/>
      <point x="498.13684210526316" y="138.03157894736842"/>
      <point x="498.13684210526316" y="219.56842105263158" type="curve"/>
      <point x="498.13684210526316" y="247.8947368421053"/>
      <point x="499.85263157894735" y="285.5052631578947"/>
      <point x="499.85263157894735" y="328.6842105263158" type="curve" smooth="yes"/>
      <point x="499.85263157894735" y="443.7578947368421"/>
      <point x="454.4526315789474" y="506.5052631578947"/>
      <point x="346.13684210526316" y="506.5052631578947" type="curve" smooth="yes"/>
      <point x="275.71578947368425" y="506.5052631578947"/>
      <point x="202.7578947368421" y="449.69473684210527"/>
      <point x="165.50526315789472" y="405.5473684210526" type="curve"/>
      <point x="157.53684210526313" y="405.5473684210526" type="line"/>
      <point x="148.3578947368421" y="499.6842105263158" type="line"/>
      <point x="84.71578947368421" y="495.4315789473684" type="line"/>
      <point x="95.11578947368422" y="419.82105263157894"/>
      <point x="98.18947368421053" y="342.0"/>
      <point x="98.18947368421053" y="269.5684210526316" type="curve"/>
      <point x="98.18947368421053" y="219.56842105263158" type="line"/>
      <point x="98.18947368421053" y="138.03157894736842"/>
      <point x="96.93684210526315" y="73.92631578947369"/>
    </contour>
  </outline>
</glyph>
<glyph name="o" format="2">
  <advance width="597.1789473684211"/>
  <unicode hex="006F"/>
  <anchor x="298.17894736842106" y="0.0" name="bottom"/>
  <anchor x="298.17894736842106" y="247.7157894736842" name="center"/>
  <anchor x="370.5157894736842" y="0.0" name="ogonek"/>
  <anchor x="298.17894736842106" y="495.4315789473684" name="top"/>
  <anchor x="534.421052631579" y="495.4315789473684" name="topright"/>
  <outline>
    <contour>
      <point x="300.3578947368421" y="-10.25263157894737" type="curve" smooth="yes"/>
      <point x="448.0526315789474" y="-10.25263157894737"/>
      <point x="543.0526315789474" y="104.38947368421053"/>
      <point x="543.0526315789474" y="251.0" type="curve" smooth="yes"/>
      <point x="543.0526315789474" y="395.89473684210526"/>
      <point x="452.7684210526316" y="506.5052631578947"/>
      <point x="299.46315789473687" y="506.5052631578947" type="curve" smooth="yes"/>
      <point x="150.33684210526314" y="506.5052631578947"/>
      <point x="54.126315789473686" y="399.3578947368421"/>
      <point x="54.126315789473686" y="251.0" type="curve" smooth="yes"/>
      <point x="54.126315789473686" y="112.6421052631579"/>
      <point x="141.05263157894737" y="-10.25263157894737"/>
    </contour>
    <contour>
      <point x="300.17894736842106" y="47.694736842105264" type="curve"/>
      <point x="177.50526315789475" y="50.873684210526314"/>
      <point x="120.02105263157895" y="145.98947368421054"/>
      <point x="120.02105263157895" y="251.0" type="curve" smooth="yes"/>
      <point x="120.02105263157895" y="361.29473684210524"/>
      <point x="180.4315789473684" y="445.2"/>
      <point x="300.17894736842106" y="448.5578947368421" type="curve"/>
      <point x="412.53684210526313" y="444.66315789473686"/>
      <point x="477.1578947368421" y="367.86315789473684"/>
      <point x="477.1578947368421" y="251.0" type="curve" smooth="yes"/>
      <point x="477.1578947368421" y="145.45263157894738"/>
      <point x="421.85263157894735" y="50.873684210526314"/>
    </contour>
  </outline>
</glyph>
<glyph name="p" format="2">
  <advance width="597.0736842105264"/>
  <unicode hex="0070"/>
  <outline>
    <contour>
      <point x="92.50526315789473" y="-194.7157894736842" type="curve"/>
      <point x="169.1263157894737" y="-192.0" type="line"/>
      <point x="163.8" y="-118.07368421052631"/>
      <point x="162.54736842105262" y="-53.96842105263158"/>
      <point x="162.54736842105262" y="25.242105263157896" type="curve"/>
      <point x="162.54736842105262" y="66.34736842105264" type="line"/>
      <point x="169.8" y="66.34736842105264" type="line"/>
      <point x="216.29473684210527" y="15.957894736842103"/>
      <point x="273.0736842105263" y="-10.25263157894737"/>
      <point x="327.4947368421052" y="-10.25263157894737" type="curve" smooth="yes"/>
      <point x="470.81052631578945" y="-10.25263157894737"/>
      <point x="542.5894736842106" y="110.3578947368421"/>
      <point x="542.5894736842106" y="249.3578947368421" type="curve" smooth="yes"/>
      <point x="542.5894736842106" y="396.7157894736842"/>
      <point x="462.7052631578947" y="506.5052631578947"/>
      <point x="325.6736842105263" y="506.5052631578947" type="curve" smooth="yes"/>
      <point x="257.7894736842105" y="506.5052631578947"/>
      <point x="202.7578947368421" y="470.65263157894736"/>
      <point x="164.11578947368423" y="432.61052631578946" type="curve"/>
      <point x="156.32631578947368" y="432.61052631578946" type="line"/>
      <point x="149.96842105263158" y="499.6842105263158" type="line"/>
      <point x="84.71578947368421" y="495.4315789473684" type="line"/>
      <point x="95.11578947368422" y="419.82105263157894"/>
      <point x="98.18947368421053" y="342.0"/>
      <point x="98.18947368421053" y="269.5684210526316" type="curve"/>
      <point x="98.18947368421053" y="27.568421052631578" type="line"/>
      <point x="98.18947368421053" y="-53.96842105263158"/>
      <point x="96.93684210526315" y="-120.78947368421052"/>
    </contour>
    <contour>
      <point x="311.2105263157895" y="49.12631578947368" type="curve"/>
      <point x="254.4421052631579" y="49.663157894736834"/>
      <point x="203.21052631578948" y="80.18947368421053"/>
      <point x="162.54736842105262" y="137.06315789473683" type="curve"/>
      <point x="162.54736842105262" y="371.11578947368423" type="line"/>
      <point x="204.38947368421054" y="421.34736842105264"/>
      <point x="260.9052631578947" y="445.58947368421053"/>
      <point x="309.56842105263155" y="446.58947368421053" type="curve"/>
      <point x="423.2105263157895" y="443.58947368421053"/>
      <point x="476.5157894736842" y="357.6842105263158"/>
      <point x="476.5157894736842" y="249.0" type="curve" smooth="yes"/>
      <point x="476.5157894736842" y="144.9578947368421"/>
      <point x="427.13684210526316" y="52.12631578947368"/>
    </contour>
  </outline>
</glyph>
<glyph name="q" format="2">
  <advance width="585.8947368421052"/>
  <unicode hex="0071"/>
  <outline>
    <contour>
      <point x="428.8421052631579" y="-194.7157894736842" type="curve"/>
      <point x="504.56842105263155" y="-192.0" type="line"/>
      <point x="499.9578947368421" y="-118.07368421052631"/>
      <point x="498.88421052631577" y="-53.96842105263158"/>
      <point x="498.88421052631577" y="27.568421052631578" type="curve"/>
      <point x="498.88421052631577" y="269.5684210526316" type="line"/>
      <point x="498.88421052631577" y="343.3578947368421"/>
      <point x="501.9578947368421" y="422.7157894736842"/>
      <point x="510.56842105263155" y="499.6842105263158" type="curve"/>
      <point x="447.10526315789474" y="495.4315789473684" type="line"/>
      <point x="440.7473684210526" y="432.61052631578946" type="line"/>
      <point x="432.9578947368421" y="432.61052631578946" type="line"/>
      <point x="394.3157894736842" y="470.65263157894736"/>
      <point x="339.28421052631575" y="506.5052631578947"/>
      <point x="271.4" y="506.5052631578947" type="curve" smooth="yes"/>
      <point x="134.3684210526316" y="506.5052631578947"/>
      <point x="54.48421052631579" y="396.7157894736842"/>
      <point x="54.48421052631579" y="249.3578947368421" type="curve" smooth="yes"/>
      <point x="54.48421052631579" y="110.3578947368421"/>
      <point x="126.26315789473685" y="-10.25263157894737"/>
      <point x="269.57894736842104" y="-10.25263157894737" type="curve" smooth="yes"/>
      <point x="324.0" y="-10.25263157894737"/>
      <point x="380.7789473684211" y="15.957894736842103"/>
      <point x="427.2736842105263" y="66.34736842105264" type="curve"/>
      <point x="434.5263157894737" y="66.34736842105264" type="line"/>
      <point x="434.5263157894737" y="25.242105263157896" type="line"/>
      <point x="434.5263157894737" y="-53.96842105263158"/>
      <point x="433.2736842105263" y="-120.78947368421052"/>
    </contour>
    <contour>
      <point x="285.86315789473684" y="49.12631578947368" type="curve"/>
      <point x="169.93684210526317" y="52.12631578947368"/>
      <point x="120.5578947368421" y="144.9578947368421"/>
      <point x="120.5578947368421" y="249.0" type="curve" smooth="yes"/>
      <point x="120.5578947368421" y="357.6842105263158"/>
      <point x="173.86315789473684" y="443.58947368421053"/>
      <point x="287.5052631578947" y="446.58947368421053" type="curve"/>
      <point x="336.1684210526316" y="445.58947368421053"/>
      <point x="392.6842105263158" y="421.34736842105264"/>
      <point x="434.5263157894737" y="371.11578947368423" type="curve"/>
      <point x="434.5263157894737" y="137.06315789473683" type="line"/>
      <point x="393.86315789473684" y="80.18947368421053"/>
      <point x="342.63157894736844" y="49.663157894736834"/>
    </contour>
  </outline>
</glyph>
<glyph name="r" format="2">
  <advance width="401.87368421052633"/>
  <unicode hex="0072"/>
  <anchor x="124.65263157894736" y="0.0" name="bottom"/>
  <anchor x="232.89473684210526" y="495.4315789473684" name="top"/>
  <outline>
    <contour>
      <point x="93.32631578947368" y="0.0" type="curve"/>
      <point x="168.23157894736843" y="0.0" type="line"/>
      <point x="163.62105263157895" y="73.92631578947369"/>
      <point x="162.54736842105262" y="138.03157894736842"/>
      <point x="162.54736842105262" y="217.2421052631579" type="curve"/>
      <point x="162.54736842105262" y="309.69473684210527" type="line"/>
      <point x="213.77894736842106" y="426.3263157894737"/>
      <point x="274.9789473684211" y="440.3263157894737"/>
      <point x="310.8315789473684" y="440.3263157894737" type="curve" smooth="yes"/>
      <point x="327.83157894736837" y="440.3263157894737"/>
      <point x="349.9789473684211" y="434.6105263157895"/>
      <point x="369.58947368421053" y="427.43157894736845" type="curve"/>
      <point x="375.4526315789474" y="498.14736842105265" type="line"/>
      <point x="358.4526315789474" y="503.86315789473684"/>
      <point x="339.7368421052631" y="506.5052631578947"/>
      <point x="320.5263157894737" y="506.5052631578947" type="curve" smooth="yes"/>
      <point x="277.5263157894737" y="506.5052631578947"/>
      <point x="213.07368421052632" y="485.7157894736842"/>
      <point x="163.0421052631579" y="394.0526315789474" type="curve"/>
      <point x="155.89473684210526" y="394.0526315789474" type="line"/>
      <point x="148.3578947368421" y="499.6842105263158" type="line"/>
      <point x="84.71578947368421" y="495.4315789473684" type="line"/>
      <point x="95.11578947368422" y="419.82105263157894"/>
      <point x="98.18947368421053" y="342.0"/>
      <point x="98.18947368421053" y="269.5684210526316" type="curve"/>
      <point x="98.18947368421053" y="219.56842105263158" type="line"/>
      <point x="98.18947368421053" y="138.03157894736842"/>
      <point x="96.93684210526315" y="73.92631578947369"/>
    </contour>
  </outline>
</glyph>
<glyph name="t" format="2">
  <advance width="406.4421052631579"/>
  <unicode hex="0074"/>
  <anchor x="236.10526315789474" y="0.0" name="bottom"/>
  <anchor x="208.4" y="247.7157894736842" name="center"/>
  <anchor x="198.57894736842104" y="634.021052631579" name="top"/>
  <anchor x="231.46315789473684" y="495.4315789473684" name="topright"/>
  <outline>
    <contour>
      <point x="273.53684210526313" y="-10.25263157894737" type="curve" smooth="yes"/>
      <point x="312.6842105263158" y="-10.25263157894737"/>
      <point x="356.4421052631579" y="3.568421052631579"/>
      <point x="375.94736842105266" y="13.389473684210525" type="curve"/>
      <point x="369.2315789473684" y="74.4421052631579" type="line"/>
      <point x="344.41052631578947" y="58.97894736842106"/>
      <point x="308.2736842105263" y="47.694736842105264"/>
      <point x="287.1684210526316" y="47.694736842105264" type="curve" smooth="yes"/>
      <point x="221.14736842105262" y="47.694736842105264"/>
      <point x="189.26315789473685" y="84.54736842105262"/>
      <point x="189.26315789473685" y="159.82105263157894" type="curve" smooth="yes"/>
      <point x="189.26315789473685" y="474.63157894736844" type="line"/>
      <point x="189.26315789473685" y="550.0"/>
      <point x="190.33684210526317" y="598.8315789473685"/>
      <point x="194.1263157894737" y="671.8000000000001" type="curve"/>
      <point x="119.7578947368421" y="655.6105263157895" type="line"/>
      <point x="124.18947368421053" y="594.0"/>
      <point x="125.4421052631579" y="540.5684210526316"/>
      <point x="125.4421052631579" y="474.63157894736844" type="curve"/>
      <point x="125.4421052631579" y="390.9157894736842"/>
      <point x="123.72631578947369" y="271.8315789473684"/>
      <point x="123.72631578947369" y="147.68421052631578" type="curve" smooth="yes"/>
      <point x="123.72631578947369" y="40.95789473684211"/>
      <point x="175.8421052631579" y="-10.25263157894737"/>
    </contour>
    <contour>
      <point x="25.957894736842107" y="437.58947368421053" type="line"/>
      <point x="141.7157894736842" y="445.63157894736844" type="line"/>
      <point x="166.53684210526316" y="445.63157894736844" type="line"/>
      <point x="231.85263157894738" y="445.2736842105263"/>
      <point x="302.34736842105264" y="443.2"/>
      <point x="370.2" y="437.58947368421053" type="curve"/>
      <point x="370.2" y="495.4315789473684" type="line"/>
      <point x="25.957894736842107" y="495.4315789473684" type="line"/>
    </contour>
  </outline>
</glyph>
<glyph name="u" format="2">
  <advance width="557.2315789473685"/>
  <unicode hex="0075"/>
  <anchor x="278.4" y="0.0" name="bottom"/>
  <anchor x="480.0736842105263" y="0.0" name="ogonek"/>
  <anchor x="278.4" y="495.4315789473684" name="top"/>
  <anchor x="528.2" y="495.4315789473684" name="topright"/>
  <outline>
    <contour>
      <point x="231.62105263157895" y="-10.25263157894737" type="curve" smooth="yes"/>
      <point x="297.0421052631579" y="-10.25263157894737"/>
      <point x="370.0" y="46.55789473684211"/>
      <point x="407.2526315789474" y="90.70526315789473" type="curve"/>
      <point x="415.22105263157897" y="90.70526315789473" type="line"/>
      <point x="419.4736842105263" y="0.0" type="line"/>
      <point x="481.14736842105265" y="0.0" type="line"/>
      <point x="476.53684210526313" y="73.92631578947369"/>
      <point x="475.46315789473687" y="138.03157894736842"/>
      <point x="475.46315789473687" y="219.56842105263158" type="curve"/>
      <point x="475.46315789473687" y="271.3578947368421" type="line"/>
      <point x="475.46315789473687" y="355.7578947368421"/>
      <point x="476.89473684210526" y="421.5052631578947"/>
      <point x="481.5052631578947" y="495.4315789473684" type="curve"/>
      <point x="405.77894736842103" y="495.4315789473684" type="line"/>
      <point x="409.85263157894735" y="421.5052631578947"/>
      <point x="411.10526315789474" y="355.7578947368421"/>
      <point x="411.10526315789474" y="276.7263157894737" type="curve"/>
      <point x="411.10526315789474" y="159.20000000000002" type="line"/>
      <point x="368.0842105263158" y="97.93684210526315"/>
      <point x="295.0" y="50.915789473684214"/>
      <point x="250.69473684210524" y="50.915789473684214" type="curve" smooth="yes"/>
      <point x="170.04210526315788" y="50.915789473684214"/>
      <point x="143.97894736842105" y="96.4421052631579"/>
      <point x="143.97894736842105" y="185.10526315789474" type="curve"/>
      <point x="143.97894736842105" y="276.7263157894737" type="line"/>
      <point x="143.97894736842105" y="355.7578947368421"/>
      <point x="145.05263157894737" y="424.22105263157897"/>
      <point x="149.30526315789473" y="498.14736842105265" type="curve"/>
      <point x="73.57894736842105" y="495.4315789473684" type="line"/>
      <point x="78.01052631578948" y="421.5052631578947"/>
      <point x="79.62105263157895" y="355.7578947368421"/>
      <point x="79.62105263157895" y="271.3578947368421" type="curve"/>
      <point x="79.62105263157895" y="240.56842105263158"/>
      <point x="78.26315789473685" y="210.74736842105264"/>
      <point x="78.26315789473685" y="167.56842105263158" type="curve" smooth="yes"/>
      <point x="78.26315789473685" y="52.49473684210526"/>
      <point x="123.30526315789473" y="-10.25263157894737"/>
    </contour>
  </outline>
</glyph>
<glyph name="v" format="2">
  <advance width="511.5684210526316"/>
  <unicode hex="0076"/>
  <outline>
    <contour>
      <point x="214.26315789473685" y="0.0" type="curve"/>
      <point x="295.8421052631579" y="0.0" type="line"/>
      <point x="316.8736842105263" y="62.17894736842105"/>
      <point x="339.3368421052632" y="123.53684210526316"/>
      <point x="362.8" y="185.7157894736842" type="curve"/>
      <point x="396.0842105263158" y="274.0736842105263" type="line"/>
      <point x="423.5473684210526" y="347.2526315789474"/>
      <point x="452.01052631578943" y="422.2526315789474"/>
      <point x="485.36842105263156" y="495.4315789473684" type="curve"/>
      <point x="407.53684210526313" y="495.4315789473684" type="line"/>
      <point x="380.4421052631579" y="410.30526315789473"/>
      <point x="350.4526315789474" y="325.7473684210526"/>
      <point x="318.64210526315793" y="237.7263157894737" type="curve"/>
      <point x="259.3052631578948" y="71.32631578947368" type="line"/>
      <point x="251.5157894736842" y="71.32631578947368" type="line"/>
      <point x="192.17894736842103" y="237.7263157894737" type="line"/>
      <point x="160.36842105263156" y="325.7473684210526"/>
      <point x="130.5578947368421" y="410.30526315789473"/>
      <point x="103.28421052631579" y="498.14736842105265" type="curve"/>
      <point x="26.2" y="495.4315789473684" type="line"/>
      <point x="56.45263157894737" y="423.0736842105263"/>
      <point x="85.73684210526315" y="348.0736842105263"/>
      <point x="113.19999999999999" y="275.7157894736842" type="curve"/>
      <point x="146.4842105263158" y="187.53684210526316" type="line"/>
      <point x="169.12631578947367" y="127.0"/>
      <point x="193.05263157894737" y="62.17894736842105"/>
    </contour>
  </outline>
</glyph>
<glyph name="w" format="2">
  <advance width="799.3157894736843"/>
  <unicode hex="0077"/>
  <anchor x="400.62105263157895" y="0.0" name="bottom"/>
  <anchor x="400.62105263157895" y="495.4315789473684" name="top"/>
  <outline>
    <contour>
      <point x="192.44210526315788" y="0.0" type="curve"/>
      <point x="273.4842105263158" y="0.0" type="line"/>
      <point x="295.65263157894736" y="81.41052631578947"/>
      <point x="322.6421052631579" y="170.10526315789474"/>
      <point x="346.70526315789476" y="248.8736842105263" type="curve"/>
      <point x="394.0105263157895" y="403.58947368421053" type="line"/>
      <point x="401.4421052631579" y="403.58947368421053" type="line"/>
      <point x="448.9263157894737" y="250.69473684210527" type="line"/>
      <point x="473.9894736842105" y="171.92631578947368"/>
      <point x="502.33684210526314" y="81.41052631578947"/>
      <point x="525.5052631578948" y="0.0" type="curve"/>
      <point x="609.3368421052631" y="0.0" type="line"/>
      <point x="626.9052631578948" y="61.0"/>
      <point x="647.0105263157894" y="125.3578947368421"/>
      <point x="667.8315789473684" y="189.53684210526316" type="curve"/>
      <point x="696.4736842105264" y="276.7157894736842" type="line"/>
      <point x="720.2947368421053" y="349.0736842105263"/>
      <point x="744.9368421052632" y="422.0736842105263"/>
      <point x="773.8315789473684" y="495.4315789473684" type="curve"/>
      <point x="695.7473684210527" y="495.4315789473684" type="line"/>
      <point x="674.4" y="419.1578947368421"/>
      <point x="645.9473684210526" y="321.85263157894735"/>
      <point x="620.0631578947368" y="237.29473684210527" type="curve"/>
      <point x="569.1157894736842" y="70.17894736842106" type="line"/>
      <point x="562.3263157894737" y="70.17894736842106" type="line"/>
      <point x="511.37894736842105" y="236.1157894736842" type="line"/>
      <point x="485.4947368421053" y="321.6736842105263"/>
      <point x="458.14736842105265" y="411.87368421052633"/>
      <point x="434.8" y="495.4315789473684" type="curve"/>
      <point x="364.7684210526316" y="495.4315789473684" type="line"/>
      <point x="340.59999999999997" y="407.41052631578947"/>
      <point x="314.89473684210526" y="320.2105263157895"/>
      <point x="289.0105263157895" y="234.4736842105263" type="curve"/>
      <point x="239.70526315789473" y="70.17894736842106" type="line"/>
      <point x="232.9157894736842" y="70.17894736842106" type="line"/>
      <point x="182.61052631578949" y="230.3684210526316" type="line"/>
      <point x="155.7263157894737" y="315.9263157894737"/>
      <point x="126.73684210526315" y="413.41052631578947"/>
      <point x="102.74736842105263" y="498.14736842105265" type="curve"/>
      <point x="25.48421052631579" y="495.4315789473684" type="line"/>
      <point x="54.55789473684211" y="421.2526315789474"/>
      <point x="78.5578947368421" y="350.0736842105263"/>
      <point x="103.02105263157895" y="276.7157894736842" type="curve"/>
      <point x="132.30526315789473" y="188.53684210526316" type="line"/>
      <point x="153.76842105263157" y="124.53684210526316"/>
      <point x="174.05263157894737" y="62.17894736842105"/>
    </contour>
  </outline>
</glyph>
<glyph name="x" format="2">
  <advance width="528.4315789473684"/>
  <unicode hex="0078"/>
  <outline>
    <contour>
      <point x="28.736842105263158" y="0.0" type="curve"/>
      <point x="112.28421052631579" y="0.0" type="line"/>
      <point x="140.5578947368421" y="46.136842105263156"/>
      <point x="163.26315789473685" y="79.63157894736842"/>
      <point x="194.7157894736842" y="125.58947368421053" type="curve"/>
      <point x="254.69473684210527" y="212.68421052631578" type="line"/>
      <point x="261.12631578947367" y="212.68421052631578" type="line"/>
      <point x="327.38947368421054" y="121.58947368421053" type="line"/>
      <point x="359.84210526315786" y="76.98947368421052"/>
      <point x="383.5473684210526" y="43.136842105263156"/>
      <point x="412.82105263157894" y="0.0" type="curve"/>
      <point x="500.58947368421053" y="0.0" type="line"/>
      <point x="447.94736842105266" y="64.07368421052631"/>
      <point x="417.0210526315789" y="103.61052631578947"/>
      <point x="381.4526315789474" y="150.32631578947368" type="curve"/>
      <point x="295.6736842105263" y="264.29473684210524" type="line"/>
      <point x="298.6421052631579" y="245.10526315789474" type="line"/>
      <point x="374.9578947368421" y="351.0" type="line"/>
      <point x="410.70526315789476" y="400.53684210526313"/>
      <point x="432.9894736842105" y="430.89473684210526"/>
      <point x="483.91578947368424" y="495.4315789473684" type="curve"/>
      <point x="399.36842105263156" y="495.4315789473684" type="line"/>
      <point x="371.0947368421053" y="449.11578947368423"/>
      <point x="348.0315789473684" y="415.2631578947368"/>
      <point x="318.6842105263158" y="372.41052631578947" type="curve"/>
      <point x="261.63157894736844" y="289.77894736842103" type="line"/>
      <point x="255.66315789473686" y="289.77894736842103" type="line"/>
      <point x="198.25263157894736" y="371.94736842105266" type="line"/>
      <point x="168.7263157894737" y="414.62105263157895"/>
      <point x="145.1263157894737" y="449.5473684210526"/>
      <point x="114.38947368421053" y="498.14736842105265" type="curve"/>
      <point x="31.126315789473683" y="495.4315789473684" type="line"/>
      <point x="80.87368421052632" y="433.2526315789474"/>
      <point x="107.15789473684211" y="397.53684210526313"/>
      <point x="143.18947368421053" y="347.53684210526313" type="curve"/>
      <point x="218.61052631578949" y="241.82105263157894" type="line"/>
      <point x="217.78947368421052" y="262.65263157894736" type="line"/>
      <point x="140.26315789473685" y="151.68421052631578" type="line"/>
      <point x="105.23157894736842" y="101.78947368421052"/>
      <point x="79.48421052631579" y="66.25263157894737"/>
    </contour>
  </outline>
</glyph>
<glyph name="y" format="2">
  <advance width="514.8526315789475"/>
  <unicode hex="0079"/>
  <anchor x="375.7684210526316" y="0.0" name="bottom"/>
  <anchor x="257.87368421052633" y="495.4315789473684" name="top"/>
  <outline>
    <contour>
      <point x="136.04210526315788" y="-194.7157894736842" type="curve"/>
      <point x="214.94736842105263" y="-192.0" type="line"/>
      <point x="240.8" y="-120.0"/>
      <point x="272.62105263157895" y="-38.28421052631579"/>
      <point x="323.0842105263158" y="88.71578947368421" type="curve"/>
      <point x="378.5473684210526" y="228.07368421052632" type="line"/>
      <point x="428.0105263157895" y="353.2526315789474"/>
      <point x="452.8315789473684" y="414.4315789473684"/>
      <point x="488.65263157894736" y="495.4315789473684" type="curve"/>
      <point x="411.17894736842106" y="495.4315789473684" type="line"/>
      <point x="383.2631578947368" y="409.05263157894734"/>
      <point x="352.4526315789474" y="324.85263157894735"/>
      <point x="319.6421052631579" y="236.83157894736843" type="curve"/>
      <point x="256.66315789473686" y="69.89473684210526" type="line"/>
      <point x="248.8736842105263" y="69.89473684210526" type="line"/>
      <point x="191.17894736842106" y="236.18947368421053" type="line"/>
      <point x="160.18947368421053" y="325.38947368421054"/>
      <point x="131.8421052631579" y="408.94736842105266"/>
      <point x="103.10526315789474" y="498.14736842105265" type="curve"/>
      <point x="26.2" y="495.4315789473684" type="line"/>
      <point x="56.73684210526316" y="424.43157894736845"/>
      <point x="85.37894736842105" y="348.43157894736845"/>
      <point x="112.02105263157895" y="277.0736842105263" type="curve"/>
      <point x="145.30526315789473" y="187.07368421052632" type="line"/>
      <point x="169.94736842105263" y="120.89473684210526"/>
      <point x="196.41052631578947" y="49.89473684210526"/>
      <point x="219.26315789473682" y="-18.28421052631579" type="curve"/>
      <point x="221.8736842105263" y="0.47368421052631593" type="line"/>
      <point x="196.5157894736842" y="-63.95789473684211"/>
      <point x="167.44210526315788" y="-130.2842105263158"/>
    </contour>
  </outline>
</glyph>
<glyph name="z" format="2">
  <advance width="491.66315789473686"/>
  <unicode hex="007A"/>
  <anchor x="244.01052631578946" y="0.0" name="bottom"/>
  <anchor x="244.01052631578946" y="247.7157894736842" name="center"/>
  <anchor x="244.01052631578946" y="495.4315789473684" name="top"/>
  <outline>
    <contour>
      <point x="40.421052631578945" y="0.0" type="line"/>
      <point x="454.5263157894737" y="0.0" type="line"/>
      <point x="454.5263157894737" y="58.55789473684211" type="line"/>
      <point x="385.0" y="53.873684210526314"/>
      <point x="291.0842105263158" y="51.62105263157895"/>
      <point x="234.66315789473686" y="51.62105263157895" type="curve"/>
      <point x="109.71578947368421" y="51.62105263157895" type="line"/>
      <point x="117.7578947368421" y="35.82105263157895" type="line"/>
      <point x="283.0842105263158" y="252.31578947368422" type="line"/>
      <point x="333.14736842105265" y="317.9473684210526"/>
      <point x="397.67368421052635" y="399.2526315789474"/>
      <point x="438.2421052631579" y="448.7789473684211" type="curve"/>
      <point x="438.2421052631579" y="495.4315789473684" type="line"/>
      <point x="41.67368421052632" y="495.4315789473684" type="line"/>
      <point x="41.67368421052632" y="435.9789473684211" type="line"/>
      <point x="117.02105263157895" y="442.021052631579"/>
      <point x="212.29473684210527" y="443.63157894736844"/>
      <point x="267.89473684210526" y="443.63157894736844" type="curve"/>
      <point x="381.09473684210525" y="443.63157894736844" type="line"/>
      <point x="370.5157894736842" y="468.2526315789474" type="line"/>
      <point x="204.22105263157894" y="249.89473684210526" type="line"/>
      <point x="156.97894736842107" y="187.7263157894737"/>
      <point x="99.73684210526315" y="115.81052631578947"/>
      <point x="40.421052631578945" y="41.78947368421053" type="curve"/>
    </contour>
  </outline>
</glyph>
<glyph name="braceleft" format="2">
  <advance width="393.11578947368423"/>
  <unicode hex="007B"/>
  <outline>
    <contour>
      <point x="295.7368421052632" y="-115.22105263157894" type="curve" smooth="yes"/>
      <point x="379.53684210526313" y="-115.22105263157894" type="line"/>
      <point x="379.53684210526313" y="-57.915789473684214" type="line"/>
      <point x="345.53684210526313" y="-59.452631578947376"/>
      <point x="319.3578947368421" y="-59.631578947368425"/>
      <point x="302.3578947368421" y="-59.631578947368425" type="curve"/>
      <point x="235.69473684210527" y="-58.27368421052632"/>
      <point x="202.9894736842105" y="-28.957894736842107"/>
      <point x="202.6315789473684" y="28.568421052631578" type="curve" smooth="yes"/>
      <point x="201.09473684210525" y="195.8421052631579" type="line" smooth="yes"/>
      <point x="200.2" y="273.66315789473686"/>
      <point x="170.09473684210525" y="299.6736842105263"/>
      <point x="123.18947368421053" y="320.6421052631579" type="curve"/>
      <point x="123.18947368421053" y="328.2526315789474" type="line"/>
      <point x="170.09473684210525" y="348.57894736842104"/>
      <point x="200.2" y="374.69473684210527"/>
      <point x="201.09473684210525" y="452.2315789473684" type="curve" smooth="yes"/>
      <point x="202.6315789473684" y="620.3263157894737" type="line" smooth="yes"/>
      <point x="202.9894736842105" y="677.8526315789474"/>
      <point x="235.69473684210527" y="707.1684210526315"/>
      <point x="302.3578947368421" y="708.5263157894736" type="curve"/>
      <point x="320.17894736842106" y="708.5263157894736"/>
      <point x="347.0" y="708.3473684210526"/>
      <point x="378.6421052631579" y="706.8105263157894" type="curve"/>
      <point x="378.6421052631579" y="764.1157894736842" type="line"/>
      <point x="295.7368421052632" y="764.1157894736842" type="line" smooth="yes"/>
      <point x="198.68421052631578" y="764.1157894736842"/>
      <point x="137.95789473684212" y="715.1789473684211"/>
      <point x="137.95789473684212" y="628.021052631579" type="curve"/>
      <point x="137.95789473684212" y="569.3157894736842"/>
      <point x="139.85263157894738" y="510.7894736842105"/>
      <point x="139.85263157894738" y="452.0842105263158" type="curve"/>
      <point x="139.85263157894738" y="377.4526315789474"/>
      <point x="92.22105263157894" y="349.63157894736844"/>
      <point x="43.01052631578948" y="349.63157894736844" type="curve" smooth="yes"/>
      <point x="11.789473684210526" y="349.63157894736844" type="line"/>
      <point x="11.789473684210526" y="298.4421052631579" type="line"/>
      <point x="43.01052631578948" y="298.4421052631579" type="line" smooth="yes"/>
      <point x="92.22105263157894" y="298.4421052631579"/>
      <point x="139.85263157894738" y="270.62105263157895"/>
      <point x="139.85263157894738" y="195.98947368421054" type="curve"/>
      <point x="139.85263157894738" y="137.2842105263158"/>
      <point x="137.95789473684212" y="79.57894736842105"/>
      <point x="137.95789473684212" y="20.873684210526314" type="curve"/>
      <point x="137.95789473684212" y="-66.28421052631579"/>
      <point x="198.68421052631578" y="-115.22105263157894"/>
    </contour>
  </outline>
</glyph>
<glyph name="bar" format="2">
  <advance width="259.30526315789473"/>
  <unicode hex="007C"/>
  <outline>
    <contour>
      <point x="96.54736842105264" y="-155.78947368421052" type="curve"/>
      <point x="162.7578947368421" y="-155.78947368421052" type="line"/>
      <point x="159.14736842105265" y="-37.78947368421053"/>
      <point x="158.96842105263158" y="65.21052631578948"/>
      <point x="158.96842105263158" y="173.21052631578948" type="curve"/>
      <point x="158.96842105263158" y="455.2105263157895" type="line"/>
      <point x="158.96842105263158" y="563.2105263157895"/>
      <point x="159.14736842105265" y="666.2105263157895"/>
      <point x="162.7578947368421" y="784.2105263157895" type="curve"/>
      <point x="96.54736842105264" y="784.2105263157895" type="line"/>
      <point x="100.15789473684211" y="666.2105263157895"/>
      <point x="100.33684210526316" y="563.2105263157895"/>
      <point x="100.33684210526316" y="455.2105263157895" type="curve"/>
      <point x="100.33684210526316" y="173.21052631578948" type="line"/>
      <point x="100.33684210526316" y="65.21052631578948"/>
      <point x="100.15789473684211" y="-37.78947368421053"/>
    </contour>
  </outline>
</glyph>
<glyph name="asciitilde" format="2">
  <advance width="565.3684210526316"/>
  <unicode hex="007E"/>
  <outline>
    <contour>
      <point x="394.7578947368421" y="225.1263157894737" type="curve" smooth="yes"/>
      <point x="455.30526315789473" y="225.1263157894737"/>
      <point x="500.7368421052632" y="272.3578947368421"/>
      <point x="500.7368421052632" y="355.8105263157895" type="curve"/>
      <point x="454.5578947368421" y="355.8105263157895" type="line"/>
      <point x="450.12631578947367" y="306.61052631578946"/>
      <point x="426.34736842105264" y="286.40000000000003"/>
      <point x="388.6421052631579" y="284.22105263157897" type="curve"/>
      <point x="322.65263157894736" y="286.7578947368421"/>
      <point x="253.93684210526314" y="370.42105263157896"/>
      <point x="172.86315789473684" y="370.42105263157896" type="curve" smooth="yes"/>
      <point x="111.2421052631579" y="370.42105263157896"/>
      <point x="64.63157894736842" y="323.0105263157895"/>
      <point x="64.63157894736842" y="239.73684210526315" type="curve"/>
      <point x="110.81052631578947" y="239.73684210526315" type="line"/>
      <point x="115.2421052631579" y="288.93684210526317"/>
      <point x="140.37894736842105" y="309.14736842105265"/>
      <point x="178.44210526315788" y="311.3263157894737" type="curve"/>
      <point x="243.53684210526316" y="308.7894736842106"/>
      <point x="313.1473684210526" y="225.1263157894737"/>
    </contour>
  </outline>
</glyph>
<glyph name="sterling" format="2">
  <advance width="586.8736842105263"/>
  <unicode hex="00A3"/>
  <outline>
    <contour>
      <point x="67.84210526315789" y="0.0" type="line"/>
      <point x="552.7684210526315" y="0.0" type="line"/>
      <point x="552.7684210526315" y="66.64210526315789" type="line"/>
      <point x="465.9157894736842" y="60.77894736842105"/>
      <point x="389.88421052631577" y="60.421052631578945"/>
      <point x="259.9263157894737" y="60.421052631578945" type="curve"/>
      <point x="115.6842105263158" y="60.421052631578945" type="line"/>
      <point x="122.47368421052632" y="39.45263157894737" type="line"/>
      <point x="207.02105263157893" y="117.05263157894737"/>
      <point x="213.37894736842105" y="181.3684210526316"/>
      <point x="213.37894736842105" y="238.86315789473684" type="curve" smooth="yes"/>
      <point x="213.37894736842105" y="451.0210526315789" type="line" smooth="yes"/>
      <point x="213.37894736842105" y="578.8842105263158"/>
      <point x="266.7263157894737" y="635.4421052631578"/>
      <point x="373.7368421052632" y="636.978947368421" type="curve"/>
      <point x="399.0210526315789" y="636.978947368421"/>
      <point x="452.2315789473684" y="625.1578947368421"/>
      <point x="515.8736842105263" y="596.5157894736842" type="curve"/>
      <point x="523.7368421052631" y="660.6842105263158" type="line"/>
      <point x="484.2" y="675.6842105263158"/>
      <point x="422.2" y="697.7894736842105"/>
      <point x="369.33684210526314" y="697.7894736842105" type="curve" smooth="yes"/>
      <point x="229.1263157894737" y="697.7894736842105"/>
      <point x="144.33684210526314" y="618.7789473684211"/>
      <point x="144.33684210526314" y="455.5578947368421" type="curve" smooth="yes"/>
      <point x="144.33684210526314" y="378.6736842105263"/>
      <point x="145.8736842105263" y="302.7894736842105"/>
      <point x="145.8736842105263" y="226.0842105263158" type="curve"/>
      <point x="145.8736842105263" y="178.7684210526316"/>
      <point x="141.05263157894737" y="112.70526315789475"/>
      <point x="67.84210526315789" y="43.642105263157895" type="curve"/>
    </contour>
    <contour>
      <point x="61.88421052631579" y="350.35789473684207" type="line"/>
      <point x="122.92631578947369" y="353.25263157894733"/>
      <point x="180.78947368421052" y="353.4315789473684"/>
      <point x="230.47368421052633" y="353.4315789473684" type="curve"/>
      <point x="262.9789473684211" y="353.4315789473684" type="line"/>
      <point x="312.66315789473686" y="353.4315789473684"/>
      <point x="370.5263157894737" y="353.25263157894733"/>
      <point x="431.5684210526316" y="350.35789473684207" type="curve"/>
      <point x="431.5684210526316" y="406.33684210526314" type="line"/>
      <point x="370.5263157894737" y="403.4421052631579"/>
      <point x="312.66315789473686" y="403.2631578947368"/>
      <point x="262.9789473684211" y="403.2631578947368" type="curve"/>
      <point x="230.47368421052633" y="403.2631578947368" type="line"/>
      <point x="180.78947368421052" y="403.2631578947368"/>
      <point x="122.92631578947369" y="403.4421052631579"/>
      <point x="61.88421052631579" y="406.33684210526314" type="curve"/>
    </contour>
  </outline>
</glyph>
<glyph name="currency" format="2">
  <advance width="615.0315789473684"/>
  <unicode hex="00A4"/>
  <outline>
    <contour>
      <point x="305.69473684210527" y="120.51578947368421" type="curve" smooth="yes"/>
      <point x="422.10526315789474" y="120.51578947368421"/>
      <point x="507.7578947368421" y="195.94736842105263"/>
      <point x="507.7578947368421" y="320.3578947368421" type="curve" smooth="yes"/>
      <point x="507.7578947368421" y="438.36842105263156"/>
      <point x="422.9263157894737" y="520.3052631578947"/>
      <point x="307.69473684210527" y="520.3052631578947" type="curve" smooth="yes"/>
      <point x="190.46315789473684" y="520.3052631578947"/>
      <point x="105.63157894736842" y="438.4421052631579"/>
      <point x="105.63157894736842" y="320.3578947368421" type="curve" smooth="yes"/>
      <point x="105.63157894736842" y="196.1263157894737"/>
      <point x="190.46315789473684" y="120.51578947368421"/>
    </contour>
    <contour>
      <point x="93.3157894736842" y="60.07368421052632" type="line"/>
      <point x="133.9263157894737" y="104.93684210526315"/>
      <point x="174.7157894736842" y="146.0842105263158"/>
      <point x="209.68421052631578" y="181.05263157894737" type="curve"/>
      <point x="167.74736842105264" y="222.98947368421054" type="line"/>
      <point x="132.77894736842106" y="188.02105263157895"/>
      <point x="91.63157894736842" y="147.23157894736843"/>
      <point x="46.76842105263158" y="106.62105263157895" type="curve"/>
    </contour>
    <contour>
      <point x="305.87368421052633" y="178.2842105263158" type="curve"/>
      <point x="228.2842105263158" y="181.0"/>
      <point x="166.62105263157895" y="224.3473684210526"/>
      <point x="166.62105263157895" y="320.17894736842106" type="curve" smooth="yes"/>
      <point x="166.62105263157895" y="410.0105263157895"/>
      <point x="229.10526315789474" y="460.0"/>
      <point x="307.5157894736842" y="462.7157894736842" type="curve"/>
      <point x="385.2842105263158" y="460.0"/>
      <point x="446.7684210526316" y="409.65263157894736"/>
      <point x="446.7684210526316" y="320.17894736842106" type="curve" smooth="yes"/>
      <point x="446.7684210526316" y="224.3473684210526"/>
      <point x="385.10526315789474" y="181.0"/>
    </contour>
    <contour>
      <point x="168.10526315789474" y="419.0105263157895" type="curve"/>
      <point x="209.32631578947368" y="460.2315789473684" type="line"/>
      <point x="174.3578947368421" y="495.2"/>
      <point x="133.56842105263158" y="536.3473684210527"/>
      <point x="92.9578947368421" y="581.2105263157895" type="curve"/>
      <point x="47.126315789473686" y="535.378947368421" type="line"/>
      <point x="91.98947368421052" y="494.7684210526316"/>
      <point x="133.13684210526316" y="453.9789473684211"/>
    </contour>
    <contour>
      <point x="522.0736842105263" y="60.43157894736842" type="curve"/>
      <point x="567.9052631578948" y="106.26315789473684" type="line"/>
      <point x="523.0421052631579" y="146.87368421052633"/>
      <point x="481.89473684210526" y="187.66315789473686"/>
      <point x="446.9263157894737" y="222.6315789473684" type="curve"/>
      <point x="405.70526315789476" y="181.41052631578947" type="line"/>
      <point x="440.6736842105263" y="146.44210526315788"/>
      <point x="481.4631578947368" y="105.29473684210527"/>
    </contour>
    <contour>
      <point x="447.2842105263158" y="418.65263157894736" type="line"/>
      <point x="482.2526315789474" y="453.62105263157895"/>
      <point x="523.4" y="494.41052631578947"/>
      <point x="568.2631578947369" y="535.0210526315789" type="curve"/>
      <point x="521.7157894736841" y="581.5684210526316" type="line"/>
      <point x="481.10526315789474" y="536.7052631578947"/>
      <point x="440.3157894736842" y="495.5578947368421"/>
      <point x="405.34736842105264" y="460.58947368421053" type="curve"/>
    </contour>
  </outline>
</glyph>
<glyph name="yen" format="2">
  <advance width="617.3157894736843"/>
  <unicode hex="00A5"/>
  <outline>
    <contour>
      <point x="276.9789473684211" y="275.8315789473684" type="line"/>
      <point x="341.0526315789474" y="275.8315789473684" type="line"/>
      <point x="490.5789473684211" y="524.0631578947368" type="line"/>
      <point x="521.6842105263158" y="575.8526315789474"/>
      <point x="556.6105263157895" y="633.2842105263157"/>
      <point x="593.578947368421" y="685.0736842105263" type="curve"/>
      <point x="507.0210526315789" y="685.0736842105263" type="line"/>
      <point x="455.7578947368421" y="591.5157894736842"/>
      <point x="428.23157894736846" y="545.0947368421052"/>
      <point x="384.8526315789474" y="471.9263157894737" type="curve"/>
      <point x="312.7684210526316" y="349.9789473684211" type="line"/>
      <point x="304.62105263157895" y="349.9789473684211" type="line"/>
      <point x="233.7157894736842" y="470.9263157894737" type="line"/>
      <point x="189.69473684210524" y="545.5578947368421"/>
      <point x="163.16842105263157" y="591.1578947368421"/>
      <point x="112.08421052631579" y="685.0736842105263" type="curve"/>
      <point x="23.378947368421052" y="685.0736842105263" type="line"/>
      <point x="77.63157894736841" y="604.7473684210527"/>
      <point x="98.81052631578947" y="570.4947368421052"/>
      <point x="127.09473684210525" y="523.8842105263158" type="curve"/>
    </contour>
    <contour>
      <point x="270.5789473684211" y="0.0" type="curve"/>
      <point x="348.4526315789474" y="0.0" type="line"/>
      <point x="342.9473684210526" y="76.74736842105263"/>
      <point x="342.7684210526316" y="142.85263157894738"/>
      <point x="342.7684210526316" y="226.56842105263158" type="curve"/>
      <point x="342.7684210526316" y="330.53684210526313" type="line"/>
      <point x="275.44210526315794" y="330.53684210526313" type="line"/>
      <point x="275.44210526315794" y="226.56842105263158" type="line"/>
      <point x="275.44210526315794" y="142.85263157894738"/>
      <point x="275.2631578947369" y="76.74736842105263"/>
    </contour>
    <contour>
      <point x="82.70526315789473" y="144.01052631578946" type="line"/>
      <point x="143.7473684210526" y="146.90526315789472"/>
      <point x="201.61052631578946" y="147.0842105263158"/>
      <point x="251.29473684210527" y="147.0842105263158" type="curve"/>
      <point x="367.37894736842105" y="147.0842105263158" type="line"/>
      <point x="417.0631578947369" y="147.0842105263158"/>
      <point x="474.92631578947373" y="146.90526315789472"/>
      <point x="535.9684210526316" y="144.01052631578946" type="curve"/>
      <point x="535.9684210526316" y="195.5157894736842" type="line"/>
      <point x="474.92631578947373" y="193.5157894736842"/>
      <point x="417.0631578947369" y="193.33684210526314"/>
      <point x="367.37894736842105" y="193.33684210526314" type="curve"/>
      <point x="251.29473684210527" y="193.33684210526314" type="line"/>
      <point x="201.61052631578946" y="193.33684210526314"/>
      <point x="143.7473684210526" y="193.5157894736842"/>
      <point x="82.70526315789473" y="195.5157894736842" type="curve"/>
    </contour>
    <contour>
      <point x="82.70526315789473" y="283.6736842105263" type="line"/>
      <point x="143.7473684210526" y="285.6736842105263"/>
      <point x="201.61052631578946" y="285.85263157894735"/>
      <point x="251.29473684210527" y="285.85263157894735" type="curve"/>
      <point x="367.37894736842105" y="285.85263157894735" type="line"/>
      <point x="417.0631578947369" y="285.85263157894735"/>
      <point x="474.92631578947373" y="285.6736842105263"/>
      <point x="535.9684210526316" y="283.6736842105263" type="curve"/>
      <point x="535.9684210526316" y="335.17894736842106" type="line"/>
      <point x="474.92631578947373" y="332.2842105263158"/>
      <point x="417.0631578947369" y="332.10526315789474"/>
      <point x="367.37894736842105" y="332.10526315789474" type="curve"/>
      <point x="251.29473684210527" y="332.10526315789474" type="line"/>
      <point x="201.61052631578946" y="332.10526315789474"/>
      <point x="143.7473684210526" y="332.2842105263158"/>
      <point x="82.70526315789473" y="335.17894736842106" type="curve"/>
    </contour>
  </outline>
</glyph>
<glyph name="section" format="2">
  <advance width="537.1954022988506"/>
  <unicode hex="00A7"/>
  <outline>
    <contour>
      <point x="245.17241379310346" y="-124.34482758620689" type="curve" smooth="yes"/>
      <point x="387.9425287356322" y="-124.34482758620689"/>
      <point x="448.85057471264366" y="-47.298850574712645"/>
      <point x="448.85057471264366" y="44.7816091954023" type="curve" smooth="yes"/>
      <point x="448.85057471264366" y="148.39080459770116"/>
      <point x="375.32183908045977" y="178.51724137931035"/>
      <point x="258.02298850574715" y="213.29885057471265" type="curve" smooth="yes"/>
      <point x="160.05747126436782" y="242.5632183908046"/>
      <point x="118.13793103448276" y="268.39080459770116"/>
      <point x="118.13793103448276" y="331.57471264367814" type="curve" smooth="yes"/>
      <point x="118.13793103448276" y="398.67816091954023"/>
      <point x="164.83908045977012" y="427.8045977011494"/>
      <point x="208.5402298850575" y="435.2413793103448" type="curve"/>
      <point x="163.16091954022988" y="478.60919540229884" type="line"/>
      <point x="91.82758620689656" y="455.2183908045977"/>
      <point x="51.35632183908046" y="397.57471264367814"/>
      <point x="51.35632183908046" y="328.6666666666667" type="curve" smooth="yes"/>
      <point x="51.35632183908046" y="234.7471264367816"/>
      <point x="122.97701149425288" y="196.27586206896552"/>
      <point x="215.9655172413793" y="167.54022988505747" type="curve" smooth="yes"/>
      <point x="339.14942528735634" y="129.27586206896552"/>
      <point x="382.45977011494256" y="110.40229885057471"/>
      <point x="382.45977011494256" y="48.0" type="curve" smooth="yes"/>
      <point x="382.45977011494256" y="-41.41379310344827"/>
      <point x="318.6666666666667" y="-65.11494252873564"/>
      <point x="243.04597701149424" y="-67.11494252873564" type="curve"/>
      <point x="185.82758620689654" y="-67.11494252873564"/>
      <point x="119.3103448275862" y="-46.33333333333333"/>
      <point x="52.701149425287355" y="-14.333333333333334" type="curve"/>
      <point x="45.52873563218391" y="-78.6896551724138" type="line"/>
      <point x="93.52873563218391" y="-96.1264367816092"/>
      <point x="163.0919540229885" y="-124.34482758620689"/>
    </contour>
    <contour>
      <point x="393.6896551724138" y="129.04597701149424" type="line"/>
      <point x="464.8045977011494" y="159.4367816091954"/>
      <point x="496.88505747126436" y="217.17241379310346"/>
      <point x="496.88505747126436" y="283.42528735632186" type="curve" smooth="yes"/>
      <point x="496.88505747126436" y="381.95402298850576"/>
      <point x="423.35632183908046" y="414.81609195402297"/>
      <point x="306.0574712643678" y="449.5977011494253" type="curve" smooth="yes"/>
      <point x="208.09195402298852" y="478.86206896551727"/>
      <point x="166.17241379310346" y="504.6896551724138"/>
      <point x="166.17241379310346" y="564.3563218390805" type="curve" smooth="yes"/>
      <point x="166.17241379310346" y="652.9425287356322"/>
      <point x="244.83908045977012" y="666.551724137931"/>
      <point x="291.7586206896552" y="668.551724137931" type="curve"/>
      <point x="318.7586206896552" y="668.551724137931"/>
      <point x="382.32183908045977" y="653.1609195402299"/>
      <point x="454.1034482758621" y="618.1609195402299" type="curve"/>
      <point x="460.2758620689655" y="683.735632183908" type="line"/>
      <point x="413.49425287356325" y="701.1724137931035"/>
      <point x="341.4597701149425" y="725.7816091954023"/>
      <point x="284.1609195402299" y="725.7816091954023" type="curve" smooth="yes"/>
      <point x="169.73563218390805" y="725.7816091954023"/>
      <point x="99.0" y="660.8275862068965"/>
      <point x="99.0" y="565.7471264367816" type="curve" smooth="yes"/>
      <point x="99.0" y="468.3103448275862"/>
      <point x="174.5287356321839" y="429.8390804597701"/>
      <point x="264.0" y="403.44827586206895" type="curve" smooth="yes"/>
      <point x="386.7931034482759" y="366.7471264367816"/>
      <point x="430.4942528735632" y="344.35632183908046"/>
      <point x="430.4942528735632" y="280.39080459770116" type="curve" smooth="yes"/>
      <point x="430.4942528735632" y="216.89655172413794"/>
      <point x="397.0574712643678" y="181.11494252873564"/>
      <point x="348.18390804597703" y="168.0689655172414" type="curve"/>
    </contour>
  </outline>
</glyph>
<glyph name="logicalnot" format="2">
  <advance width="565.3684210526316"/>
  <unicode hex="00AC"/>
  <outline>
    <contour>
      <point x="437.9578947368421" y="61.242105263157896" type="curve"/>
      <point x="503.8105263157895" y="61.242105263157896" type="line"/>
      <point x="500.91578947368424" y="122.28421052631579"/>
      <point x="500.7368421052632" y="180.14736842105262"/>
      <point x="500.7368421052632" y="229.83157894736843" type="curve"/>
      <point x="500.7368421052632" y="329.89473684210526" type="line"/>
      <point x="439.69473684210527" y="327.0"/>
      <point x="381.8315789473684" y="326.82105263157894"/>
      <point x="332.14736842105265" y="326.82105263157894" type="curve"/>
      <point x="233.22105263157894" y="326.82105263157894" type="line"/>
      <point x="183.53684210526316" y="326.82105263157894"/>
      <point x="125.67368421052632" y="327.0"/>
      <point x="64.63157894736842" y="329.89473684210526" type="curve"/>
      <point x="64.63157894736842" y="265.1157894736842" type="line"/>
      <point x="125.67368421052632" y="268.01052631578943"/>
      <point x="183.53684210526316" y="268.1894736842105"/>
      <point x="233.22105263157894" y="268.1894736842105" type="curve"/>
      <point x="332.14736842105265" y="268.1894736842105" type="line"/>
      <point x="377.7578947368421" y="268.1894736842105"/>
      <point x="431.36842105263156" y="268.01052631578943"/>
      <point x="487.1578947368421" y="265.1157894736842" type="curve"/>
      <point x="441.0315789473684" y="308.94736842105266" type="line"/>
      <point x="441.0315789473684" y="229.83157894736843" type="line"/>
      <point x="441.0315789473684" y="180.14736842105262"/>
      <point x="440.85263157894735" y="122.28421052631579"/>
    </contour>
  </outline>
</glyph>
<glyph name="registered" format="2">
  <advance width="566.6526315789474"/>
  <unicode hex="00AE"/>
  <outline>
    <contour>
      <point x="285.5052631578947" y="258.66315789473686" type="curve" smooth="yes"/>
      <point x="437.87368421052633" y="258.66315789473686"/>
      <point x="529.3368421052631" y="362.4526315789474"/>
      <point x="529.3368421052631" y="501.9578947368421" type="curve" smooth="yes"/>
      <point x="529.3368421052631" y="636.7473684210527"/>
      <point x="442.41052631578947" y="744.8947368421053"/>
      <point x="283.61052631578946" y="744.8947368421053" type="curve" smooth="yes"/>
      <point x="126.34736842105264" y="744.8947368421053"/>
      <point x="37.31578947368421" y="638.5684210526316"/>
      <point x="37.31578947368421" y="501.77894736842103" type="curve" smooth="yes"/>
      <point x="37.31578947368421" y="370.88421052631577"/>
      <point x="119.88421052631578" y="258.66315789473686"/>
    </contour>
    <contour>
      <point x="184.49473684210525" y="365.4947368421053" type="curve"/>
      <point x="228.8421052631579" y="365.4947368421053" type="line"/>
      <point x="226.12631578947367" y="397.4947368421053"/>
      <point x="225.76842105263157" y="424.4947368421053"/>
      <point x="225.76842105263157" y="459.4947368421053" type="curve"/>
      <point x="225.76842105263157" y="551.4947368421052" type="line"/>
      <point x="225.76842105263157" y="585.7789473684211"/>
      <point x="226.12631578947367" y="613.2421052631579"/>
      <point x="228.66315789473683" y="644.7052631578947" type="curve"/>
      <point x="183.9578947368421" y="650.4947368421052" type="line"/>
      <point x="186.85263157894735" y="618.4947368421052"/>
      <point x="187.03157894736842" y="590.4947368421052"/>
      <point x="187.03157894736842" y="555.4947368421052" type="curve"/>
      <point x="187.03157894736842" y="459.4947368421053" type="line"/>
      <point x="187.03157894736842" y="424.4947368421053"/>
      <point x="186.85263157894735" y="397.4947368421053"/>
    </contour>
    <contour>
      <point x="285.3263157894737" y="293.85263157894735" type="curve"/>
      <point x="149.13684210526316" y="296.3894736842105"/>
      <point x="73.7578947368421" y="376.1473684210526"/>
      <point x="73.7578947368421" y="501.77894736842103" type="curve" smooth="yes"/>
      <point x="73.7578947368421" y="627.0947368421052"/>
      <point x="151.67368421052632" y="707.3473684210526"/>
      <point x="283.7894736842105" y="709.8842105263158" type="curve"/>
      <point x="416.2631578947368" y="707.3473684210526"/>
      <point x="492.0736842105263" y="628.2"/>
      <point x="492.0736842105263" y="501.9578947368421" type="curve" smooth="yes"/>
      <point x="492.0736842105263" y="375.28421052631575"/>
      <point x="414.8315789473684" y="296.3894736842105"/>
    </contour>
    <contour>
      <point x="357.37894736842105" y="365.4947368421053" type="curve"/>
      <point x="412.2631578947369" y="365.4947368421053" type="line"/>
      <point x="391.9789473684211" y="387.4947368421053"/>
      <point x="367.05263157894734" y="419.6736842105263"/>
      <point x="345.12631578947367" y="447.85263157894735" type="curve"/>
      <point x="301.2736842105263" y="504.2105263157895" type="line"/>
      <point x="286.62105263157895" y="486.88421052631577" type="line"/>
      <point x="357.1578947368421" y="486.88421052631577"/>
      <point x="383.62105263157895" y="525.0631578947368"/>
      <point x="383.62105263157895" y="571.6" type="curve" smooth="yes"/>
      <point x="383.62105263157895" y="628.1368421052632"/>
      <point x="344.62105263157895" y="651.8526315789474"/>
      <point x="284.5052631578947" y="651.8526315789474" type="curve"/>
      <point x="242.53684210526316" y="651.8526315789474"/>
      <point x="209.10526315789474" y="650.4947368421052"/>
      <point x="183.9578947368421" y="650.4947368421052" type="curve"/>
      <point x="213.3684210526316" y="616.3368421052631" type="line"/>
      <point x="282.9684210526316" y="616.3368421052631" type="line" smooth="yes"/>
      <point x="305.46315789473687" y="616.3368421052631"/>
      <point x="343.34736842105264" y="614.5157894736842"/>
      <point x="343.34736842105264" y="569.4526315789474" type="curve" smooth="yes"/>
      <point x="343.34736842105264" y="527.2105263157895"/>
      <point x="314.38947368421054" y="514.2842105263157"/>
      <point x="271.22105263157897" y="514.2842105263157" type="curve" smooth="yes"/>
      <point x="218.44210526315788" y="514.2842105263157" type="line"/>
      <point x="218.44210526315788" y="483.4526315789474" type="line"/>
      <point x="284.1578947368421" y="483.4526315789474" type="line"/>
      <point x="259.89473684210526" y="499.0315789473684" type="line"/>
      <point x="308.85263157894735" y="434.6736842105263" type="line"/>
      <point x="325.6" y="412.85263157894735"/>
      <point x="341.7052631578947" y="391.3157894736842"/>
    </contour>
  </outline>
</glyph>
<glyph name="plusminus" format="2">
  <advance width="565.3684210526316"/>
  <unicode hex="00B1"/>
  <outline>
    <contour>
      <point x="64.63157894736842" y="-3.0736842105263156" type="line"/>
      <point x="125.67368421052632" y="-0.17894736842105263"/>
      <point x="183.53684210526316" y="0.0"/>
      <point x="233.22105263157894" y="0.0" type="curve"/>
      <point x="332.14736842105265" y="0.0" type="line"/>
      <point x="381.8315789473684" y="0.0"/>
      <point x="439.69473684210527" y="-0.17894736842105263"/>
      <point x="500.7368421052632" y="-3.0736842105263156" type="curve"/>
      <point x="500.7368421052632" y="61.70526315789474" type="line"/>
      <point x="439.69473684210527" y="58.810526315789474"/>
      <point x="381.8315789473684" y="58.631578947368425"/>
      <point x="332.14736842105265" y="58.631578947368425" type="curve"/>
      <point x="233.22105263157894" y="58.631578947368425" type="line"/>
      <point x="183.53684210526316" y="58.631578947368425"/>
      <point x="125.67368421052632" y="58.810526315789474"/>
      <point x="64.63157894736842" y="61.70526315789474" type="curve"/>
    </contour>
    <contour>
      <point x="64.63157894736842" y="353.6842105263158" type="line"/>
      <point x="125.67368421052632" y="356.57894736842104"/>
      <point x="183.53684210526316" y="356.7578947368421"/>
      <point x="233.22105263157894" y="356.7578947368421" type="curve"/>
      <point x="332.14736842105265" y="356.7578947368421" type="line"/>
      <point x="381.8315789473684" y="356.7578947368421"/>
      <point x="439.69473684210527" y="356.57894736842104"/>
      <point x="500.7368421052632" y="353.6842105263158" type="curve"/>
      <point x="500.7368421052632" y="418.46315789473687" type="line"/>
      <point x="439.69473684210527" y="415.5684210526316"/>
      <point x="381.8315789473684" y="415.38947368421054"/>
      <point x="332.14736842105265" y="415.38947368421054" type="curve"/>
      <point x="233.22105263157894" y="415.38947368421054" type="line"/>
      <point x="183.53684210526316" y="415.38947368421054"/>
      <point x="125.67368421052632" y="415.5684210526316"/>
      <point x="64.63157894736842" y="418.46315789473687" type="curve"/>
    </contour>
    <contour>
      <point x="249.7578947368421" y="153.38947368421051" type="curve"/>
      <point x="315.61052631578946" y="153.38947368421051" type="line"/>
      <point x="312.7157894736842" y="214.43157894736842"/>
      <point x="312.53684210526313" y="272.29473684210524"/>
      <point x="312.53684210526313" y="321.9789473684211" type="curve"/>
      <point x="312.53684210526313" y="450.1684210526316" type="line"/>
      <point x="312.53684210526313" y="499.85263157894735"/>
      <point x="312.7157894736842" y="557.7157894736843"/>
      <point x="315.61052631578946" y="618.7578947368421" type="curve"/>
      <point x="249.7578947368421" y="618.7578947368421" type="line"/>
      <point x="252.65263157894736" y="557.7157894736843"/>
      <point x="252.83157894736843" y="499.85263157894735"/>
      <point x="252.83157894736843" y="450.1684210526316" type="curve"/>
      <point x="252.83157894736843" y="321.9789473684211" type="line"/>
      <point x="252.83157894736843" y="272.29473684210524"/>
      <point x="252.65263157894736" y="214.43157894736842"/>
    </contour>
  </outline>
</glyph>
<glyph name="micro" format="2">
  <advance width="556.5157894736842"/>
  <unicode hex="00B5"/>
  <outline>
    <contour>
      <point x="73.93684210526317" y="-194.7157894736842" type="curve"/>
      <point x="150.55789473684212" y="-192.0" type="line"/>
      <point x="145.2315789473684" y="-118.07368421052631"/>
      <point x="143.97894736842105" y="-53.96842105263158"/>
      <point x="143.97894736842105" y="25.242105263157896" type="curve" smooth="yes"/>
      <point x="143.97894736842105" y="43.631578947368425" type="line"/>
      <point x="123.08421052631579" y="43.631578947368425" type="line"/>
      <point x="146.18947368421053" y="7.957894736842105"/>
      <point x="182.86315789473684" y="-10.25263157894737"/>
      <point x="239.13684210526316" y="-10.25263157894737" type="curve" smooth="yes"/>
      <point x="301.8736842105263" y="-10.25263157894737"/>
      <point x="373.68421052631584" y="46.91578947368421"/>
      <point x="408.9684210526316" y="91.06315789473683" type="curve"/>
      <point x="416.93684210526317" y="91.06315789473683" type="line"/>
      <point x="441.9684210526316" y="0.0" type="line"/>
      <point x="506.6421052631579" y="0.0" type="line"/>
      <point x="487.85263157894735" y="55.863157894736844"/>
      <point x="475.46315789473687" y="103.4421052631579"/>
      <point x="475.46315789473687" y="146.4842105263158" type="curve"/>
      <point x="475.46315789473687" y="271.3578947368421" type="line"/>
      <point x="475.46315789473687" y="354.93684210526317"/>
      <point x="479.89473684210526" y="422.32631578947365"/>
      <point x="478.0" y="495.4315789473684" type="curve"/>
      <point x="405.77894736842103" y="495.4315789473684" type="line"/>
      <point x="409.85263157894735" y="421.5052631578947"/>
      <point x="411.10526315789474" y="355.7578947368421"/>
      <point x="411.10526315789474" y="276.7263157894737" type="curve"/>
      <point x="411.10526315789474" y="159.20000000000002" type="line"/>
      <point x="368.0842105263158" y="97.93684210526315"/>
      <point x="295.0" y="50.915789473684214"/>
      <point x="250.69473684210527" y="50.915789473684214" type="curve" smooth="yes"/>
      <point x="170.04210526315788" y="50.915789473684214"/>
      <point x="143.97894736842105" y="96.4421052631579"/>
      <point x="143.97894736842105" y="185.10526315789474" type="curve"/>
      <point x="143.97894736842105" y="276.7263157894737" type="line"/>
      <point x="143.97894736842105" y="355.7578947368421"/>
      <point x="148.05263157894737" y="424.22105263157897"/>
      <point x="146.8736842105263" y="498.14736842105265" type="curve"/>
      <point x="73.57894736842105" y="495.4315789473684" type="line"/>
      <point x="78.01052631578948" y="421.5052631578947"/>
      <point x="79.62105263157895" y="355.7578947368421"/>
      <point x="79.62105263157895" y="271.3578947368421" type="curve"/>
      <point x="79.62105263157895" y="27.568421052631578" type="line"/>
      <point x="79.62105263157895" y="-53.96842105263158"/>
      <point x="78.36842105263159" y="-120.78947368421052"/>
    </contour>
  </outline>
</glyph>
<glyph name="ordmasculine" format="2">
  <advance width="454.14736842105265"/>
  <unicode hex="00BA"/>
  <outline>
    <contour>
      <point x="228.25263157894736" y="333.0315789473684" type="curve" smooth="yes"/>
      <point x="341.4421052631579" y="333.0315789473684"/>
      <point x="413.62105263157895" y="420.6736842105263"/>
      <point x="413.62105263157895" y="531.9263157894737" type="curve" smooth="yes"/>
      <point x="413.62105263157895" y="641.6421052631579"/>
      <point x="344.9789473684211" y="725.7157894736843"/>
      <point x="227.53684210526316" y="725.7157894736843" type="curve" smooth="yes"/>
      <point x="113.27368421052631" y="725.7157894736843"/>
      <point x="40.526315789473685" y="644.1052631578947"/>
      <point x="40.526315789473685" y="531.9263157894737" type="curve" smooth="yes"/>
      <point x="40.526315789473685" y="426.5684210526316"/>
      <point x="106.81052631578947" y="333.0315789473684"/>
    </contour>
    <contour>
      <point x="228.07368421052632" y="380.7473684210526" type="curve"/>
      <point x="137.49473684210525" y="383.10526315789474"/>
      <point x="94.50526315789475" y="452.978947368421"/>
      <point x="94.50526315789475" y="531.9263157894737" type="curve" smooth="yes"/>
      <point x="94.50526315789475" y="613.6210526315789"/>
      <point x="139.6" y="675.6421052631579"/>
      <point x="228.07368421052632" y="678.0" type="curve"/>
      <point x="311.62105263157895" y="675.2842105263157"/>
      <point x="359.46315789473687" y="618.7263157894737"/>
      <point x="359.46315789473687" y="531.9263157894737" type="curve" smooth="yes"/>
      <point x="359.46315789473687" y="453.8"/>
      <point x="318.4736842105263" y="383.10526315789474"/>
    </contour>
  </outline>
</glyph>
<glyph name="AE" format="2">
  <advance width="968.5057471264367"/>
  <unicode hex="00C6"/>
  <anchor x="508.97701149425285" y="0.0" name="bottom"/>
  <anchor x="508.97701149425285" y="713.0" name="top"/>
  <outline>
    <contour>
      <point x="12.482758620689655" y="0.0" type="curve"/>
      <point x="100.47126436781609" y="0.0" type="line"/>
      <point x="144.04597701149427" y="86.0919540229885"/>
      <point x="194.22988505747125" y="180.01149425287358"/>
      <point x="240.54022988505747" y="263.4942528735632" type="curve"/>
      <point x="457.0919540229885" y="653.0804597701149" type="line"/>
      <point x="475.2183908045977" y="653.0804597701149" type="line"/>
      <point x="525.2758620689655" y="653.0804597701149" type="line"/>
      <point x="530.3563218390805" y="713.0" type="line"/>
      <point x="411.64367816091954" y="713.0" type="line"/>
      <point x="377.1609195402299" y="640.8275862068965"/>
      <point x="339.4597701149425" y="572.1724137931035"/>
      <point x="293.0229885057471" y="488.82758620689657" type="curve"/>
      <point x="154.6206896551724" y="242.0" type="line"/>
      <point x="111.96551724137932" y="165.60919540229884"/>
      <point x="60.310344827586206" y="76.0"/>
    </contour>
    <contour>
      <point x="178.24137931034483" y="187.367816091954" type="line"/>
      <point x="506.4597701149425" y="187.367816091954" type="line"/>
      <point x="502.1609195402299" y="244.33333333333334" type="line"/>
      <point x="183.32183908045977" y="244.33333333333334" type="line"/>
    </contour>
    <contour>
      <point x="469.0919540229885" y="0.0" type="curve"/>
      <point x="549.471264367816" y="0.0" type="line"/>
      <point x="549.471264367816" y="10.25287356321839" type="line"/>
      <point x="544.5172413793103" y="90.08045977011494"/>
      <point x="543.3448275862069" y="159.29885057471265"/>
      <point x="543.3448275862069" y="246.68965517241378" type="curve"/>
      <point x="543.3448275862069" y="465.35632183908046" type="line"/>
      <point x="543.3448275862069" y="553.528735632184"/>
      <point x="544.5172413793103" y="623.1379310344828"/>
      <point x="549.471264367816" y="703.3563218390805" type="curve"/>
      <point x="549.471264367816" y="713.0" type="line"/>
      <point x="469.0919540229885" y="713.0" type="line"/>
      <point x="473.04597701149424" y="632.7816091954023"/>
      <point x="474.2183908045977" y="563.1724137931035"/>
      <point x="474.2183908045977" y="475.0" type="curve"/>
      <point x="474.2183908045977" y="236.4367816091954" type="line"/>
      <point x="474.2183908045977" y="148.6551724137931"/>
      <point x="473.04597701149424" y="79.82758620689656"/>
    </contour>
    <contour>
      <point x="533.8275862068965" y="0.0" type="line"/>
      <point x="909.4137931034483" y="0.0" type="line"/>
      <point x="909.4137931034483" y="68.2183908045977" type="line"/>
      <point x="835.5402298850574" y="62.87356321839081"/>
      <point x="757.0574712643678" y="61.48275862068966"/>
      <point x="667.9655172413793" y="61.48275862068966" type="curve"/>
      <point x="533.8275862068965" y="61.48275862068966" type="line"/>
    </contour>
    <contour>
      <point x="528.3563218390805" y="331.7586206896552" type="line"/>
      <point x="668.448275862069" y="331.7586206896552" type="line"/>
      <point x="759.7126436781609" y="331.7586206896552"/>
      <point x="821.1494252873563" y="331.367816091954"/>
      <point x="888.1954022988506" y="329.1954022988506" type="curve"/>
      <point x="888.1954022988506" y="396.2413793103448" type="line"/>
      <point x="824.7586206896551" y="392.0689655172414"/>
      <point x="762.7126436781609" y="391.67816091954023"/>
      <point x="669.0574712643678" y="391.67816091954023" type="curve"/>
      <point x="528.3563218390805" y="391.67816091954023" type="line"/>
    </contour>
    <contour>
      <point x="531.0919540229885" y="651.5172413793103" type="line"/>
      <point x="661.6206896551724" y="651.5172413793103" type="line"/>
      <point x="767.3218390804598" y="651.5172413793103"/>
      <point x="840.5862068965517" y="649.735632183908"/>
      <point x="908.8505747126437" y="644.7816091954023" type="curve"/>
      <point x="908.8505747126437" y="713.0" type="line"/>
      <point x="531.0919540229885" y="713.0" type="line"/>
    </contour>
  </outline>
</glyph>
<glyph name="multiply" format="2">
  <advance width="561.8736842105263"/>
  <unicode hex="00D7"/>
  <outline>
    <contour>
      <point x="450.98947368421057" y="81.8" type="curve"/>
      <point x="496.6421052631579" y="127.45263157894736" type="line"/>
      <point x="451.77894736842103" y="168.8842105263158"/>
      <point x="410.63157894736844" y="209.85263157894738"/>
      <point x="375.0210526315789" y="244.82105263157894" type="curve"/>
      <point x="228.25263157894736" y="391.58947368421053" type="line"/>
      <point x="193.2842105263158" y="427.2"/>
      <point x="152.31578947368422" y="468.34736842105264"/>
      <point x="110.88421052631578" y="513.2105263157896" type="curve"/>
      <point x="65.23157894736842" y="467.5578947368421" type="line"/>
      <point x="110.09473684210526" y="426.12631578947367"/>
      <point x="151.2421052631579" y="385.1578947368421"/>
      <point x="186.85263157894738" y="350.1894736842105" type="curve"/>
      <point x="333.62105263157895" y="203.42105263157896" type="line"/>
      <point x="368.58947368421053" y="167.81052631578947"/>
      <point x="409.5578947368421" y="126.66315789473684"/>
    </contour>
    <contour>
      <point x="110.88421052631578" y="81.8" type="line"/>
      <point x="152.31578947368422" y="126.66315789473684"/>
      <point x="193.2842105263158" y="167.81052631578947"/>
      <point x="228.25263157894736" y="203.42105263157896" type="curve"/>
      <point x="375.0210526315789" y="350.1894736842105" type="line"/>
      <point x="410.63157894736844" y="385.1578947368421"/>
      <point x="451.77894736842103" y="426.12631578947367"/>
      <point x="496.6421052631579" y="467.5578947368421" type="curve"/>
      <point x="450.98947368421057" y="513.2105263157896" type="line"/>
      <point x="409.5578947368421" y="468.34736842105264"/>
      <point x="368.58947368421053" y="427.2"/>
      <point x="333.62105263157895" y="391.58947368421053" type="curve"/>
      <point x="186.85263157894738" y="244.82105263157894" type="line"/>
      <point x="151.2421052631579" y="209.85263157894738"/>
      <point x="110.09473684210526" y="168.8842105263158"/>
      <point x="65.23157894736842" y="127.45263157894736" type="curve"/>
    </contour>
  </outline>
</glyph>
<glyph name="Thorn" format="2">
  <advance width="622.1149425287357"/>
  <unicode hex="00DE"/>
  <outline>
    <contour>
      <point x="94.32183908045977" y="0.0" type="curve"/>
      <point x="174.70114942528735" y="0.0" type="line"/>
      <point x="169.7471264367816" y="79.82758620689656"/>
      <point x="168.9655172413793" y="148.6551724137931"/>
      <point x="168.9655172413793" y="236.4367816091954" type="curve"/>
      <point x="168.9655172413793" y="475.0" type="line"/>
      <point x="168.9655172413793" y="563.1724137931035"/>
      <point x="169.7471264367816" y="632.7816091954023"/>
      <point x="174.70114942528735" y="713.0" type="curve"/>
      <point x="94.32183908045977" y="713.0" type="line"/>
      <point x="98.27586206896552" y="632.7816091954023"/>
      <point x="99.44827586206897" y="563.1724137931035"/>
      <point x="99.44827586206897" y="475.0" type="curve"/>
      <point x="99.44827586206897" y="236.4367816091954" type="line"/>
      <point x="99.44827586206897" y="148.6551724137931"/>
      <point x="98.27586206896552" y="79.82758620689656"/>
    </contour>
    <contour>
      <point x="316.32183908045977" y="160.01149425287355" type="curve"/>
      <point x="515.4597701149426" y="160.01149425287355"/>
      <point x="577.5862068965517" y="254.9655172413793"/>
      <point x="577.5862068965517" y="382.4367816091954" type="curve" smooth="yes"/>
      <point x="577.5862068965517" y="517.3333333333334"/>
      <point x="502.11494252873564" y="582.3793103448276"/>
      <point x="342.6436781609196" y="582.3793103448276" type="curve"/>
      <point x="263.8505747126437" y="582.3793103448276"/>
      <point x="201.49425287356323" y="580.9885057471264"/>
      <point x="159.66666666666666" y="580.9885057471264" type="curve"/>
      <point x="159.66666666666666" y="521.0689655172414" type="line"/>
      <point x="337.9080459770115" y="521.0689655172414" type="line" smooth="yes"/>
      <point x="410.3103448275862" y="521.0689655172414"/>
      <point x="505.89655172413796" y="510.11494252873564"/>
      <point x="505.89655172413796" y="382.04597701149424" type="curve" smooth="yes"/>
      <point x="505.89655172413796" y="266.85057471264366"/>
      <point x="444.2758620689655" y="220.71264367816093"/>
      <point x="304.7701149425288" y="220.71264367816093" type="curve" smooth="yes"/>
      <point x="159.66666666666666" y="220.71264367816093" type="line"/>
      <point x="159.66666666666666" y="161.4022988505747" type="line"/>
      <point x="198.8850574712644" y="161.4022988505747"/>
      <point x="266.1034482758621" y="160.01149425287355"/>
    </contour>
  </outline>
</glyph>
